SplineFontDB: 3.2
FontName: KoreeneSans-BoldItalic
FullName: Koreene Sans Bold Italic
FamilyName: Koreene Sans
Weight: Bold
Copyright: (C) Copyright HanYang I&C Co.,Ltd. All rights reserved.
Version: 2.50; ttfautohint (v1.8.4.7-5d5b-dirty)
ItalicAngle: -9.3
UnderlinePosition: -122
UnderlineWidth: 45
Ascent: 819
Descent: 205
InvalidEm: 0
sfntRevision: 0x00020147
LayerCount: 2
Layer: 0 1 "Back" 1
Layer: 1 1 "Fore" 0
XUID: [1021 531 -1996577725 1118872]
StyleMap: 0x0021
FSType: 0
OS2Version: 4
OS2_WeightWidthSlopeOnly: 0
OS2_UseTypoMetrics: 1
CreationTime: 1068260456
ModificationTime: 1706914549
PfmFamily: 81
TTFWeight: 700
TTFWidth: 5
LineGap: 256
VLineGap: 0
Panose: 0 0 0 0 0 0 0 0 0 0
OS2TypoAscent: 970
OS2TypoAOffset: 0
OS2TypoDescent: -235
OS2TypoDOffset: 0
OS2TypoLinegap: 256
OS2WinAscent: 1098
OS2WinAOffset: 0
OS2WinDescent: 363
OS2WinDOffset: 0
HheadAscent: 970
HheadAOffset: 0
HheadDescent: -235
HheadDOffset: 0
OS2SubXSize: 205
OS2SubYSize: 205
OS2SubXOff: 0
OS2SubYOff: 287
OS2SupXSize: 205
OS2SupYSize: 205
OS2SupXOff: 0
OS2SupYOff: 963
OS2StrikeYSize: 102
OS2StrikeYPos: 512
OS2CapHeight: 735
OS2XHeight: 536
OS2Vendor: 'HY  '
OS2CodePages: 2000019f.00000000
OS2UnicodeRanges: e10002ff.4000001b.00000000.00000000
Lookup: 1 0 0 "'aalt' Access All Alternates lookup 0" { "'aalt' Access All Alternates lookup 0 subtable"  } ['aalt' ('DFLT' <'dflt' > 'cyrl' <'dflt' > 'grek' <'dflt' > 'hang' <'dflt' > 'jamo' <'dflt' > 'latn' <'dflt' > ) ]
Lookup: 3 0 0 "'aalt' Access All Alternates lookup 1" { "'aalt' Access All Alternates lookup 1 subtable"  } ['aalt' ('DFLT' <'dflt' > 'cyrl' <'dflt' > 'grek' <'dflt' > 'hang' <'dflt' > 'jamo' <'dflt' > 'latn' <'dflt' > ) ]
Lookup: 1 0 0 "'locl' Localized Forms in Latin lookup 2" { "'locl' Localized Forms in Latin lookup 2 subtable"  } ['locl' ('latn' <'MOL ' > ) ]
Lookup: 1 0 0 "'locl' Localized Forms in Latin lookup 3" { "'locl' Localized Forms in Latin lookup 3 subtable"  } ['locl' ('latn' <'ROM ' > ) ]

StartChar: exclam
Encoding: 33 33 4
Width: 293
GlyphClass: 2
Flags: W
LayerCount: 2
Fore
SplineSet
22 -5 m 1,0,-1
 46 137 l 1,1,-1
 200 137 l 1,2,-1
 176 -5 l 1,3,-1
 22 -5 l 1,0,-1
191 208 m 1,4,-1
 78 208 l 1,5,-1
 157 740 l 1,6,-1
 286 740 l 1,7,-1
 191 208 l 1,4,-1
EndSplineSet
EndChar

StartChar: quotedbl
Encoding: 34 34 5
Width: 535
GlyphClass: 2
Flags: W
LayerCount: 2
Fore
SplineSet
318 517 m 1,0,-1
 456 817 l 1,1,-1
 588 817 l 1,2,-1
 412 517 l 1,3,-1
 318 517 l 1,0,-1
100 517 m 1,4,-1
 236 817 l 1,5,-1
 370 817 l 1,6,-1
 193 517 l 1,7,-1
 100 517 l 1,4,-1
EndSplineSet
EndChar

StartChar: numbersign
Encoding: 35 35 6
Width: 711
GlyphClass: 2
Flags: W
LayerCount: 2
Fore
SplineSet
29 184 m 1,0,-1
 44 275 l 1,1,-1
 164 275 l 1,2,-1
 213 441 l 1,3,-1
 102 441 l 1,4,-1
 117 532 l 1,5,-1
 238 532 l 1,6,-1
 293 715 l 1,7,-1
 399 715 l 1,8,-1
 345 532 l 1,9,-1
 494 532 l 1,10,-1
 549 715 l 1,11,-1
 655 715 l 1,12,-1
 601 532 l 1,13,-1
 709 532 l 1,14,-1
 694 441 l 1,15,-1
 574 441 l 1,16,-1
 526 275 l 1,17,-1
 636 275 l 1,18,-1
 621 184 l 1,19,-1
 499 184 l 1,20,-1
 446 2 l 1,21,-1
 339 2 l 1,22,-1
 393 184 l 1,23,-1
 244 184 l 1,24,-1
 189 2 l 1,25,-1
 83 2 l 1,26,-1
 137 184 l 1,27,-1
 29 184 l 1,0,-1
270 275 m 1,28,-1
 419 275 l 1,29,-1
 468 441 l 1,30,-1
 318 441 l 1,31,-1
 270 275 l 1,28,-1
EndSplineSet
EndChar

StartChar: dollar
Encoding: 36 36 7
Width: 564
GlyphClass: 2
Flags: W
LayerCount: 2
Fore
SplineSet
19 153 m 1,0,-1
 114 196 l 1,1,2
 134 151 134 151 172 126 c 128,-1,3
 210 101 210 101 259 101 c 0,4,5
 306 101 306 101 342 127 c 128,-1,6
 378 153 378 153 386 202 c 0,7,8
 390 227 390 227 384 245 c 128,-1,9
 378 263 378 263 358 278 c 128,-1,10
 338 293 338 293 318.5 302.5 c 128,-1,11
 299 312 299 312 261.5 330 c 128,-1,12
 224 348 224 348 198 361 c 0,13,14
 87 422 87 422 106 542 c 0,15,16
 116 603 116 603 167.5 658.5 c 128,-1,17
 219 714 219 714 305 728 c 1,18,-1
 318 809 l 1,19,-1
 427 809 l 1,20,-1
 413 727 l 1,21,22
 465 721 465 721 506.5 681.5 c 128,-1,23
 548 642 548 642 559 597 c 1,24,-1
 463 554 l 1,25,26
 424 633 424 633 344 633 c 0,27,28
 297 633 297 633 264 607 c 128,-1,29
 231 581 231 581 225 541 c 0,30,31
 222 525 222 525 223.5 512 c 128,-1,32
 225 499 225 499 233.5 488.5 c 128,-1,33
 242 478 242 478 250 470 c 128,-1,34
 258 462 258 462 276 452 c 128,-1,35
 294 442 294 442 307 436 c 128,-1,36
 320 430 320 430 346.5 418 c 128,-1,37
 373 406 373 406 390 399 c 0,38,39
 527 335 527 335 507 212 c 0,40,41
 493 128 493 128 435 74 c 128,-1,42
 377 20 377 20 294 5 c 1,43,-1
 281 -72 l 1,44,-1
 172 -72 l 1,45,-1
 185 7 l 1,46,47
 130 12 130 12 82.5 54.5 c 128,-1,48
 35 97 35 97 19 153 c 1,0,-1
EndSplineSet
EndChar

StartChar: percent
Encoding: 37 37 8
Width: 972
GlyphClass: 2
Flags: W
LayerCount: 2
Fore
SplineSet
614 169 m 256,0,1
 607 124 607 124 628.5 98 c 128,-1,2
 650 72 650 72 686 72 c 256,3,4
 722 72 722 72 751.5 98.5 c 128,-1,5
 781 125 781 125 788 169 c 0,6,7
 795 214 795 214 775 240 c 128,-1,8
 755 266 755 266 718 266 c 256,9,10
 681 266 681 266 651 240 c 128,-1,11
 621 214 621 214 614 169 c 256,0,1
213 566 m 0,12,13
 205 520 205 520 226.5 494.5 c 128,-1,14
 248 469 248 469 283 469 c 0,15,16
 319 469 319 469 348.5 495.5 c 128,-1,17
 378 522 378 522 385 566 c 256,18,19
 392 610 392 610 372 636.5 c 128,-1,20
 352 663 352 663 315 663 c 256,21,22
 278 663 278 663 249 636.5 c 128,-1,23
 220 610 220 610 213 566 c 0,12,13
125 -5 m 1,24,-1
 756 740 l 1,25,-1
 876 740 l 1,26,-1
 244 -5 l 1,27,-1
 125 -5 l 1,24,-1
505 169 m 0,28,29
 518 249 518 249 581.5 302.5 c 128,-1,30
 645 356 645 356 733 356 c 0,31,32
 819 356 819 356 864.5 303 c 128,-1,33
 910 250 910 250 897 169 c 0,34,35
 883 86 883 86 819 34.5 c 128,-1,36
 755 -17 755 -17 671 -17 c 0,37,38
 584 -17 584 -17 538 35.5 c 128,-1,39
 492 88 492 88 505 169 c 0,28,29
103 566 m 0,40,41
 116 646 116 646 179.5 699 c 128,-1,42
 243 752 243 752 330 752 c 0,43,44
 416 752 416 752 462.5 699.5 c 128,-1,45
 509 647 509 647 495 566 c 0,46,47
 481 484 481 484 417 431.5 c 128,-1,48
 353 379 353 379 268 379 c 0,49,50
 182 379 182 379 136 432 c 128,-1,51
 90 485 90 485 103 566 c 0,40,41
EndSplineSet
EndChar

StartChar: ampersand
Encoding: 38 38 9
Width: 658
GlyphClass: 2
Flags: W
LayerCount: 2
Fore
SplineSet
146 196 m 0,0,1
 137 144 137 144 165.5 114 c 128,-1,2
 194 84 194 84 247 84 c 0,3,4
 315 84 315 84 381 145 c 1,5,-1
 262 349 l 1,6,7
 160 279 160 279 146 196 c 0,0,1
27 194 m 0,8,9
 50 332 50 332 220 433 c 1,10,11
 186 492 186 492 180 520 c 0,12,13
 175 545 175 545 180 571 c 0,14,15
 192 645 192 645 251 690 c 128,-1,16
 310 735 310 735 398 735 c 0,17,18
 473 735 473 735 519 696 c 128,-1,19
 565 657 565 657 580 598 c 1,20,-1
 486 560 l 1,21,22
 456 636 456 636 391 636 c 0,23,24
 353 636 353 636 328 617 c 128,-1,25
 303 598 303 598 298 568 c 0,26,27
 295 552 295 552 302.5 528.5 c 128,-1,28
 310 505 310 505 330.5 465 c 128,-1,29
 351 425 351 425 370 392 c 128,-1,30
 389 359 389 359 428 295 c 0,31,32
 447 262 447 262 457 245 c 1,33,34
 486 297 486 297 508 363 c 1,35,-1
 611 345 l 1,36,37
 576 237 576 237 513 151 c 1,38,-1
 604 0 l 1,39,-1
 465 0 l 1,40,-1
 431 58 l 1,41,42
 339 -18 339 -18 228 -18 c 0,43,44
 116 -18 116 -18 64 43.5 c 128,-1,45
 12 105 12 105 27 194 c 0,8,9
EndSplineSet
EndChar

StartChar: quotesingle
Encoding: 39 39 10
Width: 329
GlyphClass: 2
Flags: W
LayerCount: 2
Fore
SplineSet
114 517 m 1,0,-1
 251 817 l 1,1,-1
 384 817 l 1,2,-1
 207 517 l 1,3,-1
 114 517 l 1,0,-1
EndSplineSet
EndChar

StartChar: parenleft
Encoding: 40 40 11
Width: 420
GlyphClass: 2
Flags: W
LayerCount: 2
Fore
SplineSet
125 354 m 0,0,1
 170 625 170 625 374 851 c 1,2,-1
 451 802 l 1,3,4
 375 702 375 702 345 652 c 0,5,6
 268 521 268 521 241 354 c 0,7,8
 217 211 217 211 235 111 c 128,-1,9
 253 11 253 11 303 -95 c 1,10,-1
 209 -145 l 1,11,12
 148 -34 148 -34 124 85 c 128,-1,13
 100 204 100 204 125 354 c 0,0,1
EndSplineSet
Substitution2: "'sups' Superscript lookup 5 subtable" uni207D
Substitution2: "'aalt' Access All Alternates lookup 0 subtable" uni207D
EndChar

StartChar: parenright
Encoding: 41 41 12
Width: 420
GlyphClass: 2
Flags: W
LayerCount: 2
Fore
SplineSet
-7 -95 m 1,0,1
 83 15 83 15 132 118.5 c 128,-1,2
 181 222 181 222 203 353 c 0,3,4
 216 432 216 432 216.5 498.5 c 128,-1,5
 217 565 217 565 204.5 620.5 c 128,-1,6
 192 676 192 676 178.5 713.5 c 128,-1,7
 165 751 165 751 141 802 c 1,8,-1
 235 851 l 1,9,10
 293 747 293 747 319 628.5 c 128,-1,11
 345 510 345 510 319 353 c 0,12,13
 294 201 294 201 230.5 82.5 c 128,-1,14
 167 -36 167 -36 70 -145 c 1,15,-1
 -7 -95 l 1,0,1
EndSplineSet
Substitution2: "'sups' Superscript lookup 5 subtable" uni207E
Substitution2: "'aalt' Access All Alternates lookup 0 subtable" uni207E
EndChar

StartChar: asterisk
Encoding: 42 42 13
Width: 544
GlyphClass: 2
Flags: W
LayerCount: 2
Fore
SplineSet
36 401 m 1,0,-1
 92 498 l 1,1,-1
 248 431 l 1,2,-1
 272 610 l 1,3,-1
 379 610 l 1,4,-1
 344 431 l 1,5,-1
 522 498 l 1,6,-1
 546 401 l 1,7,-1
 351 344 l 1,8,-1
 467 189 l 1,9,-1
 368 122 l 1,10,-1
 273 292 l 1,11,-1
 121 122 l 1,12,-1
 45 189 l 1,13,-1
 213 344 l 1,14,-1
 36 401 l 1,0,-1
EndSplineSet
EndChar

StartChar: plus
Encoding: 43 43 14
Width: 543
GlyphClass: 2
Flags: W
LayerCount: 2
Fore
SplineSet
29 310 m 1,0,-1
 46 414 l 1,1,-1
 234 414 l 1,2,-1
 267 610 l 1,3,-1
 381 610 l 1,4,-1
 349 414 l 1,5,-1
 540 414 l 1,6,-1
 523 310 l 1,7,-1
 332 310 l 1,8,-1
 298 108 l 1,9,-1
 184 108 l 1,10,-1
 217 310 l 1,11,-1
 29 310 l 1,0,-1
EndSplineSet
Substitution2: "'sups' Superscript lookup 5 subtable" uni207A
Substitution2: "'aalt' Access All Alternates lookup 0 subtable" uni207A
EndChar

StartChar: comma
Encoding: 44 44 15
Width: 275
GlyphClass: 2
Flags: W
LayerCount: 2
Fore
SplineSet
-64 -157 m 1,0,-1
 73 144 l 1,1,-1
 206 144 l 1,2,-1
 30 -157 l 1,3,-1
 -64 -157 l 1,0,-1
EndSplineSet
EndChar

StartChar: hyphen
Encoding: 45 45 16
Width: 378
GlyphClass: 2
Flags: W
LayerCount: 2
Fore
SplineSet
35 310 m 1,0,-1
 52 414 l 1,1,-1
 368 414 l 1,2,-1
 351 310 l 1,3,-1
 35 310 l 1,0,-1
EndSplineSet
EndChar

StartChar: period
Encoding: 46 46 17
Width: 275
GlyphClass: 2
Flags: W
LayerCount: 2
Fore
SplineSet
13 0 m 1,0,-1
 36 143 l 1,1,-1
 190 143 l 1,2,-1
 166 0 l 1,3,-1
 13 0 l 1,0,-1
EndSplineSet
EndChar

StartChar: slash
Encoding: 47 47 18
Width: 370
GlyphClass: 2
Flags: W
LayerCount: 2
Fore
SplineSet
-70 -54 m 1,0,-1
 347 782 l 1,1,-1
 468 782 l 1,2,-1
 52 -54 l 1,3,-1
 -70 -54 l 1,0,-1
EndSplineSet
EndChar

StartChar: zero
Encoding: 48 48 19
Width: 550
GlyphClass: 2
Flags: W
LayerCount: 2
Fore
SplineSet
176 367 m 0,0,1
 129 84 129 84 243 84 c 0,2,3
 274 84 274 84 300.5 107.5 c 128,-1,4
 327 131 327 131 346.5 172.5 c 128,-1,5
 366 214 366 214 379 261.5 c 128,-1,6
 392 309 392 309 402 367 c 0,7,8
 412 426 412 426 414.5 474.5 c 128,-1,9
 417 523 417 523 411 564 c 128,-1,10
 405 605 405 605 385.5 628 c 128,-1,11
 366 651 366 651 336 651 c 0,12,13
 223 651 223 651 176 367 c 0,0,1
52 367 m 0,14,15
 70 476 70 476 104.5 555 c 128,-1,16
 139 634 139 634 182 674.5 c 128,-1,17
 225 715 225 715 267 733.5 c 128,-1,18
 309 752 309 752 353 752 c 0,19,20
 467 752 467 752 511 650.5 c 128,-1,21
 555 549 555 549 525 367 c 0,22,23
 496 190 496 190 418.5 86 c 128,-1,24
 341 -18 341 -18 226 -18 c 0,25,26
 184 -18 184 -18 148.5 0 c 128,-1,27
 113 18 113 18 82.5 58 c 128,-1,28
 52 98 52 98 43 177.5 c 128,-1,29
 34 257 34 257 52 367 c 0,14,15
EndSplineSet
EndChar

StartChar: one
Encoding: 49 49 20
Width: 550
GlyphClass: 2
Flags: W
LayerCount: 2
Fore
SplineSet
116 518 m 1,0,-1
 131 611 l 1,1,-1
 164 611 l 2,2,3
 313 611 313 611 331 723 c 2,4,-1
 334 742 l 1,5,-1
 438 742 l 1,6,-1
 314 -8 l 1,7,-1
 191 -8 l 1,8,-1
 278 518 l 1,9,-1
 116 518 l 1,0,-1
EndSplineSet
Substitution2: "'subs' Subscript lookup 6 subtable" uni2081
Substitution2: "'sups' Superscript lookup 5 subtable" onesuperior
Substitution2: "'sinf' Scientific Inferiors lookup 4 subtable" uni2081
AlternateSubs2: "'aalt' Access All Alternates lookup 1 subtable" uni2081 onesuperior
EndChar

StartChar: two
Encoding: 50 50 21
Width: 550
GlyphClass: 2
Flags: W
LayerCount: 2
Fore
SplineSet
87 554 m 1,0,1
 123 646 123 646 189 699 c 128,-1,2
 255 752 255 752 348 752 c 0,3,4
 445 752 445 752 498 694.5 c 128,-1,5
 551 637 551 637 535 540 c 0,6,7
 525 477 525 477 487.5 425.5 c 128,-1,8
 450 374 450 374 388 322 c 0,9,10
 376 311 376 311 327.5 269.5 c 128,-1,11
 279 228 279 228 261 211.5 c 128,-1,12
 243 195 243 195 214 163 c 128,-1,13
 185 131 185 131 165 100 c 1,14,-1
 460 100 l 1,15,-1
 443 0 l 1,16,-1
 2 0 l 1,17,18
 9 44 9 44 31 88 c 128,-1,19
 53 132 53 132 77 164.5 c 128,-1,20
 101 197 101 197 143 238.5 c 128,-1,21
 185 280 185 280 212 303 c 128,-1,22
 239 326 239 326 288 367 c 0,23,24
 299 376 299 376 305 381 c 0,25,26
 397 459 397 459 411 543 c 0,27,28
 419 594 419 594 397 622.5 c 128,-1,29
 375 651 375 651 330 651 c 0,30,31
 235 651 235 651 184 523 c 1,32,-1
 87 554 l 1,0,1
EndSplineSet
Substitution2: "'subs' Subscript lookup 6 subtable" uni2082
Substitution2: "'sups' Superscript lookup 5 subtable" twosuperior
Substitution2: "'sinf' Scientific Inferiors lookup 4 subtable" uni2082
AlternateSubs2: "'aalt' Access All Alternates lookup 1 subtable" uni2082 twosuperior
EndChar

StartChar: three
Encoding: 51 51 22
Width: 550
GlyphClass: 2
Flags: W
LayerCount: 2
Fore
SplineSet
8 149 m 1,0,-1
 110 185 l 1,1,2
 136 84 136 84 232 84 c 0,3,4
 284 84 284 84 324.5 117 c 128,-1,5
 365 150 365 150 375 210 c 0,6,7
 384 265 384 265 350.5 299.5 c 128,-1,8
 317 334 317 334 258 334 c 0,9,10
 225 334 225 334 191 330 c 1,11,-1
 208 430 l 1,12,13
 231 428 231 428 269 428 c 0,14,15
 317 428 317 428 356.5 459 c 128,-1,16
 396 490 396 490 405 544 c 0,17,18
 413 591 413 591 389 621 c 128,-1,19
 365 651 365 651 320 651 c 0,20,21
 242 651 242 651 188 545 c 1,22,-1
 95 577 l 1,23,24
 126 654 126 654 192 703 c 128,-1,25
 258 752 258 752 344 752 c 0,26,27
 445 752 445 752 494.5 696.5 c 128,-1,28
 544 641 544 641 530 556 c 0,29,30
 521 499 521 499 485 454.5 c 128,-1,31
 449 410 449 410 403 387 c 1,32,33
 450 370 450 370 480 325 c 128,-1,34
 510 280 510 280 499 210 c 0,35,36
 481 103 481 103 404.5 43 c 128,-1,37
 328 -17 328 -17 216 -17 c 0,38,39
 126 -17 126 -17 71.5 31.5 c 128,-1,40
 17 80 17 80 8 149 c 1,0,-1
EndSplineSet
Substitution2: "'subs' Subscript lookup 6 subtable" uni2083
Substitution2: "'sups' Superscript lookup 5 subtable" threesuperior
Substitution2: "'sinf' Scientific Inferiors lookup 4 subtable" uni2083
AlternateSubs2: "'aalt' Access All Alternates lookup 1 subtable" uni2083 threesuperior
EndChar

StartChar: four
Encoding: 52 52 23
Width: 550
GlyphClass: 2
Flags: W
LayerCount: 2
Fore
SplineSet
17 252 m 1,0,-1
 416 742 l 1,1,-1
 519 742 l 1,2,-1
 438 254 l 1,3,-1
 527 254 l 1,4,-1
 510 153 l 1,5,-1
 421 153 l 1,6,-1
 395 -7 l 1,7,-1
 276 -7 l 1,8,-1
 303 153 l 1,9,-1
 1 153 l 1,10,-1
 17 252 l 1,0,-1
131 254 m 1,11,-1
 319 254 l 1,12,-1
 354 460 l 2,13,14
 362 510 362 510 374 558 c 1,15,-1
 369 558 l 1,16,17
 343 522 343 522 306 473 c 2,18,-1
 131 254 l 1,11,-1
EndSplineSet
Substitution2: "'subs' Subscript lookup 6 subtable" uni2084
Substitution2: "'sups' Superscript lookup 5 subtable" uni2074
Substitution2: "'sinf' Scientific Inferiors lookup 4 subtable" uni2084
AlternateSubs2: "'aalt' Access All Alternates lookup 1 subtable" uni2084 uni2074
EndChar

StartChar: five
Encoding: 53 53 24
Width: 550
GlyphClass: 2
Flags: W
LayerCount: 2
Fore
SplineSet
14 137 m 1,0,-1
 119 173 l 1,1,2
 129 134 129 134 156.5 109 c 128,-1,3
 184 84 184 84 222 84 c 0,4,5
 280 84 280 84 320 123.5 c 128,-1,6
 360 163 360 163 371 229 c 0,7,8
 382 293 382 293 352.5 333.5 c 128,-1,9
 323 374 323 374 269 374 c 0,10,11
 202 374 202 374 141 308 c 1,12,-1
 69 337 l 1,13,-1
 173 735 l 1,14,-1
 538 735 l 1,15,-1
 521 634 l 1,16,-1
 267 634 l 1,17,-1
 214 441 l 1,18,19
 264 474 264 474 327 474 c 0,20,21
 419 474 419 474 465.5 408.5 c 128,-1,22
 512 343 512 343 494 231 c 0,23,24
 486 184 486 184 464.5 141 c 128,-1,25
 443 98 443 98 410 62 c 128,-1,26
 377 26 377 26 324.5 4.5 c 128,-1,27
 272 -17 272 -17 211 -17 c 0,28,29
 128 -17 128 -17 79.5 25.5 c 128,-1,30
 31 68 31 68 14 137 c 1,0,-1
EndSplineSet
EndChar

StartChar: six
Encoding: 54 54 25
Width: 550
GlyphClass: 2
Flags: W
LayerCount: 2
Fore
SplineSet
158 234 m 0,0,1
 147 165 147 165 172 124.5 c 128,-1,2
 197 84 197 84 247 84 c 256,3,4
 297 84 297 84 334.5 124 c 128,-1,5
 372 164 372 164 383 234 c 0,6,7
 395 306 395 306 371 346 c 128,-1,8
 347 386 347 386 296 386 c 0,9,10
 247 386 247 386 208 344 c 128,-1,11
 169 302 169 302 158 234 c 0,0,1
50 334 m 0,12,13
 64 418 64 418 91 491 c 128,-1,14
 118 564 118 564 158 623.5 c 128,-1,15
 198 683 198 683 255 717.5 c 128,-1,16
 312 752 312 752 380 752 c 0,17,18
 524 752 524 752 561 600 c 1,19,-1
 463 567 l 1,20,21
 432 651 432 651 364 651 c 0,22,23
 271 651 271 651 211 496 c 0,24,25
 197 459 197 459 184 412 c 1,26,27
 207 443 207 443 245.5 464.5 c 128,-1,28
 284 486 284 486 330 486 c 0,29,30
 426 486 426 486 474.5 415 c 128,-1,31
 523 344 523 344 505 235 c 0,32,33
 487 125 487 125 414.5 54 c 128,-1,34
 342 -17 342 -17 234 -17 c 0,35,36
 121 -17 121 -17 74 61 c 0,37,38
 20 150 20 150 50 334 c 0,12,13
EndSplineSet
EndChar

StartChar: seven
Encoding: 55 55 26
Width: 550
GlyphClass: 2
Flags: W
LayerCount: 2
Fore
SplineSet
101 631 m 1,0,-1
 118 735 l 1,1,-1
 575 735 l 1,2,-1
 561 652 l 1,3,4
 345 375 345 375 198 -7 c 1,5,-1
 75 -7 l 1,6,7
 189 316 189 316 418 631 c 1,8,-1
 101 631 l 1,0,-1
EndSplineSet
EndChar

StartChar: eight
Encoding: 56 56 27
Width: 550
GlyphClass: 2
Flags: W
LayerCount: 2
Fore
SplineSet
222 544 m 0,0,1
 214 495 214 495 236.5 465.5 c 128,-1,2
 259 436 259 436 301 436 c 256,3,4
 343 436 343 436 374 466 c 128,-1,5
 405 496 405 496 413 544 c 0,6,7
 420 589 420 589 399 620 c 128,-1,8
 378 651 378 651 336 651 c 0,9,10
 293 651 293 651 261 620 c 128,-1,11
 229 589 229 589 222 544 c 0,0,1
21 202 m 0,12,13
 33 275 33 275 78.5 321 c 128,-1,14
 124 367 124 367 177 387 c 1,15,16
 82 442 82 442 100 549 c 0,17,18
 115 637 115 637 187 694.5 c 128,-1,19
 259 752 259 752 353 752 c 0,20,21
 446 752 446 752 499 694.5 c 128,-1,22
 552 637 552 637 538 549 c 0,23,24
 520 441 520 441 407 387 c 1,25,26
 457 365 457 365 486.5 318.5 c 128,-1,27
 516 272 516 272 504 202 c 0,28,29
 488 104 488 104 409.5 43.5 c 128,-1,30
 331 -17 331 -17 226 -17 c 0,31,32
 125 -17 125 -17 64.5 40.5 c 128,-1,33
 4 98 4 98 21 202 c 0,12,13
145 208 m 0,34,35
 136 154 136 154 163 119 c 128,-1,36
 190 84 190 84 242 84 c 256,37,38
 294 84 294 84 333 119 c 128,-1,39
 372 154 372 154 381 208 c 0,40,41
 390 260 390 260 363 298 c 128,-1,42
 336 336 336 336 284 336 c 0,43,44
 233 336 233 336 193.5 298.5 c 128,-1,45
 154 261 154 261 145 208 c 0,34,35
EndSplineSet
EndChar

StartChar: nine
Encoding: 57 57 28
Width: 550
GlyphClass: 2
Flags: W
LayerCount: 2
Fore
SplineSet
193 503 m 0,0,1
 182 436 182 436 206.5 395 c 128,-1,2
 231 354 231 354 279 354 c 0,3,4
 329 354 329 354 366.5 395.5 c 128,-1,5
 404 437 404 437 415 503 c 0,6,7
 426 567 426 567 402.5 609 c 128,-1,8
 379 651 379 651 328 651 c 0,9,10
 279 651 279 651 241.5 609.5 c 128,-1,11
 204 568 204 568 193 503 c 0,0,1
11 136 m 1,12,-1
 113 168 l 1,13,14
 141 84 141 84 212 84 c 0,15,16
 249 84 249 84 280.5 105 c 128,-1,17
 312 126 312 126 333 162.5 c 128,-1,18
 354 199 354 199 368 238.5 c 128,-1,19
 382 278 382 278 391 323 c 1,20,21
 336 255 336 255 246 255 c 0,22,23
 156 255 156 255 104.5 322 c 128,-1,24
 53 389 53 389 71 502 c 0,25,26
 89 612 89 612 166 682 c 128,-1,27
 243 752 243 752 344 752 c 0,28,29
 430 752 430 752 478 696 c 128,-1,30
 526 640 526 640 532 549 c 0,31,32
 536 489 536 489 521 401 c 0,33,34
 488 202 488 202 406.5 92.5 c 128,-1,35
 325 -17 325 -17 194 -17 c 0,36,37
 119 -17 119 -17 71.5 29.5 c 128,-1,38
 24 76 24 76 11 136 c 1,12,-1
EndSplineSet
EndChar

StartChar: colon
Encoding: 58 58 29
Width: 275
GlyphClass: 2
Flags: W
LayerCount: 2
Fore
SplineSet
13 0 m 1,0,-1
 37 145 l 1,1,-1
 190 145 l 1,2,-1
 166 0 l 1,3,-1
 13 0 l 1,0,-1
78 394 m 1,4,-1
 102 539 l 1,5,-1
 256 539 l 1,6,-1
 232 394 l 1,7,-1
 78 394 l 1,4,-1
EndSplineSet
EndChar

StartChar: semicolon
Encoding: 59 59 30
Width: 275
GlyphClass: 2
Flags: W
LayerCount: 2
Fore
SplineSet
-64 -156 m 1,0,-1
 73 145 l 1,1,-1
 206 145 l 1,2,-1
 30 -156 l 1,3,-1
 -64 -156 l 1,0,-1
87 394 m 1,4,-1
 111 539 l 1,5,-1
 265 539 l 1,6,-1
 241 394 l 1,7,-1
 87 394 l 1,4,-1
EndSplineSet
EndChar

StartChar: less
Encoding: 60 60 31
Width: 540
GlyphClass: 2
Flags: W
LayerCount: 2
Fore
SplineSet
39 302 m 1,0,-1
 57 411 l 1,1,-1
 506 715 l 1,2,-1
 553 625 l 1,3,-1
 162 357 l 1,4,-1
 464 87 l 1,5,-1
 387 -2 l 1,6,-1
 39 302 l 1,0,-1
EndSplineSet
EndChar

StartChar: equal
Encoding: 61 61 32
Width: 540
GlyphClass: 2
Flags: W
LayerCount: 2
Fore
SplineSet
31 208 m 1,0,-1
 48 312 l 1,1,-1
 500 312 l 1,2,-1
 483 208 l 1,3,-1
 31 208 l 1,0,-1
65 413 m 1,4,-1
 82 518 l 1,5,-1
 534 518 l 1,6,-1
 517 413 l 1,7,-1
 65 413 l 1,4,-1
EndSplineSet
Substitution2: "'sups' Superscript lookup 5 subtable" uni207C
Substitution2: "'aalt' Access All Alternates lookup 0 subtable" uni207C
EndChar

StartChar: greater
Encoding: 62 62 33
Width: 540
GlyphClass: 2
Flags: W
LayerCount: 2
Fore
SplineSet
58 -2 m 1,0,-1
 10 87 l 1,1,-1
 401 357 l 1,2,-1
 99 625 l 1,3,-1
 177 715 l 1,4,-1
 525 411 l 1,5,-1
 507 302 l 1,6,-1
 58 -2 l 1,0,-1
EndSplineSet
EndChar

StartChar: question
Encoding: 63 63 34
Width: 551
GlyphClass: 2
Flags: W
LayerCount: 2
Fore
SplineSet
102 577 m 1,0,1
 136 653 136 653 204 704 c 128,-1,2
 272 755 272 755 358 755 c 0,3,4
 453 755 453 755 503.5 698 c 128,-1,5
 554 641 554 641 538 547 c 0,6,7
 531 503 531 503 508.5 467.5 c 128,-1,8
 486 432 486 432 458 408.5 c 128,-1,9
 430 385 430 385 401.5 362 c 128,-1,10
 373 339 373 339 351.5 307.5 c 128,-1,11
 330 276 330 276 323 238 c 2,12,-1
 318 205 l 1,13,-1
 197 205 l 1,14,-1
 204 246 l 2,15,16
 210 285 210 285 227.5 318 c 128,-1,17
 245 351 245 351 267 372.5 c 128,-1,18
 289 394 289 394 313 416 c 128,-1,19
 337 438 337 438 358.5 456 c 128,-1,20
 380 474 380 474 396 499 c 128,-1,21
 412 524 412 524 417 553 c 0,22,23
 424 597 424 597 404.5 624 c 128,-1,24
 385 651 385 651 343 651 c 0,25,26
 263 651 263 651 203 541 c 1,27,-1
 102 577 l 1,0,1
146 -5 m 1,28,-1
 170 137 l 1,29,-1
 323 137 l 1,30,-1
 300 -5 l 1,31,-1
 146 -5 l 1,28,-1
EndSplineSet
EndChar

StartChar: at
Encoding: 64 64 35
Width: 908
GlyphClass: 2
Flags: W
LayerCount: 2
Fore
SplineSet
54 346 m 0,0,1
 85 532 85 532 225 651 c 128,-1,2
 365 770 365 770 553 770 c 0,3,4
 725 770 725 770 817.5 664 c 128,-1,5
 910 558 910 558 884 399 c 0,6,7
 871 322 871 322 842 264.5 c 128,-1,8
 813 207 813 207 776 175.5 c 128,-1,9
 739 144 739 144 701.5 128.5 c 128,-1,10
 664 113 664 113 628 113 c 0,11,12
 589 113 589 113 562.5 137.5 c 128,-1,13
 536 162 536 162 534 199 c 1,14,-1
 533 199 l 1,15,16
 515 166 515 166 474 140 c 128,-1,17
 433 114 433 114 387 114 c 0,18,19
 316 114 316 114 277 169 c 128,-1,20
 238 224 238 224 253 314 c 0,21,22
 273 434 273 434 344.5 502.5 c 128,-1,23
 416 571 416 571 500 571 c 0,24,25
 562 571 562 571 590 523 c 1,26,-1
 600 564 l 1,27,-1
 688 564 l 1,28,-1
 623 270 l 2,29,30
 623 267 623 267 623 265 c 0,31,32
 618 236 618 236 625.5 219.5 c 128,-1,33
 633 203 633 203 650 203 c 0,34,35
 690 203 690 203 728 254 c 128,-1,36
 766 305 766 305 781 392 c 0,37,38
 802 521 802 521 736.5 602 c 128,-1,39
 671 683 671 683 539 683 c 0,40,41
 396 683 396 683 288.5 587.5 c 128,-1,42
 181 492 181 492 157 346 c 0,43,44
 131 190 131 190 204.5 99.5 c 128,-1,45
 278 9 278 9 419 9 c 0,46,47
 525 9 525 9 626 38 c 1,48,-1
 630 -43 l 1,49,50
 530 -77 530 -77 404 -77 c 0,51,52
 213 -77 213 -77 118 40.5 c 128,-1,53
 23 158 23 158 54 346 c 0,0,1
362 316 m 0,54,55
 355 273 355 273 369.5 241.5 c 128,-1,56
 384 210 384 210 418 210 c 0,57,58
 457 210 457 210 495.5 254 c 128,-1,59
 534 298 534 298 551 399 c 0,60,61
 557 436 557 436 543 459.5 c 128,-1,62
 529 483 529 483 494 483 c 0,63,64
 455 483 455 483 414.5 436.5 c 128,-1,65
 374 390 374 390 362 316 c 0,54,55
EndSplineSet
EndChar

StartChar: A
Encoding: 65 65 36
Width: 645
GlyphClass: 2
Flags: W
LayerCount: 2
Fore
SplineSet
214 281 m 1,0,-1
 430 281 l 1,1,-1
 400 471 l 2,2,3
 398 492 398 492 394 517 c 128,-1,4
 390 542 390 542 386 572 c 128,-1,5
 382 602 382 602 381 617 c 1,6,-1
 375 617 l 1,7,8
 371 608 371 608 308 471 c 1,9,-1
 214 281 l 1,0,-1
-51 0 m 1,10,-1
 332 735 l 1,11,-1
 464 735 l 1,12,-1
 602 0 l 1,13,-1
 475 0 l 1,14,-1
 445 182 l 1,15,-1
 167 182 l 1,16,-1
 77 0 l 1,17,-1
 -51 0 l 1,10,-1
EndSplineSet
Substitution2: "Single Substitution lookup 12 subtable" ordfeminine
EndChar

StartChar: B
Encoding: 66 66 37
Width: 641
GlyphClass: 2
Flags: W
LayerCount: 2
Fore
SplineSet
29 0 m 1,0,-1
 150 735 l 1,1,-1
 423 735 l 2,2,3
 539 735 539 735 587.5 683 c 128,-1,4
 636 631 636 631 621 541 c 0,5,6
 612 487 612 487 580.5 448.5 c 128,-1,7
 549 410 549 410 506 388 c 1,8,9
 548 372 548 372 575.5 326 c 128,-1,10
 603 280 603 280 592 214 c 0,11,12
 577 122 577 122 509 61 c 128,-1,13
 441 0 441 0 337 0 c 2,14,-1
 29 0 l 1,0,-1
165 104 m 1,15,-1
 333 104 l 2,16,17
 382 104 382 104 420.5 133 c 128,-1,18
 459 162 459 162 468 214 c 0,19,20
 476 263 476 263 450 294.5 c 128,-1,21
 424 326 424 326 368 326 c 2,22,-1
 202 326 l 1,23,-1
 165 104 l 1,15,-1
219 429 m 1,24,-1
 360 429 l 2,25,26
 412 429 412 429 449 454.5 c 128,-1,27
 486 480 486 480 495 532 c 0,28,29
 502 577 502 577 479 603.5 c 128,-1,30
 456 630 456 630 397 630 c 2,31,-1
 252 630 l 1,32,-1
 219 429 l 1,24,-1
EndSplineSet
EndChar

StartChar: C
Encoding: 67 67 38
Width: 645
GlyphClass: 2
Flags: W
LayerCount: 2
Fore
SplineSet
49 368 m 0,0,1
 78 545 78 545 184.5 648.5 c 128,-1,2
 291 752 291 752 432 752 c 0,3,4
 523 752 523 752 580 701 c 128,-1,5
 637 650 637 650 656 574 c 1,6,-1
 547 540 l 1,7,8
 507 647 507 647 413 647 c 0,9,10
 324 647 324 647 259 571 c 128,-1,11
 194 495 194 495 173 368 c 0,12,13
 152 239 152 239 192 163.5 c 128,-1,14
 232 88 232 88 321 88 c 0,15,16
 379 88 379 88 428.5 123.5 c 128,-1,17
 478 159 478 159 506 210 c 1,18,-1
 609 176 l 1,19,20
 590 142 590 142 563 111 c 128,-1,21
 536 80 536 80 498.5 50 c 128,-1,22
 461 20 461 20 411 1.5 c 128,-1,23
 361 -17 361 -17 305 -17 c 0,24,25
 167 -17 167 -17 93 86 c 128,-1,26
 19 189 19 189 49 368 c 0,0,1
EndSplineSet
EndChar

StartChar: D
Encoding: 68 68 39
Width: 662
GlyphClass: 2
Flags: W
LayerCount: 2
Fore
SplineSet
29 0 m 1,0,-1
 150 735 l 1,1,-1
 364 735 l 2,2,3
 527 735 527 735 599.5 640 c 128,-1,4
 672 545 672 545 643 368 c 0,5,6
 633 308 633 308 613 255.5 c 128,-1,7
 593 203 593 203 560.5 155.5 c 128,-1,8
 528 108 528 108 484 74 c 128,-1,9
 440 40 440 40 378 20 c 128,-1,10
 316 0 316 0 241 0 c 2,11,-1
 29 0 l 1,0,-1
165 103 m 1,12,-1
 245 103 l 2,13,14
 474 103 474 103 518 368 c 0,15,16
 541 509 541 509 491.5 570 c 128,-1,17
 442 631 442 631 334 631 c 2,18,-1
 253 631 l 1,19,-1
 165 103 l 1,12,-1
EndSplineSet
EndChar

StartChar: E
Encoding: 69 69 40
Width: 583
GlyphClass: 2
Flags: W
LayerCount: 2
Fore
SplineSet
29 0 m 1,0,-1
 150 735 l 1,1,-1
 623 735 l 1,2,-1
 605 630 l 1,3,-1
 252 630 l 1,4,-1
 219 431 l 1,5,-1
 538 431 l 1,6,-1
 521 328 l 1,7,-1
 202 328 l 1,8,-1
 165 104 l 1,9,-1
 527 104 l 1,10,-1
 510 0 l 1,11,-1
 29 0 l 1,0,-1
EndSplineSet
EndChar

StartChar: F
Encoding: 70 70 41
Width: 546
GlyphClass: 2
Flags: W
LayerCount: 2
Fore
SplineSet
29 0 m 1,0,-1
 150 735 l 1,1,-1
 609 735 l 1,2,-1
 591 630 l 1,3,-1
 252 630 l 1,4,-1
 218 420 l 1,5,-1
 521 420 l 1,6,-1
 504 317 l 1,7,-1
 201 317 l 1,8,-1
 148 0 l 1,9,-1
 29 0 l 1,0,-1
EndSplineSet
EndChar

StartChar: G
Encoding: 71 71 42
Width: 688
GlyphClass: 2
Flags: W
LayerCount: 2
Fore
SplineSet
49 368 m 0,0,1
 77 536 77 536 183 644 c 128,-1,2
 289 752 289 752 438 752 c 0,3,4
 493 752 493 752 537 733.5 c 128,-1,5
 581 715 581 715 607 685.5 c 128,-1,6
 633 656 633 656 647.5 629.5 c 128,-1,7
 662 603 662 603 670 576 c 1,8,-1
 561 542 l 1,9,10
 546 571 546 571 533.5 590.5 c 128,-1,11
 521 610 521 610 491.5 628.5 c 128,-1,12
 462 647 462 647 422 647 c 0,13,14
 327 647 327 647 260.5 570.5 c 128,-1,15
 194 494 194 494 173 368 c 0,16,17
 152 239 152 239 194 163.5 c 128,-1,18
 236 88 236 88 324 88 c 0,19,20
 399 88 399 88 449.5 132.5 c 128,-1,21
 500 177 500 177 516 246 c 0,22,23
 526 288 526 288 529 307 c 1,24,-1
 353 307 l 1,25,-1
 370 411 l 1,26,-1
 663 411 l 1,27,-1
 595 0 l 1,28,-1
 512 0 l 1,29,-1
 513 75 l 1,30,31
 439 -17 439 -17 302 -17 c 0,32,33
 166 -17 166 -17 93 87.5 c 128,-1,34
 20 192 20 192 49 368 c 0,0,1
EndSplineSet
EndChar

StartChar: H
Encoding: 72 72 43
Width: 679
GlyphClass: 2
Flags: W
LayerCount: 2
Fore
SplineSet
29 0 m 1,0,-1
 150 735 l 1,1,-1
 269 735 l 1,2,-1
 218 429 l 1,3,-1
 510 429 l 1,4,-1
 561 735 l 1,5,-1
 679 735 l 1,6,-1
 558 0 l 1,7,-1
 439 0 l 1,8,-1
 493 326 l 1,9,-1
 201 326 l 1,10,-1
 147 0 l 1,11,-1
 29 0 l 1,0,-1
EndSplineSet
EndChar

StartChar: I
Encoding: 73 73 44
Width: 268
GlyphClass: 2
Flags: W
LayerCount: 2
Fore
SplineSet
29 0 m 1,0,-1
 150 735 l 1,1,-1
 270 735 l 1,2,-1
 148 0 l 1,3,-1
 29 0 l 1,0,-1
EndSplineSet
EndChar

StartChar: J
Encoding: 74 74 45
Width: 496
GlyphClass: 2
Flags: W
LayerCount: 2
Fore
SplineSet
-17 137 m 1,0,-1
 90 177 l 1,1,2
 94 139 94 139 116 113.5 c 128,-1,3
 138 88 138 88 175 88 c 0,4,5
 220 88 220 88 250.5 123.5 c 128,-1,6
 281 159 281 159 292 226 c 2,7,-1
 376 735 l 1,8,-1
 496 735 l 1,9,-1
 409 209 l 2,10,11
 391 101 391 101 326.5 42 c 128,-1,12
 262 -17 262 -17 160 -17 c 0,13,14
 77 -17 77 -17 34 27.5 c 128,-1,15
 -9 72 -9 72 -17 137 c 1,0,-1
EndSplineSet
EndChar

StartChar: K
Encoding: 75 75 46
Width: 631
GlyphClass: 2
Flags: W
LayerCount: 2
Fore
SplineSet
29 0 m 1,0,-1
 150 735 l 1,1,-1
 270 735 l 1,2,-1
 215 402 l 1,3,-1
 217 402 l 1,4,-1
 551 735 l 1,5,-1
 704 735 l 1,6,-1
 371 413 l 1,7,-1
 589 0 l 1,8,-1
 444 0 l 1,9,-1
 282 327 l 1,10,-1
 187 235 l 1,11,-1
 148 0 l 1,12,-1
 29 0 l 1,0,-1
EndSplineSet
EndChar

StartChar: L
Encoding: 76 76 47
Width: 529
GlyphClass: 2
Flags: W
LayerCount: 2
Fore
SplineSet
29 0 m 1,0,-1
 150 735 l 1,1,-1
 270 735 l 1,2,-1
 165 104 l 1,3,-1
 492 104 l 1,4,-1
 474 0 l 1,5,-1
 29 0 l 1,0,-1
EndSplineSet
EndChar

StartChar: M
Encoding: 77 77 48
Width: 825
GlyphClass: 2
Flags: W
LayerCount: 2
Fore
SplineSet
29 0 m 1,0,-1
 150 735 l 1,1,-1
 296 735 l 1,2,-1
 366 393 l 2,3,4
 373 355 373 355 383.5 289.5 c 128,-1,5
 394 224 394 224 397 204 c 1,6,-1
 400 204 l 1,7,8
 468 339 468 339 496 393 c 2,9,-1
 677 735 l 1,10,-1
 825 735 l 1,11,-1
 704 0 l 1,12,-1
 585 0 l 1,13,-1
 640 334 l 2,14,15
 654 417 654 417 691 560 c 1,16,-1
 688 560 l 1,17,-1
 610 404 l 1,18,-1
 418 42 l 1,19,-1
 329 42 l 1,20,-1
 258 404 l 1,21,-1
 230 561 l 1,22,-1
 226 561 l 1,23,24
 218 427 218 427 202 334 c 2,25,-1
 147 0 l 1,26,-1
 29 0 l 1,0,-1
EndSplineSet
EndChar

StartChar: N
Encoding: 78 78 49
Width: 684
GlyphClass: 2
Flags: W
LayerCount: 2
Fore
SplineSet
29 0 m 1,0,-1
 150 735 l 1,1,-1
 276 735 l 1,2,-1
 482 182 l 1,3,-1
 486 182 l 1,4,5
 489 280 489 280 507 394 c 2,6,-1
 564 735 l 1,7,-1
 684 735 l 1,8,-1
 563 0 l 1,9,-1
 437 0 l 1,10,-1
 285 397 l 1,11,-1
 230 550 l 1,12,-1
 225 550 l 1,13,14
 221 441 221 441 204 338 c 2,15,-1
 148 0 l 1,16,-1
 29 0 l 1,0,-1
EndSplineSet
EndChar

StartChar: O
Encoding: 79 79 50
Width: 689
GlyphClass: 2
Flags: W
LayerCount: 2
Fore
SplineSet
49 367 m 0,0,1
 78 540 78 540 180.5 646 c 128,-1,2
 283 752 283 752 423 752 c 256,3,4
 563 752 563 752 629.5 646.5 c 128,-1,5
 696 541 696 541 668 367 c 256,6,7
 639 193 639 193 537 88 c 128,-1,8
 435 -17 435 -17 295 -17 c 0,9,10
 155 -17 155 -17 87.5 88 c 128,-1,11
 20 193 20 193 49 367 c 0,0,1
173 367 m 0,12,13
 152 238 152 238 189 163 c 128,-1,14
 226 88 226 88 313 88 c 0,15,16
 398 88 398 88 460.5 162.5 c 128,-1,17
 523 237 523 237 544 367 c 0,18,19
 565 495 565 495 529 571 c 128,-1,20
 493 647 493 647 405 647 c 0,21,22
 319 647 319 647 256.5 571 c 128,-1,23
 194 495 194 495 173 367 c 0,12,13
EndSplineSet
Substitution2: "Single Substitution lookup 12 subtable" ordmasculine
EndChar

StartChar: P
Encoding: 80 80 51
Width: 625
GlyphClass: 2
Flags: W
LayerCount: 2
Fore
SplineSet
29 0 m 1,0,-1
 150 735 l 1,1,-1
 431 735 l 2,2,3
 544 735 544 735 597 673 c 128,-1,4
 650 611 650 611 633 510 c 0,5,6
 616 406 616 406 541 345.5 c 128,-1,7
 466 285 466 285 359 285 c 2,8,-1
 195 285 l 1,9,-1
 148 0 l 1,10,-1
 29 0 l 1,0,-1
212 389 m 1,11,-1
 359 389 l 2,12,13
 421 389 421 389 461 420 c 128,-1,14
 501 451 501 451 511 510 c 256,15,16
 521 569 521 569 492 599.5 c 128,-1,17
 463 630 463 630 398 630 c 2,18,-1
 252 630 l 1,19,-1
 212 389 l 1,11,-1
EndSplineSet
EndChar

StartChar: Q
Encoding: 81 81 52
Width: 689
GlyphClass: 2
Flags: W
LayerCount: 2
Fore
SplineSet
49 367 m 0,0,1
 78 542 78 542 181 647 c 128,-1,2
 284 752 284 752 423 752 c 256,3,4
 562 752 562 752 629 646 c 128,-1,5
 696 540 696 540 668 367 c 0,6,7
 640 200 640 200 543 95 c 1,8,-1
 609 11 l 1,9,-1
 530 -51 l 1,10,-1
 466 31 l 1,11,12
 389 -17 389 -17 295 -17 c 0,13,14
 155 -17 155 -17 88 89 c 128,-1,15
 21 195 21 195 49 367 c 0,0,1
309 231 m 1,16,-1
 388 295 l 1,17,-1
 475 182 l 1,18,19
 525 254 525 254 544 367 c 0,20,21
 566 498 566 498 529 572.5 c 128,-1,22
 492 647 492 647 405 647 c 256,23,24
 319 647 319 647 256.5 571.5 c 128,-1,25
 194 496 194 496 173 367 c 256,26,27
 152 238 152 238 189 163 c 128,-1,28
 226 88 226 88 313 88 c 0,29,30
 362 88 362 88 402 112 c 1,31,-1
 309 231 l 1,16,-1
EndSplineSet
EndChar

StartChar: R
Encoding: 82 82 53
Width: 647
GlyphClass: 2
Flags: W
LayerCount: 2
Fore
SplineSet
214 398 m 1,0,-1
 366 398 l 2,1,2
 427 398 427 398 464.5 428.5 c 128,-1,3
 502 459 502 459 512 517 c 0,4,5
 520 568 520 568 491.5 599 c 128,-1,6
 463 630 463 630 401 630 c 2,7,-1
 252 630 l 1,8,-1
 214 398 l 1,0,-1
29 0 m 1,9,-1
 150 735 l 1,10,-1
 441 735 l 2,11,12
 552 735 552 735 602 675.5 c 128,-1,13
 652 616 652 616 637 527 c 0,14,15
 625 452 625 452 584 404.5 c 128,-1,16
 543 357 543 357 498 340 c 1,17,18
 528 316 528 316 538.5 289 c 128,-1,19
 549 262 549 262 550 207 c 0,20,21
 554 98 554 98 594 0 c 1,22,-1
 460 0 l 1,23,24
 429 77 429 77 423 198 c 0,25,26
 420 245 420 245 404.5 269.5 c 128,-1,27
 389 294 389 294 348 294 c 2,28,-1
 197 294 l 1,29,-1
 148 0 l 1,30,-1
 29 0 l 1,9,-1
EndSplineSet
EndChar

StartChar: S
Encoding: 83 83 54
Width: 592
GlyphClass: 2
Flags: W
LayerCount: 2
Fore
SplineSet
2 157 m 1,0,-1
 114 193 l 1,1,2
 132 147 132 147 175 117.5 c 128,-1,3
 218 88 218 88 276 88 c 0,4,5
 336 88 336 88 378 118 c 128,-1,6
 420 148 420 148 427 195 c 0,7,8
 435 245 435 245 401.5 273 c 128,-1,9
 368 301 368 301 296 327 c 0,10,11
 196 363 196 363 163 385 c 0,12,13
 74 441 74 441 92 549 c 0,14,15
 107 640 107 640 186.5 696 c 128,-1,16
 266 752 266 752 379 752 c 0,17,18
 472 752 472 752 530.5 707.5 c 128,-1,19
 589 663 589 663 608 595 c 1,20,-1
 501 560 l 1,21,22
 458 647 458 647 360 647 c 0,23,24
 301 647 301 647 262 620 c 128,-1,25
 223 593 223 593 216 549 c 0,26,27
 214 536 214 536 215 524.5 c 128,-1,28
 216 513 216 513 222.5 502.5 c 128,-1,29
 229 492 229 492 234 485 c 128,-1,30
 239 478 239 478 252.5 469.5 c 128,-1,31
 266 461 266 461 273.5 456.5 c 128,-1,32
 281 452 281 452 300 444.5 c 128,-1,33
 319 437 319 437 327 434 c 128,-1,34
 335 431 335 431 357.5 423 c 128,-1,35
 380 415 380 415 387 413 c 0,36,37
 427 399 427 399 456 383 c 128,-1,38
 485 367 485 367 511.5 342.5 c 128,-1,39
 538 318 538 318 548.5 281.5 c 128,-1,40
 559 245 559 245 552 200 c 0,41,42
 535 97 535 97 453 40 c 128,-1,43
 371 -17 371 -17 256 -17 c 0,44,45
 157 -17 157 -17 90 30 c 128,-1,46
 23 77 23 77 2 157 c 1,0,-1
EndSplineSet
EndChar

StartChar: T
Encoding: 84 84 55
Width: 552
GlyphClass: 2
Flags: W
LayerCount: 2
Fore
SplineSet
66 630 m 1,0,-1
 84 735 l 1,1,-1
 620 735 l 1,2,-1
 602 630 l 1,3,-1
 395 630 l 1,4,-1
 290 0 l 1,5,-1
 170 0 l 1,6,-1
 274 630 l 1,7,-1
 66 630 l 1,0,-1
EndSplineSet
EndChar

StartChar: U
Encoding: 85 85 56
Width: 675
GlyphClass: 2
Flags: W
LayerCount: 2
Fore
SplineSet
70 275 m 2,0,-1
 147 735 l 1,1,-1
 268 735 l 1,2,-1
 192 275 l 2,3,4
 176 180 176 180 206.5 134 c 128,-1,5
 237 88 237 88 305 88 c 0,6,7
 376 88 376 88 422 136 c 128,-1,8
 468 184 468 184 483 275 c 2,9,-1
 559 735 l 1,10,-1
 680 735 l 1,11,-1
 604 275 l 2,12,13
 581 135 581 135 500.5 59 c 128,-1,14
 420 -17 420 -17 288 -17 c 0,15,16
 161 -17 161 -17 103.5 56.5 c 128,-1,17
 46 130 46 130 70 275 c 2,0,-1
EndSplineSet
EndChar

StartChar: V
Encoding: 86 86 57
Width: 599
GlyphClass: 2
Flags: W
LayerCount: 2
Fore
SplineSet
76 735 m 1,0,-1
 206 735 l 1,1,-1
 256 310 l 1,2,3
 271 145 271 145 273 128 c 1,4,-1
 276 127 l 1,5,6
 313 213 313 213 353 310 c 2,7,-1
 544 735 l 1,8,-1
 674 735 l 1,9,-1
 320 0 l 1,10,-1
 186 0 l 1,11,-1
 76 735 l 1,0,-1
EndSplineSet
EndChar

StartChar: W
Encoding: 87 87 58
Width: 854
GlyphClass: 2
Flags: W
LayerCount: 2
Fore
SplineSet
86 735 m 1,0,-1
 212 735 l 1,1,-1
 219 330 l 2,2,3
 218 226 218 226 217 133 c 1,4,-1
 222 133 l 1,5,6
 275 287 275 287 290 330 c 2,7,-1
 441 735 l 1,8,-1
 563 735 l 1,9,-1
 581 330 l 2,10,11
 583 299 583 299 584 224.5 c 128,-1,12
 585 150 585 150 585 133 c 1,13,-1
 589 133 l 1,14,15
 599 162 599 162 621.5 231.5 c 128,-1,16
 644 301 644 301 654 330 c 2,17,-1
 793 735 l 1,18,-1
 920 735 l 1,19,-1
 636 0 l 1,20,-1
 499 0 l 1,21,-1
 483 400 l 2,22,23
 479 573 479 573 480 586 c 1,24,-1
 476 586 l 1,25,26
 476 584 476 584 411 400 c 2,27,-1
 264 0 l 1,28,-1
 127 0 l 1,29,-1
 86 735 l 1,0,-1
EndSplineSet
EndChar

StartChar: X
Encoding: 88 88 59
Width: 603
GlyphClass: 2
Flags: W
LayerCount: 2
Fore
SplineSet
-45 0 m 1,0,-1
 248 377 l 1,1,-1
 88 735 l 1,2,-1
 230 735 l 1,3,-1
 291 575 l 2,4,5
 296 559 296 559 310 523.5 c 128,-1,6
 324 488 324 488 331 468 c 1,7,-1
 334 468 l 1,8,9
 338 474 338 474 412 575 c 2,10,-1
 526 735 l 1,11,-1
 667 735 l 1,12,-1
 389 377 l 1,13,-1
 558 0 l 1,14,-1
 418 0 l 1,15,-1
 348 172 l 2,16,17
 339 193 339 193 304 283 c 1,18,-1
 301 283 l 1,19,20
 232 187 232 187 220 172 c 2,21,-1
 95 0 l 1,22,-1
 -45 0 l 1,0,-1
EndSplineSet
EndChar

StartChar: Y
Encoding: 89 89 60
Width: 614
GlyphClass: 2
Flags: W
LayerCount: 2
Fore
SplineSet
73 735 m 1,0,-1
 210 735 l 1,1,-1
 286 518 l 2,2,3
 314 435 314 435 325 398 c 1,4,-1
 329 398 l 1,5,6
 355 437 355 437 408 518 c 2,7,-1
 555 735 l 1,8,-1
 693 735 l 1,9,-1
 371 298 l 1,10,-1
 322 0 l 1,11,-1
 202 0 l 1,12,-1
 251 298 l 1,13,-1
 73 735 l 1,0,-1
EndSplineSet
EndChar

StartChar: Z
Encoding: 90 90 61
Width: 585
GlyphClass: 2
Flags: W
LayerCount: 2
Fore
SplineSet
-3 89 m 1,0,-1
 460 630 l 1,1,-1
 116 630 l 1,2,-1
 133 735 l 1,3,-1
 625 735 l 1,4,-1
 610 644 l 1,5,-1
 146 104 l 1,6,-1
 530 104 l 1,7,-1
 513 0 l 1,8,-1
 -18 0 l 1,9,-1
 -3 89 l 1,0,-1
EndSplineSet
EndChar

StartChar: bracketleft
Encoding: 91 91 62
Width: 418
GlyphClass: 2
Flags: W
LayerCount: 2
Fore
SplineSet
46 -120 m 1,0,-1
 203 826 l 1,1,-1
 434 826 l 1,2,-1
 418 729 l 1,3,-1
 303 729 l 1,4,-1
 179 -22 l 1,5,-1
 293 -22 l 1,6,-1
 277 -120 l 1,7,-1
 46 -120 l 1,0,-1
EndSplineSet
EndChar

StartChar: backslash
Encoding: 92 92 63
Width: 356
GlyphClass: 2
Flags: W
LayerCount: 2
Fore
SplineSet
69 782 m 1,0,-1
 189 782 l 1,1,-1
 316 -53 l 1,2,-1
 196 -53 l 1,3,-1
 69 782 l 1,0,-1
EndSplineSet
EndChar

StartChar: bracketright
Encoding: 93 93 64
Width: 418
GlyphClass: 2
Flags: W
LayerCount: 2
Fore
SplineSet
25 -22 m 1,0,-1
 142 -22 l 1,1,-1
 266 729 l 1,2,-1
 149 729 l 1,3,-1
 165 826 l 1,4,-1
 398 826 l 1,5,-1
 241 -120 l 1,6,-1
 9 -120 l 1,7,-1
 25 -22 l 1,0,-1
EndSplineSet
EndChar

StartChar: asciicircum
Encoding: 94 94 65
Width: 517
GlyphClass: 2
Flags: W
LayerCount: 2
Fore
SplineSet
38 460 m 1,0,-1
 292 809 l 1,1,-1
 400 809 l 1,2,-1
 537 460 l 1,3,-1
 418 460 l 1,4,-1
 352 650 l 1,5,-1
 331 715 l 1,6,-1
 330 715 l 1,7,-1
 158 460 l 1,8,-1
 38 460 l 1,0,-1
EndSplineSet
EndChar

StartChar: underscore
Encoding: 95 95 66
Width: 476
GlyphClass: 2
Flags: W
LayerCount: 2
Fore
SplineSet
-43 -8 m 1,0,-1
 426 -8 l 1,1,-1
 410 -105 l 1,2,-1
 -59 -105 l 1,3,-1
 -43 -8 l 1,0,-1
EndSplineSet
EndChar

StartChar: grave
Encoding: 96 96 67
Width: 329
GlyphClass: 2
Flags: W
LayerCount: 2
Fore
SplineSet
200 517 m 1,0,-1
 123 817 l 1,1,-1
 255 817 l 1,2,-1
 294 517 l 1,3,-1
 200 517 l 1,0,-1
EndSplineSet
EndChar

StartChar: a
Encoding: 97 97 68
Width: 513
GlyphClass: 2
Flags: W
LayerCount: 2
Fore
SplineSet
119 151 m 0,0,1
 114 121 114 121 133.5 101 c 128,-1,2
 153 81 153 81 190 81 c 0,3,4
 243 81 243 81 287 118 c 128,-1,5
 331 155 331 155 341 216 c 2,6,-1
 349 265 l 1,7,8
 306 255 306 255 247 245 c 0,9,10
 132 227 132 227 119 151 c 0,0,1
6 140 m 0,11,12
 31 292 31 292 249 325 c 0,13,14
 329 337 329 337 362 348 c 1,15,-1
 367 376 l 2,16,17
 373 415 373 415 350.5 437.5 c 128,-1,18
 328 460 328 460 283 460 c 0,19,20
 200 460 200 460 127 387 c 1,21,-1
 70 449 l 1,22,23
 118 498 118 498 177 525.5 c 128,-1,24
 236 553 236 553 298 553 c 0,25,26
 410 553 410 553 449 495 c 128,-1,27
 488 437 488 437 471 333 c 2,28,-1
 416 0 l 1,29,-1
 308 0 l 1,30,-1
 319 67 l 1,31,32
 298 33 298 33 254.5 8 c 128,-1,33
 211 -17 211 -17 158 -17 c 0,34,35
 75 -17 75 -17 35 27 c 128,-1,36
 -5 71 -5 71 6 140 c 0,11,12
EndSplineSet
Substitution2: "Single Substitution lookup 12 subtable" ordfeminine
EndChar

StartChar: b
Encoding: 98 98 69
Width: 548
GlyphClass: 2
Flags: W
LayerCount: 2
Fore
SplineSet
17 0 m 1,0,-1
 142 759 l 1,1,-1
 251 759 l 1,2,-1
 205 476 l 1,3,4
 230 507 230 507 267.5 530 c 128,-1,5
 305 553 305 553 348 553 c 0,6,7
 442 553 442 553 490 477 c 128,-1,8
 538 401 538 401 516 269 c 0,9,10
 506 208 506 208 484.5 159 c 128,-1,11
 463 110 463 110 437 78 c 128,-1,12
 411 46 411 46 378.5 24 c 128,-1,13
 346 2 346 2 315.5 -7.5 c 128,-1,14
 285 -17 285 -17 255 -17 c 0,15,16
 211 -17 211 -17 178.5 8.5 c 128,-1,17
 146 34 146 34 135 69 c 1,18,-1
 124 0 l 1,19,-1
 17 0 l 1,0,-1
169 269 m 0,20,21
 155 183 155 183 179 133.5 c 128,-1,22
 203 84 203 84 256 84 c 0,23,24
 306 84 306 84 346.5 131 c 128,-1,25
 387 178 387 178 402 269 c 0,26,27
 416 353 416 353 393 403 c 128,-1,28
 370 453 370 453 317 453 c 256,29,30
 264 453 264 453 223.5 402 c 128,-1,31
 183 351 183 351 169 269 c 0,20,21
EndSplineSet
EndChar

StartChar: c
Encoding: 99 99 70
Width: 486
GlyphClass: 2
Flags: W
LayerCount: 2
Fore
SplineSet
27 268 m 0,0,1
 48 397 48 397 127 475 c 128,-1,2
 206 553 206 553 310 553 c 0,3,4
 385 553 385 553 429 504.5 c 128,-1,5
 473 456 473 456 476 394 c 1,6,-1
 377 366 l 1,7,8
 372 401 372 401 350.5 427 c 128,-1,9
 329 453 329 453 293 453 c 0,10,11
 236 453 236 453 195 400 c 128,-1,12
 154 347 154 347 141 268 c 0,13,14
 126 180 126 180 153 132 c 128,-1,15
 180 84 180 84 232 84 c 0,16,17
 271 84 271 84 305.5 112 c 128,-1,18
 340 140 340 140 358 177 c 1,19,-1
 448 148 l 1,20,21
 420 83 420 83 355.5 33 c 128,-1,22
 291 -17 291 -17 216 -17 c 0,23,24
 112 -17 112 -17 58.5 60.5 c 128,-1,25
 5 138 5 138 27 268 c 0,0,1
EndSplineSet
EndChar

StartChar: d
Encoding: 100 100 71
Width: 548
GlyphClass: 2
Flags: W
LayerCount: 2
Fore
SplineSet
28 269 m 0,0,1
 50 400 50 400 124 476.5 c 128,-1,2
 198 553 198 553 291 553 c 0,3,4
 335 553 335 553 365 530 c 128,-1,5
 395 507 395 507 408 477 c 1,6,-1
 454 759 l 1,7,-1
 564 759 l 1,8,-1
 439 0 l 1,9,-1
 331 0 l 1,10,-1
 343 70 l 1,11,12
 322 34 322 34 281.5 8.5 c 128,-1,13
 241 -17 241 -17 196 -17 c 0,14,15
 156 -17 156 -17 122 -1 c 128,-1,16
 88 15 88 15 61 47.5 c 128,-1,17
 34 80 34 80 25 137 c 128,-1,18
 16 194 16 194 28 269 c 0,0,1
141 269 m 0,19,20
 126 181 126 181 150.5 132.5 c 128,-1,21
 175 84 175 84 228 84 c 0,22,23
 279 84 279 84 320 133.5 c 128,-1,24
 361 183 361 183 375 269 c 0,25,26
 389 351 389 351 366 402 c 128,-1,27
 343 453 343 453 290 453 c 0,28,29
 234 453 234 453 194.5 402.5 c 128,-1,30
 155 352 155 352 141 269 c 0,19,20
EndSplineSet
EndChar

StartChar: e
Encoding: 101 101 72
Width: 525
GlyphClass: 2
Flags: W
LayerCount: 2
Fore
SplineSet
28 270 m 0,0,1
 50 400 50 400 130 476.5 c 128,-1,2
 210 553 210 553 310 553 c 0,3,4
 411 553 411 553 463.5 476 c 128,-1,5
 516 399 516 399 495 275 c 0,6,7
 491 251 491 251 485 228 c 1,8,-1
 133 228 l 1,9,10
 123 166 123 166 150.5 122 c 128,-1,11
 178 78 178 78 239 78 c 0,12,13
 282 78 282 78 317 100 c 128,-1,14
 352 122 352 122 375 156 c 1,15,-1
 462 123 l 1,16,17
 427 63 427 63 365 23 c 128,-1,18
 303 -17 303 -17 221 -17 c 0,19,20
 115 -17 115 -17 60.5 61 c 128,-1,21
 6 139 6 139 28 270 c 0,0,1
148 310 m 1,22,-1
 388 310 l 1,23,24
 398 372 398 372 374.5 415 c 128,-1,25
 351 458 351 458 295 458 c 0,26,27
 240 458 240 458 199.5 414 c 128,-1,28
 159 370 159 370 148 310 c 1,22,-1
EndSplineSet
EndChar

StartChar: f
Encoding: 102 102 73
Width: 327
GlyphClass: 2
Flags: W
LayerCount: 2
Fore
SplineSet
45 436 m 1,0,-1
 62 536 l 1,1,-1
 140 536 l 1,2,-1
 149 594 l 2,3,4
 163 676 163 676 209 717.5 c 128,-1,5
 255 759 255 759 326 759 c 2,6,-1
 406 759 l 1,7,-1
 390 660 l 1,8,-1
 325 660 l 2,9,10
 297 660 297 660 281.5 642 c 128,-1,11
 266 624 266 624 260 585 c 2,12,-1
 252 536 l 1,13,-1
 358 536 l 1,14,-1
 341 436 l 1,15,-1
 235 436 l 1,16,-1
 163 0 l 1,17,-1
 51 0 l 1,18,-1
 123 436 l 1,19,-1
 45 436 l 1,0,-1
EndSplineSet
EndChar

StartChar: g
Encoding: 103 103 74
Width: 534
GlyphClass: 2
Flags: W
LayerCount: 2
Fore
SplineSet
145 278 m 0,0,1
 131 196 131 196 154 150.5 c 128,-1,2
 177 105 177 105 227 105 c 0,3,4
 277 105 277 105 314 149.5 c 128,-1,5
 351 194 351 194 365 279 c 0,6,7
 379 361 379 361 356.5 407 c 128,-1,8
 334 453 334 453 286 453 c 0,9,10
 235 453 235 453 196.5 405.5 c 128,-1,11
 158 358 158 358 145 278 c 0,0,1
32 277 m 0,12,13
 53 402 53 402 124.5 477.5 c 128,-1,14
 196 553 196 553 287 553 c 0,15,16
 334 553 334 553 362 528.5 c 128,-1,17
 390 504 390 504 398 474 c 1,18,-1
 409 536 l 1,19,-1
 519 536 l 1,20,-1
 442 74 l 2,21,22
 417 -77 417 -77 349 -150 c 128,-1,23
 281 -223 281 -223 166 -223 c 0,24,25
 38 -223 38 -223 -14 -119 c 1,26,-1
 68 -65 l 1,27,28
 109 -128 109 -128 184 -128 c 0,29,30
 232 -128 232 -128 270.5 -89 c 128,-1,31
 309 -50 309 -50 321 13 c 0,32,33
 329 50 329 50 333 74 c 1,34,35
 312 45 312 45 275 25 c 128,-1,36
 238 5 238 5 201 5 c 0,37,38
 105 5 105 5 58.5 79.5 c 128,-1,39
 12 154 12 154 32 277 c 0,12,13
EndSplineSet
EndChar

StartChar: h
Encoding: 104 104 75
Width: 528
GlyphClass: 2
Flags: W
LayerCount: 2
Fore
SplineSet
17 0 m 1,0,-1
 142 759 l 1,1,-1
 251 759 l 1,2,-1
 205 481 l 1,3,-1
 208 481 l 1,4,5
 233 512 233 512 272 532.5 c 128,-1,6
 311 553 311 553 351 553 c 0,7,8
 424 553 424 553 464 503 c 128,-1,9
 504 453 504 453 486 345 c 2,10,-1
 429 0 l 1,11,-1
 319 0 l 1,12,-1
 373 330 l 2,13,14
 393 453 393 453 315 453 c 0,15,16
 267 453 267 453 226.5 409 c 128,-1,17
 186 365 186 365 177 307 c 2,18,-1
 126 0 l 1,19,-1
 17 0 l 1,0,-1
EndSplineSet
Substitution2: "'sups' Superscript lookup 5 subtable" uni02B0
Substitution2: "'aalt' Access All Alternates lookup 0 subtable" uni02B0
EndChar

StartChar: i
Encoding: 105 105 76
Width: 247
GlyphClass: 2
Flags: W
LayerCount: 2
Fore
SplineSet
120 616 m 1,0,-1
 141 745 l 1,1,-1
 259 745 l 1,2,-1
 238 616 l 1,3,-1
 120 616 l 1,0,-1
22 0 m 1,4,-1
 111 536 l 1,5,-1
 220 536 l 1,6,-1
 131 0 l 1,7,-1
 22 0 l 1,4,-1
EndSplineSet
EndChar

StartChar: j
Encoding: 106 106 77
Width: 255
GlyphClass: 2
Flags: W
LayerCount: 2
Fore
SplineSet
127 616 m 1,0,-1
 148 745 l 1,1,-1
 268 745 l 1,2,-1
 247 616 l 1,3,-1
 127 616 l 1,0,-1
-75 -111 m 1,4,-1
 -58 -111 l 2,5,6
 12 -111 12 -111 29 -7 c 2,7,-1
 119 536 l 1,8,-1
 230 536 l 1,9,-1
 139 -11 l 2,10,11
 122 -111 122 -111 72.5 -161 c 128,-1,12
 23 -211 23 -211 -56 -211 c 2,13,-1
 -92 -211 l 1,14,-1
 -75 -111 l 1,4,-1
EndSplineSet
Substitution2: "'sups' Superscript lookup 5 subtable" uni02B2
Substitution2: "'aalt' Access All Alternates lookup 0 subtable" uni02B2
EndChar

StartChar: k
Encoding: 107 107 78
Width: 497
GlyphClass: 2
Flags: W
LayerCount: 2
Fore
SplineSet
18 0 m 1,0,-1
 143 759 l 1,1,-1
 253 759 l 1,2,-1
 181 322 l 1,3,-1
 397 536 l 1,4,-1
 537 536 l 1,5,-1
 313 318 l 1,6,-1
 460 0 l 1,7,-1
 329 0 l 1,8,-1
 227 235 l 1,9,-1
 155 164 l 1,10,-1
 128 0 l 1,11,-1
 18 0 l 1,0,-1
EndSplineSet
EndChar

StartChar: l
Encoding: 108 108 79
Width: 244
GlyphClass: 2
Flags: W
LayerCount: 2
Fore
SplineSet
20 0 m 1,0,-1
 146 759 l 1,1,-1
 256 759 l 1,2,-1
 130 0 l 1,3,-1
 20 0 l 1,0,-1
EndSplineSet
Substitution2: "'sups' Superscript lookup 5 subtable" uni02E1
Substitution2: "'aalt' Access All Alternates lookup 0 subtable" uni02E1
EndChar

StartChar: m
Encoding: 109 109 80
Width: 779
GlyphClass: 2
Flags: W
LayerCount: 2
Fore
SplineSet
11 0 m 1,0,-1
 100 536 l 1,1,-1
 207 536 l 1,2,-1
 197 474 l 1,3,4
 215 501 215 501 253.5 527 c 128,-1,5
 292 553 292 553 341 553 c 0,6,7
 424 553 424 553 448 457 c 1,8,9
 457 470 457 470 469 483 c 128,-1,10
 481 496 481 496 502 514 c 128,-1,11
 523 532 523 532 553 542.5 c 128,-1,12
 583 553 583 553 617 553 c 0,13,14
 772 553 772 553 737 345 c 2,15,-1
 680 0 l 1,16,-1
 568 0 l 1,17,-1
 625 341 l 2,18,19
 634 397 634 397 624 425 c 128,-1,20
 614 453 614 453 576 453 c 0,21,22
 530 453 530 453 496 413.5 c 128,-1,23
 462 374 462 374 453 316 c 2,24,-1
 400 0 l 1,25,-1
 291 0 l 1,26,-1
 348 344 l 2,27,28
 366 453 366 453 297 453 c 0,29,30
 249 453 249 453 217 415.5 c 128,-1,31
 185 378 185 378 175 318 c 2,32,-1
 122 0 l 1,33,-1
 11 0 l 1,0,-1
EndSplineSet
EndChar

StartChar: n
Encoding: 110 110 81
Width: 523
GlyphClass: 2
Flags: W
LayerCount: 2
Fore
SplineSet
11 0 m 1,0,-1
 100 536 l 1,1,-1
 207 536 l 1,2,-1
 196 468 l 1,3,-1
 197 468 l 1,4,5
 215 498 215 498 255.5 525.5 c 128,-1,6
 296 553 296 553 352 553 c 0,7,8
 428 553 428 553 464.5 503.5 c 128,-1,9
 501 454 501 454 483 345 c 2,10,-1
 426 0 l 1,11,-1
 315 0 l 1,12,-1
 369 329 l 2,13,14
 390 453 390 453 310 453 c 0,15,16
 262 453 262 453 223 412 c 128,-1,17
 184 371 184 371 173 310 c 2,18,-1
 122 0 l 1,19,-1
 11 0 l 1,0,-1
EndSplineSet
Substitution2: "'sups' Superscript lookup 5 subtable" uni207F
Substitution2: "'aalt' Access All Alternates lookup 0 subtable" uni207F
EndChar

StartChar: o
Encoding: 111 111 82
Width: 527
GlyphClass: 2
Flags: W
LayerCount: 2
Fore
SplineSet
141 268 m 0,0,1
 126 175 126 175 154.5 129.5 c 128,-1,2
 183 84 183 84 232 84 c 0,3,4
 280 84 280 84 323.5 129.5 c 128,-1,5
 367 175 367 175 382 268 c 0,6,7
 398 362 398 362 369.5 407.5 c 128,-1,8
 341 453 341 453 293 453 c 0,9,10
 245 453 245 453 201 407.5 c 128,-1,11
 157 362 157 362 141 268 c 0,0,1
27 268 m 0,12,13
 47 387 47 387 121 470 c 128,-1,14
 195 553 195 553 310 553 c 0,15,16
 423 553 423 553 469.5 470 c 128,-1,17
 516 387 516 387 496 268 c 0,18,19
 490 230 490 230 477 193 c 128,-1,20
 464 156 464 156 441 117.5 c 128,-1,21
 418 79 418 79 388 49.5 c 128,-1,22
 358 20 358 20 313 1.5 c 128,-1,23
 268 -17 268 -17 216 -17 c 256,24,25
 164 -17 164 -17 125 1.5 c 128,-1,26
 86 20 86 20 65 48 c 128,-1,27
 44 76 44 76 33 114.5 c 128,-1,28
 22 153 22 153 21.5 191 c 128,-1,29
 21 229 21 229 27 268 c 0,12,13
EndSplineSet
Substitution2: "Single Substitution lookup 12 subtable" ordmasculine
EndChar

StartChar: p
Encoding: 112 112 83
Width: 548
GlyphClass: 2
Flags: W
LayerCount: 2
Fore
SplineSet
170 269 m 0,0,1
 156 184 156 184 178 134 c 128,-1,2
 200 84 200 84 256 84 c 0,3,4
 307 84 307 84 347.5 132.5 c 128,-1,5
 388 181 388 181 403 269 c 0,6,7
 417 353 417 353 394 403 c 128,-1,8
 371 453 371 453 317 453 c 256,9,10
 263 453 263 453 223 401.5 c 128,-1,11
 183 350 183 350 170 269 c 0,0,1
-20 -219 m 1,12,-1
 105 536 l 1,13,-1
 212 536 l 1,14,-1
 200 466 l 1,15,16
 261 553 261 553 348 553 c 0,17,18
 441 553 441 553 489 476.5 c 128,-1,19
 537 400 537 400 516 269 c 0,20,21
 504 195 504 195 475 138 c 128,-1,22
 446 81 446 81 408.5 48.5 c 128,-1,23
 371 16 371 16 331.5 -0.5 c 128,-1,24
 292 -17 292 -17 254 -17 c 0,25,26
 205 -17 205 -17 176 7 c 128,-1,27
 147 31 147 31 137 62 c 1,28,-1
 90 -219 l 1,29,-1
 -20 -219 l 1,12,-1
EndSplineSet
EndChar

StartChar: q
Encoding: 113 113 84
Width: 548
GlyphClass: 2
Flags: W
LayerCount: 2
Fore
SplineSet
141 269 m 0,0,1
 126 181 126 181 150 132.5 c 128,-1,2
 174 84 174 84 228 84 c 256,3,4
 281 84 281 84 321 133.5 c 128,-1,5
 361 183 361 183 375 269 c 0,6,7
 388 350 388 350 366 401.5 c 128,-1,8
 344 453 344 453 290 453 c 0,9,10
 234 453 234 453 194 401.5 c 128,-1,11
 154 350 154 350 141 269 c 0,0,1
28 269 m 0,12,13
 50 400 50 400 123.5 476.5 c 128,-1,14
 197 553 197 553 290 553 c 0,15,16
 334 553 334 553 364.5 528.5 c 128,-1,17
 395 504 395 504 409 466 c 1,18,-1
 420 536 l 1,19,-1
 527 536 l 1,20,-1
 402 -219 l 1,21,-1
 292 -219 l 1,22,-1
 339 63 l 1,23,24
 316 30 316 30 279 6.5 c 128,-1,25
 242 -17 242 -17 196 -17 c 0,26,27
 157 -17 157 -17 123 -0.5 c 128,-1,28
 89 16 89 16 62 48.5 c 128,-1,29
 35 81 35 81 25.5 138 c 128,-1,30
 16 195 16 195 28 269 c 0,12,13
EndSplineSet
EndChar

StartChar: r
Encoding: 114 114 85
Width: 351
GlyphClass: 2
Flags: W
LayerCount: 2
Fore
SplineSet
11 0 m 1,0,-1
 100 536 l 1,1,-1
 206 536 l 1,2,-1
 197 479 l 1,3,4
 219 508 219 508 254 530.5 c 128,-1,5
 289 553 289 553 332 553 c 0,6,7
 372 553 372 553 396 541 c 1,8,-1
 378 434 l 1,9,10
 347 445 347 445 315 445 c 0,11,12
 257 445 257 445 218.5 398 c 128,-1,13
 180 351 180 351 167 273 c 2,14,-1
 122 0 l 1,15,-1
 11 0 l 1,0,-1
EndSplineSet
Substitution2: "'sups' Superscript lookup 5 subtable" uni02B3
Substitution2: "'aalt' Access All Alternates lookup 0 subtable" uni02B3
EndChar

StartChar: s
Encoding: 115 115 86
Width: 466
GlyphClass: 2
Flags: W
LayerCount: 2
Fore
SplineSet
-7 112 m 1,0,-1
 82 161 l 1,1,2
 121 79 121 79 205 79 c 0,3,4
 246 79 246 79 273 96 c 128,-1,5
 300 113 300 113 305 142 c 0,6,7
 309 165 309 165 292.5 183 c 128,-1,8
 276 201 276 201 255 209.5 c 128,-1,9
 234 218 234 218 193 233 c 0,10,11
 185 236 185 236 183 237 c 0,12,13
 153 248 153 248 133 258.5 c 128,-1,14
 113 269 113 269 92 287.5 c 128,-1,15
 71 306 71 306 63.5 333.5 c 128,-1,16
 56 361 56 361 61 397 c 0,17,18
 73 467 73 467 136.5 510 c 128,-1,19
 200 553 200 553 284 553 c 0,20,21
 346 553 346 553 395.5 518 c 128,-1,22
 445 483 445 483 463 429 c 1,23,-1
 381 382 l 1,24,25
 342 457 342 457 269 457 c 0,26,27
 228 457 228 457 203.5 440 c 128,-1,28
 179 423 179 423 174 395 c 0,29,30
 170 372 170 372 186 353.5 c 128,-1,31
 202 335 202 335 221 327 c 128,-1,32
 240 319 240 319 275 306 c 0,33,34
 284 303 284 303 288 301 c 0,35,36
 435 248 435 248 418 141 c 0,37,38
 407 75 407 75 347.5 29 c 128,-1,39
 288 -17 288 -17 191 -17 c 0,40,41
 117 -17 117 -17 65.5 17.5 c 128,-1,42
 14 52 14 52 -7 112 c 1,0,-1
EndSplineSet
Substitution2: "'hist' Historical Forms lookup 11 subtable" longs
Substitution2: "'sups' Superscript lookup 5 subtable" uni02E2
AlternateSubs2: "'aalt' Access All Alternates lookup 1 subtable" uni02E2 longs
EndChar

StartChar: t
Encoding: 116 116 87
Width: 346
GlyphClass: 2
Flags: W
LayerCount: 2
Fore
SplineSet
41 436 m 1,0,-1
 57 536 l 1,1,-1
 135 536 l 1,2,-1
 161 695 l 1,3,-1
 272 695 l 1,4,-1
 246 536 l 1,5,-1
 362 536 l 1,6,-1
 345 436 l 1,7,-1
 229 436 l 1,8,-1
 186 172 l 2,9,10
 180 134 180 134 191 117 c 128,-1,11
 202 100 202 100 233 100 c 2,12,-1
 291 100 l 1,13,-1
 274 0 l 1,14,-1
 202 0 l 2,15,16
 46 0 46 0 74 164 c 2,17,-1
 119 436 l 1,18,-1
 41 436 l 1,0,-1
EndSplineSet
EndChar

StartChar: u
Encoding: 117 117 88
Width: 522
GlyphClass: 2
Flags: W
LayerCount: 2
Fore
SplineSet
38 194 m 2,0,-1
 95 536 l 1,1,-1
 205 536 l 1,2,-1
 151 209 l 2,3,4
 130 84 130 84 214 84 c 0,5,6
 264 84 264 84 300 129 c 128,-1,7
 336 174 336 174 346 236 c 2,8,-1
 395 536 l 1,9,-1
 505 536 l 1,10,-1
 417 0 l 1,11,-1
 310 0 l 1,12,-1
 321 62 l 1,13,-1
 320 62 l 1,14,15
 303 33 303 33 264 8 c 128,-1,16
 225 -17 225 -17 173 -17 c 0,17,18
 142 -17 142 -17 116 -7 c 128,-1,19
 90 3 90 3 67 24.5 c 128,-1,20
 44 46 44 46 36 90 c 128,-1,21
 28 134 28 134 38 194 c 2,0,-1
EndSplineSet
EndChar

StartChar: v
Encoding: 118 118 89
Width: 493
GlyphClass: 2
Flags: W
LayerCount: 2
Fore
SplineSet
49 536 m 1,0,-1
 172 536 l 1,1,-1
 202 261 l 2,2,3
 205 233 205 233 209.5 176.5 c 128,-1,4
 214 120 214 120 215 99 c 1,5,-1
 217 99 l 1,6,7
 226 121 226 121 250.5 177.5 c 128,-1,8
 275 234 275 234 287 261 c 2,9,-1
 408 536 l 1,10,-1
 530 536 l 1,11,-1
 264 0 l 1,12,-1
 137 0 l 1,13,-1
 49 536 l 1,0,-1
EndSplineSet
EndChar

StartChar: w
Encoding: 119 119 90
Width: 702
GlyphClass: 2
Flags: W
LayerCount: 2
Fore
SplineSet
49 536 m 1,0,-1
 170 536 l 1,1,-1
 177 267 l 2,2,3
 177 235 177 235 179 114 c 1,4,-1
 182 114 l 1,5,6
 191 140 191 140 210 194 c 128,-1,7
 229 248 229 248 236 267 c 2,8,-1
 334 536 l 1,9,-1
 452 536 l 1,10,-1
 462 265 l 2,11,12
 461 243 461 243 463 192 c 128,-1,13
 465 141 465 141 465 114 c 1,14,-1
 468 114 l 1,15,16
 477 140 477 140 497 198 c 128,-1,17
 517 256 517 256 520 267 c 2,18,-1
 617 536 l 1,19,-1
 737 536 l 1,20,-1
 510 0 l 1,21,-1
 386 0 l 1,22,-1
 376 261 l 2,23,24
 374 321 374 321 375 409 c 1,25,-1
 371 409 l 1,26,27
 361 380 361 380 343 327 c 128,-1,28
 325 274 325 274 320 261 c 2,29,-1
 222 0 l 1,30,-1
 98 0 l 1,31,-1
 49 536 l 1,0,-1
EndSplineSet
Substitution2: "'sups' Superscript lookup 5 subtable" uni02B7
Substitution2: "'aalt' Access All Alternates lookup 0 subtable" uni02B7
EndChar

StartChar: x
Encoding: 120 120 91
Width: 504
GlyphClass: 2
Flags: W
LayerCount: 2
Fore
SplineSet
-42 0 m 1,0,-1
 184 275 l 1,1,-1
 56 536 l 1,2,-1
 191 536 l 1,3,-1
 237 420 l 2,4,5
 254 374 254 374 261 355 c 1,6,-1
 265 355 l 1,7,8
 284 382 284 382 310 420 c 2,9,-1
 395 536 l 1,10,-1
 531 536 l 1,11,-1
 316 275 l 1,12,-1
 452 0 l 1,13,-1
 319 0 l 1,14,-1
 266 129 l 2,15,16
 260 141 260 141 251.5 162.5 c 128,-1,17
 243 184 243 184 239 196 c 1,18,-1
 235 196 l 1,19,20
 230 190 230 190 186 129 c 2,21,-1
 90 0 l 1,22,-1
 -42 0 l 1,0,-1
EndSplineSet
Substitution2: "'sups' Superscript lookup 5 subtable" uni02E3
Substitution2: "'aalt' Access All Alternates lookup 0 subtable" uni02E3
EndChar

StartChar: y
Encoding: 121 121 92
Width: 493
GlyphClass: 2
Flags: W
LayerCount: 2
Fore
SplineSet
48 536 m 1,0,-1
 171 536 l 1,1,-1
 212 260 l 2,2,3
 221 184 221 184 225 137 c 1,4,-1
 229 137 l 1,5,6
 235 153 235 153 282 260 c 2,7,-1
 408 536 l 1,8,-1
 530 536 l 1,9,-1
 218 -71 l 2,10,11
 176 -152 176 -152 126 -185.5 c 128,-1,12
 76 -219 76 -219 10 -219 c 2,13,-1
 -25 -219 l 1,14,-1
 -8 -121 l 1,15,-1
 8 -121 l 2,16,17
 48 -121 48 -121 76 -103 c 128,-1,18
 104 -85 104 -85 127 -40 c 2,19,-1
 152 13 l 1,20,-1
 48 536 l 1,0,-1
EndSplineSet
Substitution2: "'sups' Superscript lookup 5 subtable" uni02B8
Substitution2: "'aalt' Access All Alternates lookup 0 subtable" uni02B8
EndChar

StartChar: z
Encoding: 122 122 93
Width: 462
GlyphClass: 2
Flags: W
LayerCount: 2
Fore
SplineSet
-25 0 m 1,0,-1
 -12 78 l 1,1,-1
 310 436 l 1,2,-1
 68 436 l 1,3,-1
 84 536 l 1,4,-1
 472 536 l 1,5,-1
 460 463 l 1,6,-1
 136 100 l 1,7,-1
 411 100 l 1,8,-1
 395 0 l 1,9,-1
 -25 0 l 1,0,-1
EndSplineSet
EndChar

StartChar: braceleft
Encoding: 123 123 94
Width: 423
GlyphClass: 2
Flags: W
LayerCount: 2
Fore
SplineSet
57 307 m 1,0,-1
 72 398 l 1,1,-1
 102 398 l 2,2,3
 126 398 126 398 144 426.5 c 128,-1,4
 162 455 162 455 171 505 c 2,5,-1
 201 685 l 2,6,7
 212 753 212 753 255 789.5 c 128,-1,8
 298 826 298 826 361 826 c 2,9,-1
 442 826 l 1,10,-1
 426 729 l 1,11,-1
 366 729 l 2,12,13
 346 729 346 729 332 714 c 128,-1,14
 318 699 318 699 314 672 c 2,15,-1
 284 490 l 2,16,17
 269 400 269 400 192 352 c 1,18,19
 253 308 253 308 239 219 c 2,20,-1
 209 37 l 2,21,22
 199 -22 199 -22 243 -22 c 2,23,-1
 302 -22 l 1,24,-1
 286 -120 l 1,25,-1
 204 -120 l 2,26,27
 144 -120 144 -120 111.5 -84.5 c 128,-1,28
 79 -49 79 -49 90 20 c 2,29,-1
 121 204 l 2,30,31
 128 247 128 247 119.5 277 c 128,-1,32
 111 307 111 307 87 307 c 2,33,-1
 57 307 l 1,0,-1
EndSplineSet
EndChar

StartChar: bar
Encoding: 124 124 95
Width: 275
GlyphClass: 2
Flags: W
LayerCount: 2
Fore
SplineSet
7 -156 m 1,0,-1
 175 860 l 1,1,-1
 291 860 l 1,2,-1
 123 -156 l 1,3,-1
 7 -156 l 1,0,-1
EndSplineSet
EndChar

StartChar: braceright
Encoding: 125 125 96
Width: 423
GlyphClass: 2
Flags: W
LayerCount: 2
Fore
SplineSet
21 -22 m 1,0,-1
 81 -22 l 2,1,2
 124 -22 124 -22 134 37 c 2,3,-1
 164 219 l 2,4,5
 178 306 178 306 256 353 c 1,6,7
 194 400 194 400 209 490 c 2,8,-1
 239 672 l 2,9,10
 243 699 243 699 234.5 714 c 128,-1,11
 226 729 226 729 206 729 c 2,12,-1
 146 729 l 1,13,-1
 162 826 l 1,14,-1
 244 826 l 2,15,16
 306 826 306 826 337 789.5 c 128,-1,17
 368 753 368 753 357 685 c 2,18,-1
 327 505 l 2,19,20
 309 398 309 398 360 398 c 2,21,-1
 392 398 l 1,22,-1
 377 307 l 1,23,-1
 345 307 l 2,24,25
 320 307 320 307 302 277 c 128,-1,26
 284 247 284 247 277 204 c 2,27,-1
 247 20 l 2,28,29
 236 -49 236 -49 191 -84.5 c 128,-1,30
 146 -120 146 -120 87 -120 c 2,31,-1
 5 -120 l 1,32,-1
 21 -22 l 1,0,-1
EndSplineSet
EndChar

StartChar: asciitilde
Encoding: 126 126 97
Width: 764
GlyphClass: 2
Flags: W
LayerCount: 2
Fore
SplineSet
60 300 m 1,0,1
 154 472 154 472 297 472 c 0,2,3
 337 472 337 472 369.5 452 c 128,-1,4
 402 432 402 432 420 408.5 c 128,-1,5
 438 385 438 385 461 365 c 128,-1,6
 484 345 484 345 507 345 c 0,7,8
 527 345 527 345 545 353 c 128,-1,9
 563 361 563 361 575 370 c 128,-1,10
 587 379 587 379 600 396.5 c 128,-1,11
 613 414 613 414 619 424 c 128,-1,12
 625 434 625 434 635 453 c 1,13,-1
 729 408 l 1,14,15
 637 235 637 235 493 235 c 0,16,17
 461 235 461 235 434 248.5 c 128,-1,18
 407 262 407 262 388.5 280.5 c 128,-1,19
 370 299 370 299 353.5 318 c 128,-1,20
 337 337 337 337 318 350.5 c 128,-1,21
 299 364 299 364 279 364 c 0,22,23
 212 364 212 364 153 256 c 1,24,-1
 60 300 l 1,0,1
EndSplineSet
EndChar

StartChar: exclamdown
Encoding: 161 161 99
Width: 293
GlyphClass: 2
Flags: W
LayerCount: 2
Fore
SplineSet
1 -203 m 1,0,-1
 98 327 l 1,1,-1
 210 327 l 1,2,-1
 130 -203 l 1,3,-1
 1 -203 l 1,0,-1
89 399 m 1,4,-1
 112 540 l 1,5,-1
 266 540 l 1,6,-1
 243 399 l 1,7,-1
 89 399 l 1,4,-1
EndSplineSet
EndChar

StartChar: cent
Encoding: 162 162 100
Width: 501
GlyphClass: 2
Flags: W
LayerCount: 2
Fore
SplineSet
28 269 m 0,0,1
 45 374 45 374 106.5 450.5 c 128,-1,2
 168 527 168 527 259 545 c 1,3,-1
 272 623 l 1,4,-1
 377 623 l 1,5,-1
 364 546 l 1,6,7
 421 532 421 532 454 488.5 c 128,-1,8
 487 445 487 445 491 394 c 1,9,-1
 390 366 l 1,10,11
 383 401 383 401 362 427 c 128,-1,12
 341 453 341 453 304 453 c 0,13,14
 243 453 243 453 201 400.5 c 128,-1,15
 159 348 159 348 146 269 c 0,16,17
 132 185 132 185 158 134.5 c 128,-1,18
 184 84 184 84 242 84 c 0,19,20
 283 84 283 84 317.5 111 c 128,-1,21
 352 138 352 138 370 177 c 1,22,-1
 462 149 l 1,23,24
 440 97 440 97 390.5 51.5 c 128,-1,25
 341 6 341 6 272 -11 c 1,26,-1
 259 -93 l 1,27,-1
 154 -93 l 1,28,-1
 168 -9 l 1,29,30
 88 7 88 7 48.5 81.5 c 128,-1,31
 9 156 9 156 28 269 c 0,0,1
EndSplineSet
EndChar

StartChar: sterling
Encoding: 163 163 101
Width: 587
GlyphClass: 2
Flags: W
LayerCount: 2
Fore
SplineSet
40 310 m 1,0,-1
 57 414 l 1,1,-1
 160 414 l 1,2,-1
 185 561 l 2,3,4
 200 653 200 653 268.5 702.5 c 128,-1,5
 337 752 337 752 438 752 c 0,6,7
 505 752 505 752 549.5 715.5 c 128,-1,8
 594 679 594 679 610 634 c 1,9,-1
 512 587 l 1,10,11
 483 645 483 645 421 645 c 0,12,13
 375 645 375 645 342 621 c 128,-1,14
 309 597 309 597 301 549 c 2,15,-1
 279 414 l 1,16,-1
 476 414 l 1,17,-1
 459 310 l 1,18,-1
 262 310 l 1,19,-1
 247 219 l 2,20,21
 235 145 235 145 203 115 c 1,22,23
 239 122 239 122 258 122 c 0,24,25
 286 122 286 122 329 104.5 c 128,-1,26
 372 87 372 87 406 87 c 0,27,28
 460 87 460 87 521 117 c 1,29,-1
 537 17 l 1,30,31
 456 -17 456 -17 388 -17 c 0,32,33
 355 -17 355 -17 294 0.5 c 128,-1,34
 233 18 233 18 203 18 c 0,35,36
 168 18 168 18 120.5 11 c 128,-1,37
 73 4 73 4 42 -4 c 2,38,-1
 12 -11 l 1,39,-1
 -4 75 l 1,40,41
 108 100 108 100 127 213 c 2,42,-1
 143 310 l 1,43,-1
 40 310 l 1,0,-1
EndSplineSet
EndChar

StartChar: currency
Encoding: 164 164 102
Width: 640
GlyphClass: 2
Flags: W
LayerCount: 2
Fore
SplineSet
-3 149 m 1,0,-1
 121 250 l 1,1,2
 96 298 96 298 107 364 c 0,3,4
 118 432 118 432 158 479 c 1,5,-1
 68 579 l 1,6,-1
 161 656 l 1,7,-1
 245 556 l 1,8,9
 310 593 310 593 372 593 c 0,10,11
 431 593 431 593 487 556 c 1,12,-1
 604 656 l 1,13,-1
 671 579 l 1,14,-1
 548 479 l 1,15,16
 573 434 573 434 562 364 c 0,17,18
 551 298 551 298 509 250 c 1,19,-1
 599 149 l 1,20,-1
 507 72 l 1,21,-1
 423 172 l 1,22,23
 358 135 358 135 296 135 c 0,24,25
 232 135 232 135 182 172 c 1,26,-1
 64 72 l 1,27,-1
 -3 149 l 1,0,-1
212 364 m 0,28,29
 204 313 204 313 232 276.5 c 128,-1,30
 260 240 260 240 314 240 c 256,31,32
 368 240 368 240 407.5 276 c 128,-1,33
 447 312 447 312 456 364 c 256,34,35
 465 416 465 416 436.5 452 c 128,-1,36
 408 488 408 488 355 488 c 0,37,38
 301 488 301 488 260.5 450.5 c 128,-1,39
 220 413 220 413 212 364 c 0,28,29
EndSplineSet
EndChar

StartChar: yen
Encoding: 165 165 103
Width: 613
GlyphClass: 2
Flags: W
LayerCount: 2
Fore
SplineSet
73 735 m 1,0,-1
 210 735 l 1,1,-1
 284 563 l 2,2,3
 317 483 317 483 332 443 c 1,4,-1
 336 443 l 1,5,6
 349 462 349 462 363.5 482 c 128,-1,7
 378 502 378 502 396.5 526 c 128,-1,8
 415 550 415 550 425 563 c 2,9,-1
 555 735 l 1,10,-1
 693 735 l 1,11,-1
 438 421 l 1,12,-1
 578 421 l 1,13,-1
 563 334 l 1,14,-1
 376 334 l 1,15,-1
 360 236 l 1,16,-1
 547 236 l 1,17,-1
 533 150 l 1,18,-1
 345 150 l 1,19,-1
 321 0 l 1,20,-1
 201 0 l 1,21,-1
 226 150 l 1,22,-1
 39 150 l 1,23,-1
 53 236 l 1,24,-1
 240 236 l 1,25,-1
 256 334 l 1,26,-1
 69 334 l 1,27,-1
 84 421 l 1,28,-1
 223 421 l 1,29,-1
 73 735 l 1,0,-1
EndSplineSet
EndChar

StartChar: brokenbar
Encoding: 166 166 104
Width: 275
GlyphClass: 2
Flags: W
LayerCount: 2
Fore
SplineSet
108 454 m 1,0,-1
 175 860 l 1,1,-1
 291 860 l 1,2,-1
 224 454 l 1,3,-1
 108 454 l 1,0,-1
7 -155 m 1,4,-1
 74 249 l 1,5,-1
 190 249 l 1,6,-1
 123 -155 l 1,7,-1
 7 -155 l 1,4,-1
EndSplineSet
EndChar

StartChar: section
Encoding: 167 167 105
Width: 533
GlyphClass: 2
Flags: W
LayerCount: 2
Fore
SplineSet
-3 54 m 1,0,-1
 84 113 l 1,1,2
 101 85 101 85 133.5 67 c 128,-1,3
 166 49 166 49 208 49 c 0,4,5
 298 49 298 49 307 99 c 0,6,7
 310 116 310 116 299.5 128 c 128,-1,8
 289 140 289 140 265 152 c 2,9,-1
 170 202 l 2,10,11
 49 261 49 261 66 359 c 0,12,13
 79 437 79 437 168 496 c 1,14,15
 122 541 122 541 131 600 c 0,16,17
 142 668 142 668 202 710 c 128,-1,18
 262 752 262 752 369 752 c 0,19,20
 502 752 502 752 560 650 c 1,21,-1
 474 588 l 1,22,23
 428 650 428 650 349 650 c 0,24,25
 306 650 306 650 280 636.5 c 128,-1,26
 254 623 254 623 250 599 c 0,27,28
 249 590 249 590 251 582.5 c 128,-1,29
 253 575 253 575 259.5 567.5 c 128,-1,30
 266 560 266 560 272.5 555 c 128,-1,31
 279 550 279 550 291 543 c 128,-1,32
 303 536 303 536 312.5 531.5 c 128,-1,33
 322 527 322 527 338.5 519.5 c 128,-1,34
 355 512 355 512 364 506 c 0,35,36
 439 468 439 468 463 446 c 0,37,38
 515 399 515 399 503 326 c 0,39,40
 490 247 490 247 408 190 c 1,41,42
 435 150 435 150 426 99 c 0,43,44
 414 29 414 29 355 -12.5 c 128,-1,45
 296 -54 296 -54 191 -54 c 0,46,47
 121 -54 121 -54 68.5 -22 c 128,-1,48
 16 10 16 10 -3 54 c 1,0,-1
187 362 m 0,49,50
 182 333 182 333 197 316.5 c 128,-1,51
 212 300 212 300 248 282 c 2,52,-1
 325 243 l 1,53,54
 377 284 377 284 384 326 c 0,55,56
 388 351 388 351 371 369 c 128,-1,57
 354 387 354 387 319 405 c 2,58,-1
 249 444 l 1,59,60
 194 407 194 407 187 362 c 0,49,50
EndSplineSet
EndChar

StartChar: dieresis
Encoding: 168 168 106
Width: 491
GlyphClass: 2
Flags: W
LayerCount: 2
Fore
SplineSet
141 605 m 1,0,-1
 162 735 l 1,1,-1
 286 735 l 1,2,-1
 265 605 l 1,3,-1
 141 605 l 1,0,-1
334 605 m 1,4,-1
 355 735 l 1,5,-1
 480 735 l 1,6,-1
 458 605 l 1,7,-1
 334 605 l 1,4,-1
EndSplineSet
EndChar

StartChar: copyright
Encoding: 169 169 107
Width: 830
GlyphClass: 2
Flags: W
LayerCount: 2
Fore
SplineSet
243 373 m 0,0,1
 261 483 261 483 326.5 544 c 128,-1,2
 392 605 392 605 481 605 c 0,3,4
 547 605 547 605 581 567.5 c 128,-1,5
 615 530 615 530 622 476 c 1,6,-1
 537 451 l 1,7,8
 519 520 519 520 468 520 c 256,9,10
 417 520 417 520 384.5 482 c 128,-1,11
 352 444 352 444 341 373 c 0,12,13
 328 297 328 297 349.5 261 c 128,-1,14
 371 225 371 225 419 225 c 0,15,16
 452 225 452 225 479 247 c 128,-1,17
 506 269 506 269 522 300 c 1,18,-1
 599 276 l 1,19,20
 575 218 575 218 523 179 c 128,-1,21
 471 140 471 140 404 140 c 0,22,23
 315 140 315 140 270 201 c 128,-1,24
 225 262 225 262 243 373 c 0,0,1
47 372 m 0,25,26
 77 552 77 552 204 661 c 128,-1,27
 331 770 331 770 496 770 c 0,28,29
 663 770 663 770 753 660 c 128,-1,30
 843 550 843 550 814 372 c 0,31,32
 785 196 785 196 658 85.5 c 128,-1,33
 531 -25 531 -25 365 -25 c 0,34,35
 199 -25 199 -25 108 83 c 128,-1,36
 17 191 17 191 47 372 c 0,25,26
134 372 m 256,37,38
 110 226 110 226 177 138.5 c 128,-1,39
 244 51 244 51 377 51 c 0,40,41
 505 51 505 51 604 136 c 128,-1,42
 703 221 703 221 728 372 c 0,43,44
 752 519 752 519 683.5 606.5 c 128,-1,45
 615 694 615 694 484 694 c 0,46,47
 352 694 352 694 255 606 c 128,-1,48
 158 518 158 518 134 372 c 256,37,38
EndSplineSet
EndChar

StartChar: ordfeminine
Encoding: 170 170 108
Width: 374
GlyphClass: 2
Flags: W
LayerCount: 2
Fore
SplineSet
27 285 m 1,0,-1
 40 361 l 1,1,-1
 362 361 l 1,2,-1
 349 285 l 1,3,-1
 27 285 l 1,0,-1
147 536 m 0,4,5
 144 516 144 516 157 502 c 128,-1,6
 170 488 170 488 197 488 c 0,7,8
 235 488 235 488 266 514 c 128,-1,9
 297 540 297 540 304 582 c 2,10,-1
 310 617 l 1,11,12
 297 614 297 614 272 609.5 c 128,-1,13
 247 605 247 605 234.5 602.5 c 128,-1,14
 222 600 222 600 203.5 594 c 128,-1,15
 185 588 185 588 175.5 581 c 128,-1,16
 166 574 166 574 157.5 562.5 c 128,-1,17
 149 551 149 551 147 536 c 0,4,5
63 530 m 0,18,19
 69 567 69 567 90.5 593 c 128,-1,20
 112 619 112 619 144.5 632.5 c 128,-1,21
 177 646 177 646 206 653.5 c 128,-1,22
 235 661 235 661 271 666.5 c 128,-1,23
 307 672 307 672 320 676 c 1,24,-1
 323 695 l 2,25,26
 328 723 328 723 311 738.5 c 128,-1,27
 294 754 294 754 262 754 c 0,28,29
 202 754 202 754 151 702 c 1,30,-1
 107 745 l 1,31,32
 136 775 136 775 181 796.5 c 128,-1,33
 226 818 226 818 273 818 c 0,34,35
 355 818 355 818 384 778 c 128,-1,36
 413 738 413 738 400 664 c 2,37,-1
 362 430 l 1,38,-1
 283 430 l 1,39,-1
 291 478 l 1,40,41
 246 419 246 419 175 419 c 0,42,43
 115 419 115 419 85 449.5 c 128,-1,44
 55 480 55 480 63 530 c 0,18,19
EndSplineSet
EndChar

StartChar: guillemotleft
Encoding: 171 171 109
Width: 503
GlyphClass: 2
Flags: W
LayerCount: 2
Fore
SplineSet
31 265 m 1,0,-1
 234 511 l 1,1,-1
 308 454 l 1,2,-1
 155 265 l 1,3,-1
 244 78 l 1,4,-1
 153 20 l 1,5,-1
 31 265 l 1,0,-1
226 265 m 1,6,-1
 426 499 l 1,7,-1
 496 436 l 1,8,-1
 348 265 l 1,9,-1
 439 92 l 1,10,-1
 349 31 l 1,11,-1
 226 265 l 1,6,-1
EndSplineSet
EndChar

StartChar: logicalnot
Encoding: 172 172 110
Width: 538
GlyphClass: 2
Flags: W
LayerCount: 2
Fore
SplineSet
44 295 m 1,0,-1
 61 400 l 1,1,-1
 517 400 l 1,2,-1
 470 119 l 1,3,-1
 361 119 l 1,4,-1
 390 295 l 1,5,-1
 44 295 l 1,0,-1
EndSplineSet
EndChar

StartChar: uni00AD
Encoding: 173 173 111
Width: 544
GlyphClass: 2
Flags: W
LayerCount: 2
Fore
SplineSet
56 314 m 1,0,-1
 73 418 l 1,1,-1
 516 418 l 1,2,-1
 499 314 l 1,3,-1
 56 314 l 1,0,-1
EndSplineSet
EndChar

StartChar: registered
Encoding: 174 174 112
Width: 830
GlyphClass: 2
Flags: W
LayerCount: 2
Fore
SplineSet
241 144 m 1,0,-1
 316 595 l 1,1,-1
 498 595 l 2,2,3
 566 595 566 595 596 556 c 128,-1,4
 626 517 626 517 617 462 c 0,5,6
 604 386 604 386 542 353 c 1,7,8
 556 338 556 338 560.5 321.5 c 128,-1,9
 565 305 565 305 567 275 c 0,10,11
 570 226 570 226 599 144 c 1,12,-1
 491 144 l 1,13,14
 469 187 469 187 466 266 c 0,15,16
 465 306 465 306 457 313 c 0,17,18
 450 321 450 321 438 321 c 2,19,-1
 368 321 l 1,20,-1
 339 144 l 1,21,-1
 241 144 l 1,0,-1
381 397 m 1,22,-1
 451 397 l 2,23,24
 477 397 477 397 494.5 412 c 128,-1,25
 512 427 512 427 516 453 c 0,26,27
 520 475 520 475 507.5 490.5 c 128,-1,28
 495 506 495 506 469 506 c 2,29,-1
 399 506 l 1,30,-1
 381 397 l 1,22,-1
48 374 m 0,31,32
 78 554 78 554 204.5 662 c 128,-1,33
 331 770 331 770 496 770 c 0,34,35
 663 770 663 770 753 660 c 128,-1,36
 843 550 843 550 814 374 c 0,37,38
 785 197 785 197 658.5 86 c 128,-1,39
 532 -25 532 -25 365 -25 c 0,40,41
 200 -25 200 -25 109 84 c 128,-1,42
 18 193 18 193 48 374 c 0,31,32
134 374 m 0,43,44
 109 226 109 226 175.5 141 c 128,-1,45
 242 56 242 56 378 56 c 0,46,47
 509 56 509 56 606.5 140 c 128,-1,48
 704 224 704 224 729 374 c 0,49,50
 754 523 754 523 683.5 606 c 128,-1,51
 613 689 613 689 483 689 c 0,52,53
 349 689 349 689 253.5 604 c 128,-1,54
 158 519 158 519 134 374 c 0,43,44
EndSplineSet
EndChar

StartChar: macron
Encoding: 175 175 113
Width: 482
GlyphClass: 2
Flags: W
LayerCount: 2
Fore
SplineSet
70 692 m 1,0,-1
 87 795 l 1,1,-1
 567 795 l 1,2,-1
 550 692 l 1,3,-1
 70 692 l 1,0,-1
EndSplineSet
EndChar

StartChar: degree
Encoding: 176 176 114
Width: 409
GlyphClass: 2
Flags: W
LayerCount: 2
Fore
SplineSet
129 610 m 0,0,1
 138 664 138 664 181.5 702.5 c 128,-1,2
 225 741 225 741 282 741 c 0,3,4
 336 741 336 741 368 704 c 128,-1,5
 400 667 400 667 390 610 c 0,6,7
 381 554 381 554 336 516 c 128,-1,8
 291 478 291 478 238 478 c 0,9,10
 183 478 183 478 151.5 516 c 128,-1,11
 120 554 120 554 129 610 c 0,0,1
203 610 m 0,12,13
 199 584 199 584 212 567 c 128,-1,14
 225 550 225 550 250 550 c 0,15,16
 274 550 274 550 292.5 567 c 128,-1,17
 311 584 311 584 316 610 c 0,18,19
 320 634 320 634 307 651 c 128,-1,20
 294 668 294 668 270 668 c 0,21,22
 245 668 245 668 226 651 c 128,-1,23
 207 634 207 634 203 610 c 0,12,13
EndSplineSet
EndChar

StartChar: plusminus
Encoding: 177 177 115
Width: 547
GlyphClass: 2
Flags: W
LayerCount: 2
Fore
SplineSet
54 399 m 1,0,-1
 70 500 l 1,1,-1
 252 500 l 1,2,-1
 279 663 l 1,3,-1
 393 663 l 1,4,-1
 366 500 l 1,5,-1
 548 500 l 1,6,-1
 531 399 l 1,7,-1
 350 399 l 1,8,-1
 323 239 l 1,9,-1
 208 239 l 1,10,-1
 235 399 l 1,11,-1
 54 399 l 1,0,-1
3 79 m 1,12,-1
 20 181 l 1,13,-1
 494 181 l 1,14,-1
 477 79 l 1,15,-1
 3 79 l 1,12,-1
EndSplineSet
EndChar

StartChar: twosuperior
Encoding: 178 178 116
Width: 318
GlyphClass: 2
Flags: W
LayerCount: 2
Fore
SplineSet
90 694 m 1,0,1
 98 714 98 714 105 726.5 c 128,-1,2
 112 739 112 739 131 764.5 c 128,-1,3
 150 790 150 790 179.5 804.5 c 128,-1,4
 209 819 209 819 248 819 c 0,5,6
 307 819 307 819 337.5 784 c 128,-1,7
 368 749 368 749 359 691 c 0,8,9
 349 630 349 630 277 566 c 0,10,11
 270 559 270 559 238 532 c 128,-1,12
 206 505 206 505 187.5 487 c 128,-1,13
 169 469 169 469 155 449 c 1,14,-1
 318 449 l 1,15,-1
 306 377 l 1,16,-1
 42 377 l 1,17,18
 52 439 52 439 88.5 484 c 128,-1,19
 125 529 125 529 217 606 c 0,20,21
 268 648 268 648 276 692 c 0,22,23
 280 718 280 718 269 732.5 c 128,-1,24
 258 747 258 747 236 747 c 0,25,26
 187 747 187 747 157 674 c 1,27,-1
 90 694 l 1,0,1
EndSplineSet
EndChar

StartChar: threesuperior
Encoding: 179 179 117
Width: 319
GlyphClass: 2
Flags: W
LayerCount: 2
Fore
SplineSet
46 473 m 1,0,-1
 116 498 l 1,1,2
 132 439 132 439 180 439 c 0,3,4
 207 439 207 439 228.5 455.5 c 128,-1,5
 250 472 250 472 255 504 c 0,6,7
 260 532 260 532 242.5 549 c 128,-1,8
 225 566 225 566 194 566 c 0,9,10
 165 566 165 566 149 564 c 1,11,-1
 161 636 l 1,12,13
 193 634 193 634 203 634 c 0,14,15
 228 634 228 634 247.5 649 c 128,-1,16
 267 664 267 664 271 692 c 0,17,18
 275 716 275 716 263 731.5 c 128,-1,19
 251 747 251 747 228 747 c 0,20,21
 204 747 204 747 188.5 731 c 128,-1,22
 173 715 173 715 159 686 c 1,23,-1
 93 707 l 1,24,25
 107 742 107 742 128 765.5 c 128,-1,26
 149 789 149 789 171.5 799.5 c 128,-1,27
 194 810 194 810 210.5 814 c 128,-1,28
 227 818 227 818 244 818 c 0,29,30
 304 818 304 818 334.5 784.5 c 128,-1,31
 365 751 365 751 357 700 c 0,32,33
 347 638 347 638 293 605 c 1,34,35
 350 572 350 572 339 504 c 0,36,37
 328 440 328 440 282.5 403.5 c 128,-1,38
 237 367 237 367 169 367 c 0,39,40
 120 367 120 367 86 394.5 c 128,-1,41
 52 422 52 422 46 473 c 1,0,-1
EndSplineSet
EndChar

StartChar: acute
Encoding: 180 180 118
Width: 364
GlyphClass: 2
Flags: W
LayerCount: 2
Fore
SplineSet
136 647 m 1,0,-1
 268 822 l 1,1,-1
 408 822 l 1,2,-1
 233 647 l 1,3,-1
 136 647 l 1,0,-1
EndSplineSet
EndChar

StartChar: uni00B5
Encoding: 181 181 119
Width: 529
GlyphClass: 2
Flags: W
LayerCount: 2
Fore
SplineSet
-20 -219 m 1,0,-1
 105 536 l 1,1,-1
 215 536 l 1,2,-1
 161 209 l 2,3,4
 140 84 140 84 224 84 c 0,5,6
 275 84 275 84 310.5 129.5 c 128,-1,7
 346 175 346 175 356 236 c 2,8,-1
 405 536 l 1,9,-1
 516 536 l 1,10,-1
 428 0 l 1,11,-1
 321 0 l 1,12,-1
 331 60 l 1,13,-1
 330 60 l 1,14,15
 314 31 314 31 275 7 c 128,-1,16
 236 -17 236 -17 188 -17 c 0,17,18
 148 -17 148 -17 128 10 c 1,19,-1
 90 -219 l 1,20,-1
 -20 -219 l 1,0,-1
EndSplineSet
EndChar

StartChar: paragraph
Encoding: 182 182 120
Width: 611
GlyphClass: 2
Flags: W
LayerCount: 2
Fore
SplineSet
89 548 m 0,0,1
 106 649 106 649 168 710 c 128,-1,2
 230 771 230 771 328 771 c 2,3,-1
 619 771 l 1,4,-1
 480 -72 l 1,5,-1
 384 -72 l 1,6,-1
 506 663 l 1,7,-1
 435 663 l 1,8,-1
 313 -72 l 1,9,-1
 218 -72 l 1,10,-1
 283 322 l 1,11,12
 260 316 260 316 240 316 c 0,13,14
 160 316 160 316 115 376 c 128,-1,15
 70 436 70 436 89 548 c 0,0,1
EndSplineSet
EndChar

StartChar: periodcentered
Encoding: 183 183 121
Width: 327
GlyphClass: 2
Flags: W
LayerCount: 2
Fore
SplineSet
88 282 m 1,0,-1
 112 425 l 1,1,-1
 265 425 l 1,2,-1
 241 282 l 1,3,-1
 88 282 l 1,0,-1
EndSplineSet
EndChar

StartChar: cedilla
Encoding: 184 184 122
Width: 296
GlyphClass: 2
Flags: W
LayerCount: 2
Fore
SplineSet
-30 -133 m 1,0,1
 7 -141 7 -141 30 -141 c 0,2,3
 80 -141 80 -141 84 -114 c 0,4,5
 90 -80 90 -80 3 -75 c 1,6,-1
 78 40 l 1,7,-1
 179 40 l 1,8,-1
 140 -21 l 1,9,10
 204 -45 204 -45 191 -116 c 0,11,12
 184 -161 184 -161 144.5 -193 c 128,-1,13
 105 -225 105 -225 24 -225 c 0,14,15
 -21 -225 -21 -225 -44 -217 c 1,16,-1
 -30 -133 l 1,0,1
EndSplineSet
EndChar

StartChar: onesuperior
Encoding: 185 185 123
Width: 311
GlyphClass: 2
Flags: W
LayerCount: 2
Fore
SplineSet
104 673 m 1,0,-1
 116 740 l 1,1,-1
 140 740 l 2,2,3
 217 740 217 740 227 796 c 2,4,-1
 230 813 l 1,5,-1
 303 813 l 1,6,-1
 231 378 l 1,7,-1
 148 378 l 1,8,-1
 197 673 l 1,9,-1
 104 673 l 1,0,-1
EndSplineSet
EndChar

StartChar: ordmasculine
Encoding: 186 186 124
Width: 381
GlyphClass: 2
Flags: W
LayerCount: 2
Fore
SplineSet
160 619 m 0,0,1
 149 554 149 554 169.5 522 c 128,-1,2
 190 490 190 490 225 490 c 256,3,4
 259 490 259 490 290.5 522 c 128,-1,5
 322 554 322 554 333 619 c 0,6,7
 344 685 344 685 323 716.5 c 128,-1,8
 302 748 302 748 267 748 c 0,9,10
 232 748 232 748 201.5 716.5 c 128,-1,11
 171 685 171 685 160 619 c 0,0,1
75 619 m 0,12,13
 89 703 89 703 142.5 761 c 128,-1,14
 196 819 196 819 279 819 c 256,15,16
 362 819 362 819 396 761 c 128,-1,17
 430 703 430 703 417 619 c 0,18,19
 411 585 411 585 397 552.5 c 128,-1,20
 383 520 383 520 360 489 c 128,-1,21
 337 458 337 458 298.5 438.5 c 128,-1,22
 260 419 260 419 213 419 c 0,23,24
 167 419 167 419 134.5 437.5 c 128,-1,25
 102 456 102 456 89 487 c 128,-1,26
 76 518 76 518 72.5 551 c 128,-1,27
 69 584 69 584 75 619 c 0,12,13
28 291 m 1,28,-1
 40 365 l 1,29,-1
 369 365 l 1,30,-1
 356 291 l 1,31,-1
 28 291 l 1,28,-1
EndSplineSet
EndChar

StartChar: guillemotright
Encoding: 187 187 125
Width: 502
GlyphClass: 2
Flags: W
LayerCount: 2
Fore
SplineSet
59 436 m 1,0,-1
 150 499 l 1,1,-1
 273 265 l 1,2,-1
 72 31 l 1,3,-1
 2 92 l 1,4,-1
 150 265 l 1,5,-1
 59 436 l 1,0,-1
193 79 m 1,6,-1
 344 265 l 1,7,-1
 253 454 l 1,8,-1
 347 511 l 1,9,-1
 468 265 l 1,10,-1
 265 20 l 1,11,-1
 193 79 l 1,6,-1
EndSplineSet
EndChar

StartChar: onequarter
Encoding: 188 188 126
Width: 947
GlyphClass: 3
Flags: W
LayerCount: 2
Fore
SplineSet
623 141 m 1,0,-1
 714 141 l 1,1,-1
 730 240 l 2,2,3
 731 248 731 248 735.5 270 c 128,-1,4
 740 292 740 292 740 295 c 1,5,-1
 704 245 l 1,6,-1
 623 141 l 1,0,-1
113 625 m 1,7,-1
 127 708 l 1,8,-1
 160 708 l 2,9,10
 244 708 244 708 254 769 c 2,11,-1
 258 793 l 1,12,-1
 347 793 l 1,13,-1
 264 290 l 1,14,-1
 162 290 l 1,15,-1
 218 625 l 1,16,-1
 113 625 l 1,7,-1
105 -51 m 1,17,-1
 703 782 l 1,18,-1
 812 782 l 1,19,-1
 216 -51 l 1,20,-1
 105 -51 l 1,17,-1
518 132 m 1,21,-1
 783 457 l 1,22,-1
 867 457 l 1,23,-1
 815 141 l 1,24,-1
 871 141 l 1,25,-1
 856 53 l 1,26,-1
 800 53 l 1,27,-1
 783 -50 l 1,28,-1
 682 -50 l 1,29,-1
 699 53 l 1,30,-1
 505 53 l 1,31,-1
 518 132 l 1,21,-1
EndSplineSet
Ligature2: "'frac' Diagonal Fractions lookup 7 subtable" one fraction four
Ligature2: "'frac' Diagonal Fractions lookup 7 subtable" one slash four
EndChar

StartChar: onehalf
Encoding: 189 189 127
Width: 945
GlyphClass: 3
Flags: W
LayerCount: 2
Fore
SplineSet
91 -51 m 1,0,-1
 696 782 l 1,1,-1
 804 782 l 1,2,-1
 203 -51 l 1,3,-1
 91 -51 l 1,0,-1
565 315 m 1,4,5
 622 462 622 462 750 462 c 0,6,7
 817 462 817 462 854 422 c 128,-1,8
 891 382 891 382 880 314 c 0,9,10
 874 280 874 280 854.5 248.5 c 128,-1,11
 835 217 835 217 815.5 197.5 c 128,-1,12
 796 178 796 178 762 149 c 0,13,14
 673 74 673 74 650 42 c 1,15,-1
 834 42 l 1,16,-1
 819 -46 l 1,17,-1
 512 -46 l 1,18,19
 523 23 523 23 562.5 74.5 c 128,-1,20
 602 126 602 126 712 219 c 0,21,22
 770 267 770 267 778 315 c 0,23,24
 783 343 783 343 771 358.5 c 128,-1,25
 759 374 759 374 735 374 c 0,26,27
 719 374 719 374 705.5 367 c 128,-1,28
 692 360 692 360 684 352 c 128,-1,29
 676 344 676 344 667.5 329 c 128,-1,30
 659 314 659 314 656.5 308 c 128,-1,31
 654 302 654 302 648 288 c 1,32,-1
 565 315 l 1,4,5
113 625 m 1,33,-1
 127 708 l 1,34,-1
 160 708 l 2,35,36
 244 708 244 708 254 769 c 2,37,-1
 258 793 l 1,38,-1
 347 793 l 1,39,-1
 264 290 l 1,40,-1
 162 290 l 1,41,-1
 218 625 l 1,42,-1
 113 625 l 1,33,-1
EndSplineSet
Ligature2: "'frac' Diagonal Fractions lookup 7 subtable" one fraction two
Ligature2: "'frac' Diagonal Fractions lookup 7 subtable" one slash two
EndChar

StartChar: threequarters
Encoding: 190 190 128
Width: 948
GlyphClass: 3
Flags: W
LayerCount: 2
Fore
SplineSet
68 408 m 1,0,-1
 154 439 l 1,1,2
 171 371 171 371 226 371 c 0,3,4
 255 371 255 371 278 388.5 c 128,-1,5
 301 406 301 406 306 440 c 0,6,7
 311 471 311 471 292.5 489.5 c 128,-1,8
 274 508 274 508 239 508 c 0,9,10
 211 508 211 508 185 505 c 1,11,-1
 200 595 l 1,12,13
 220 593 220 593 250 593 c 0,14,15
 276 593 276 593 298 609 c 128,-1,16
 320 625 320 625 325 655 c 0,17,18
 329 680 329 680 317 697 c 128,-1,19
 305 714 305 714 280 714 c 0,20,21
 260 714 260 714 244.5 702 c 128,-1,22
 229 690 229 690 220.5 677 c 128,-1,23
 212 664 212 664 202 643 c 1,24,-1
 122 670 l 1,25,26
 150 739 150 739 199 770.5 c 128,-1,27
 248 802 248 802 299 802 c 0,28,29
 369 802 369 802 404 762.5 c 128,-1,30
 439 723 439 723 429 663 c 0,31,32
 418 597 418 597 359 557 c 1,33,34
 422 518 422 518 409 440 c 0,35,36
 397 367 397 367 343.5 324.5 c 128,-1,37
 290 282 290 282 213 282 c 0,38,39
 160 282 160 282 118.5 311.5 c 128,-1,40
 77 341 77 341 68 408 c 1,0,-1
524 132 m 1,41,-1
 787 457 l 1,42,-1
 872 457 l 1,43,-1
 819 141 l 1,44,-1
 876 141 l 1,45,-1
 862 53 l 1,46,-1
 805 53 l 1,47,-1
 788 -50 l 1,48,-1
 688 -50 l 1,49,-1
 705 53 l 1,50,-1
 511 53 l 1,51,-1
 524 132 l 1,41,-1
628 141 m 1,52,-1
 719 141 l 1,53,-1
 735 236 l 2,54,55
 736 244 736 244 740.5 268 c 128,-1,56
 745 292 745 292 746 295 c 1,57,-1
 707 242 l 1,58,-1
 628 141 l 1,52,-1
158 -51 m 1,59,-1
 767 782 l 1,60,-1
 875 782 l 1,61,-1
 269 -51 l 1,62,-1
 158 -51 l 1,59,-1
EndSplineSet
Ligature2: "'frac' Diagonal Fractions lookup 7 subtable" three fraction four
Ligature2: "'frac' Diagonal Fractions lookup 7 subtable" three slash four
EndChar

StartChar: questiondown
Encoding: 191 191 129
Width: 551
GlyphClass: 2
Flags: W
LayerCount: 2
Fore
SplineSet
8 -11 m 0,0,1
 15 33 15 33 38 69 c 128,-1,2
 61 105 61 105 89 128.5 c 128,-1,3
 117 152 117 152 145 175 c 128,-1,4
 173 198 173 198 195 229.5 c 128,-1,5
 217 261 217 261 224 300 c 2,6,-1
 229 330 l 1,7,-1
 349 330 l 1,8,-1
 343 290 l 2,9,10
 335 243 335 243 312.5 206 c 128,-1,11
 290 169 290 169 262 144.5 c 128,-1,12
 234 120 234 120 206.5 97.5 c 128,-1,13
 179 75 179 75 158 46.5 c 128,-1,14
 137 18 137 18 131 -17 c 0,15,16
 124 -62 124 -62 143.5 -88 c 128,-1,17
 163 -114 163 -114 204 -114 c 0,18,19
 283 -114 283 -114 343 -5 c 1,20,-1
 444 -41 l 1,21,22
 411 -117 411 -117 342.5 -168 c 128,-1,23
 274 -219 274 -219 188 -219 c 0,24,25
 93 -219 93 -219 42.5 -162 c 128,-1,26
 -8 -105 -8 -105 8 -11 c 0,0,1
223 400 m 1,27,-1
 246 540 l 1,28,-1
 400 540 l 1,29,-1
 377 400 l 1,30,-1
 223 400 l 1,27,-1
EndSplineSet
EndChar

StartChar: AE
Encoding: 198 198 136
Width: 935
GlyphClass: 2
Flags: W
LayerCount: 2
Fore
SplineSet
264 281 m 1,0,-1
 452 281 l 1,1,-1
 508 619 l 1,2,-1
 499 619 l 1,3,-1
 264 281 l 1,0,-1
-52 0 m 1,4,-1
 456 735 l 1,5,-1
 975 735 l 1,6,-1
 957 631 l 1,7,-1
 629 631 l 1,8,-1
 596 431 l 1,9,-1
 890 431 l 1,10,-1
 873 328 l 1,11,-1
 571 328 l 1,12,-1
 534 104 l 1,13,-1
 879 104 l 1,14,-1
 862 0 l 1,15,-1
 405 0 l 1,16,-1
 435 182 l 1,17,-1
 200 182 l 1,18,-1
 76 0 l 1,19,-1
 -52 0 l 1,4,-1
EndSplineSet
EndChar

StartChar: multiply
Encoding: 215 215 153
Width: 541
GlyphClass: 2
Flags: W
LayerCount: 2
Fore
SplineSet
19 204 m 1,0,-1
 212 365 l 1,1,-1
 72 525 l 1,2,-1
 159 599 l 1,3,-1
 296 437 l 1,4,-1
 486 599 l 1,5,-1
 548 526 l 1,6,-1
 356 365 l 1,7,-1
 495 203 l 1,8,-1
 408 130 l 1,9,-1
 272 293 l 1,10,-1
 82 130 l 1,11,-1
 19 204 l 1,0,-1
EndSplineSet
EndChar

StartChar: Oslash
Encoding: 216 216 154
Width: 689
GlyphClass: 2
Flags: W
LayerCount: 2
Fore
SplineSet
49 367 m 0,0,1
 78 540 78 540 181 646 c 128,-1,2
 284 752 284 752 423 752 c 0,3,4
 499 752 499 752 554 718 c 1,5,-1
 603 789 l 1,6,-1
 704 789 l 1,7,-1
 618 663 l 1,8,9
 700 557 700 557 669 367 c 0,10,11
 640 193 640 193 537.5 88 c 128,-1,12
 435 -17 435 -17 295 -17 c 0,13,14
 222 -17 222 -17 172 11 c 1,15,-1
 124 -58 l 1,16,-1
 25 -58 l 1,17,-1
 108 61 l 1,18,19
 16 168 16 168 49 367 c 0,0,1
536 549 m 1,20,-1
 239 107 l 1,21,22
 264 88 264 88 313 88 c 0,23,24
 398 88 398 88 460.5 162.5 c 128,-1,25
 523 237 523 237 544 367 c 0,26,27
 563 480 563 480 536 549 c 1,20,-1
488 622 m 1,28,29
 454 647 454 647 405 647 c 0,30,31
 319 647 319 647 256.5 571 c 128,-1,32
 194 495 194 495 173 367 c 0,33,34
 154 252 154 252 187 174 c 1,35,-1
 488 622 l 1,28,29
EndSplineSet
EndChar

StartChar: Thorn
Encoding: 222 222 160
Width: 564
GlyphClass: 2
Flags: W
LayerCount: 2
Fore
SplineSet
29 0 m 1,0,-1
 150 735 l 1,1,-1
 269 735 l 1,2,-1
 249 616 l 1,3,-1
 322 616 l 2,4,5
 396 616 396 616 446 595.5 c 128,-1,6
 496 575 496 575 519.5 540 c 128,-1,7
 543 505 543 505 550 464 c 128,-1,8
 557 423 557 423 549 375 c 0,9,10
 529 255 529 255 447.5 193 c 128,-1,11
 366 131 366 131 243 131 c 2,12,-1
 169 131 l 1,13,-1
 147 0 l 1,14,-1
 29 0 l 1,0,-1
186 236 m 1,15,-1
 250 236 l 2,16,17
 400 236 400 236 423 377 c 0,18,19
 445 512 445 512 296 512 c 2,20,-1
 232 512 l 1,21,-1
 186 236 l 1,15,-1
EndSplineSet
EndChar

StartChar: germandbls
Encoding: 223 223 161
Width: 602
GlyphClass: 2
Flags: W
LayerCount: 2
Fore
SplineSet
29 0 m 1,0,-1
 117 535 l 2,1,2
 134 640 134 640 205.5 696 c 128,-1,3
 277 752 277 752 367 752 c 0,4,5
 468 752 468 752 521 698 c 128,-1,6
 574 644 574 644 559 551 c 0,7,8
 542 448 542 448 456 398 c 1,9,-1
 455 396 l 1,10,11
 511 375 511 375 538.5 326.5 c 128,-1,12
 566 278 566 278 553 202 c 0,13,14
 536 100 536 100 468 41.5 c 128,-1,15
 400 -17 400 -17 297 -17 c 0,16,17
 233 -17 233 -17 182 1 c 1,18,-1
 202 109 l 1,19,20
 250 87 250 87 310 87 c 0,21,22
 354 87 354 87 390 120 c 128,-1,23
 426 153 426 153 435 203 c 0,24,25
 445 265 445 265 416.5 298.5 c 128,-1,26
 388 332 388 332 325 332 c 2,27,-1
 263 332 l 1,28,-1
 280 436 l 1,29,-1
 333 436 l 2,30,31
 371 436 371 436 401 464.5 c 128,-1,32
 431 493 431 493 440 545 c 0,33,34
 447 590 447 590 423.5 618.5 c 128,-1,35
 400 647 400 647 354 647 c 0,36,37
 306 647 306 647 273 614.5 c 128,-1,38
 240 582 240 582 230 526 c 2,39,-1
 143 0 l 1,40,-1
 29 0 l 1,0,-1
EndSplineSet
EndChar

StartChar: ae
Encoding: 230 230 168
Width: 837
GlyphClass: 2
Flags: W
LayerCount: 2
Fore
SplineSet
7 143 m 0,0,1
 19 217 19 217 82.5 263.5 c 128,-1,2
 146 310 146 310 259 327 c 0,3,4
 331 338 331 338 362 347 c 1,5,-1
 367 378 l 2,6,7
 373 413 373 413 349.5 436.5 c 128,-1,8
 326 460 326 460 285 460 c 0,9,10
 202 460 202 460 126 387 c 1,11,-1
 69 448 l 1,12,13
 168 552 168 552 300 552 c 0,14,15
 414 552 414 552 453 473 c 1,16,17
 526 552 526 552 628 552 c 0,18,19
 725 552 725 552 776.5 474 c 128,-1,20
 828 396 828 396 808 273 c 0,21,22
 804 247 804 247 799 228 c 1,23,-1
 451 228 l 1,24,-1
 448 214 l 1,25,26
 443 162 443 162 467.5 120 c 128,-1,27
 492 78 492 78 552 78 c 0,28,29
 634 78 634 78 688 156 c 1,30,-1
 773 123 l 1,31,32
 738 63 738 63 677 23 c 128,-1,33
 616 -17 616 -17 535 -17 c 0,34,35
 474 -17 474 -17 430 12.5 c 128,-1,36
 386 42 386 42 364 93 c 1,37,38
 270 -17 270 -17 158 -17 c 0,39,40
 76 -17 76 -17 35.5 27.5 c 128,-1,41
 -5 72 -5 72 7 143 c 0,0,1
119 151 m 0,42,43
 114 123 114 123 133 102 c 128,-1,44
 152 81 152 81 188 81 c 0,45,46
 242 81 242 81 286.5 119 c 128,-1,47
 331 157 331 157 340 214 c 2,48,-1
 349 265 l 1,49,50
 285 251 285 251 255 246 c 0,51,52
 132 229 132 229 119 151 c 0,42,43
464 310 m 1,53,-1
 702 310 l 1,54,55
 702 312 702 312 702 314 c 0,56,57
 712 374 712 374 687 416 c 128,-1,58
 662 458 662 458 613 458 c 0,59,60
 561 458 561 458 524.5 422.5 c 128,-1,61
 488 387 488 387 470 332 c 1,62,-1
 464 310 l 1,53,-1
EndSplineSet
EndChar

StartChar: eth
Encoding: 240 240 178
Width: 524
GlyphClass: 2
Flags: W
LayerCount: 2
Fore
SplineSet
21 231 m 0,0,1
 41 349 41 349 115 419.5 c 128,-1,2
 189 490 189 490 288 490 c 0,3,4
 326 490 326 490 355 475.5 c 128,-1,5
 384 461 384 461 394 443 c 1,6,7
 390 525 390 525 343 585 c 1,8,-1
 237 512 l 1,9,-1
 183 586 l 1,10,-1
 271 647 l 1,11,12
 233 669 233 669 186 677 c 1,13,-1
 242 772 l 1,14,15
 289 764 289 764 330 746 c 0,16,17
 353 736 353 736 376 719 c 1,18,-1
 486 795 l 1,19,-1
 536 719 l 1,20,-1
 443 654 l 1,21,22
 461 630 461 630 474 601 c 0,23,24
 497 548 497 548 504.5 464.5 c 128,-1,25
 512 381 512 381 495 277 c 0,26,27
 473 145 473 145 396.5 64 c 128,-1,28
 320 -17 320 -17 207 -17 c 0,29,30
 104 -17 104 -17 53.5 53 c 128,-1,31
 3 123 3 123 21 231 c 0,0,1
136 237 m 0,32,33
 125 169 125 169 149 126.5 c 128,-1,34
 173 84 173 84 228 84 c 0,35,36
 279 84 279 84 316.5 125 c 128,-1,37
 354 166 354 166 366 237 c 0,38,39
 377 305 377 305 352.5 346.5 c 128,-1,40
 328 388 328 388 277 388 c 256,41,42
 226 388 226 388 187 347.5 c 128,-1,43
 148 307 148 307 136 237 c 0,32,33
EndSplineSet
EndChar

StartChar: divide
Encoding: 247 247 185
Width: 543
GlyphClass: 2
Flags: W
LayerCount: 2
Fore
SplineSet
235 489 m 1,0,-1
 257 624 l 1,1,-1
 395 624 l 1,2,-1
 373 489 l 1,3,-1
 235 489 l 1,0,-1
29 310 m 1,4,-1
 46 414 l 1,5,-1
 540 414 l 1,6,-1
 523 310 l 1,7,-1
 29 310 l 1,4,-1
170 99 m 1,8,-1
 193 236 l 1,9,-1
 331 236 l 1,10,-1
 309 99 l 1,11,-1
 170 99 l 1,8,-1
EndSplineSet
EndChar

StartChar: oslash
Encoding: 248 248 186
Width: 527
GlyphClass: 2
Flags: W
LayerCount: 2
Fore
SplineSet
27 268 m 0,0,1
 47 387 47 387 121 469.5 c 128,-1,2
 195 552 195 552 310 552 c 0,3,4
 363 552 363 552 404 532 c 1,5,-1
 450 600 l 1,6,-1
 534 600 l 1,7,-1
 459 487 l 1,8,9
 519 410 519 410 495 268 c 0,10,11
 489 230 489 230 476.5 193 c 128,-1,12
 464 156 464 156 441 117.5 c 128,-1,13
 418 79 418 79 388 49.5 c 128,-1,14
 358 20 358 20 312.5 1.5 c 128,-1,15
 267 -17 267 -17 215 -17 c 256,16,17
 163 -17 163 -17 124 1 c 1,18,-1
 85 -57 l 1,19,-1
 0 -57 l 1,20,-1
 67 44 l 1,21,22
 3 123 3 123 27 268 c 0,0,1
379 373 m 1,23,-1
 188 95 l 1,24,25
 208 84 208 84 232 84 c 0,26,27
 280 84 280 84 323.5 129.5 c 128,-1,28
 367 175 367 175 382 268 c 0,29,30
 393 331 393 331 379 373 c 1,23,-1
341 438 m 1,31,32
 319 453 319 453 293 453 c 0,33,34
 245 453 245 453 201 407.5 c 128,-1,35
 157 362 157 362 141 268 c 0,36,37
 130 202 130 202 146 156 c 1,38,-1
 341 438 l 1,31,32
EndSplineSet
EndChar

StartChar: thorn
Encoding: 254 254 192
Width: 553
GlyphClass: 2
Flags: W
LayerCount: 2
Fore
SplineSet
175 269 m 0,0,1
 161 184 161 184 185 134 c 128,-1,2
 209 84 209 84 260 84 c 0,3,4
 315 84 315 84 354.5 132 c 128,-1,5
 394 180 394 180 408 269 c 0,6,7
 422 354 422 354 399.5 403.5 c 128,-1,8
 377 453 377 453 321 453 c 0,9,10
 270 453 270 453 229.5 402.5 c 128,-1,11
 189 352 189 352 175 269 c 0,0,1
-14 -219 m 1,12,-1
 148 759 l 1,13,-1
 258 759 l 1,14,-1
 210 472 l 1,15,16
 229 506 229 506 269.5 529 c 128,-1,17
 310 552 310 552 352 552 c 0,18,19
 447 552 447 552 495.5 476 c 128,-1,20
 544 400 544 400 522 269 c 0,21,22
 510 194 510 194 481 137.5 c 128,-1,23
 452 81 452 81 414.5 48.5 c 128,-1,24
 377 16 377 16 337.5 -0.5 c 128,-1,25
 298 -17 298 -17 258 -17 c 0,26,27
 209 -17 209 -17 180 7.5 c 128,-1,28
 151 32 151 32 142 61 c 1,29,-1
 96 -219 l 1,30,-1
 -14 -219 l 1,12,-1
EndSplineSet
EndChar

StartChar: dcroat
Encoding: 273 273 211
Width: 550
GlyphClass: 2
Flags: W
LayerCount: 2
Fore
SplineSet
27 264 m 0,0,1
 49 398 49 398 123 470.5 c 128,-1,2
 197 543 197 543 288 543 c 0,3,4
 333 543 333 543 363.5 521 c 128,-1,5
 394 499 394 499 406 469 c 1,6,-1
 427 593 l 1,7,-1
 230 593 l 1,8,-1
 245 683 l 1,9,-1
 442 683 l 1,10,-1
 454 759 l 1,11,-1
 564 759 l 1,12,-1
 552 683 l 1,13,-1
 606 683 l 1,14,-1
 591 593 l 1,15,-1
 537 593 l 1,16,-1
 439 0 l 1,17,-1
 330 0 l 1,18,-1
 342 70 l 1,19,20
 317 32 317 32 279 7.5 c 128,-1,21
 241 -17 241 -17 195 -17 c 0,22,23
 106 -17 106 -17 55 54.5 c 128,-1,24
 4 126 4 126 27 264 c 0,0,1
140 264 m 0,25,26
 126 177 126 177 151.5 130.5 c 128,-1,27
 177 84 177 84 228 84 c 256,28,29
 279 84 279 84 320 133 c 128,-1,30
 361 182 361 182 374 264 c 0,31,32
 387 343 387 343 363 392.5 c 128,-1,33
 339 442 339 442 287 442 c 0,34,35
 236 442 236 442 194.5 393.5 c 128,-1,36
 153 345 153 345 140 264 c 0,25,26
EndSplineSet
EndChar

StartChar: uni0123
Encoding: 291 291 229
Width: 536
GlyphClass: 2
Flags: W
LayerCount: 2
Fore
SplineSet
250 624 m 1,0,-1
 367 813 l 1,1,-1
 443 813 l 1,2,-1
 372 624 l 1,3,-1
 250 624 l 1,0,-1
145 279 m 0,4,5
 131 196 131 196 154.5 150.5 c 128,-1,6
 178 105 178 105 226 105 c 0,7,8
 277 105 277 105 314 149.5 c 128,-1,9
 351 194 351 194 365 279 c 0,10,11
 379 361 379 361 356.5 407 c 128,-1,12
 334 453 334 453 285 453 c 0,13,14
 235 453 235 453 196.5 406.5 c 128,-1,15
 158 360 158 360 145 279 c 0,4,5
32 278 m 0,16,17
 53 403 53 403 124 477.5 c 128,-1,18
 195 552 195 552 286 552 c 0,19,20
 334 552 334 552 362 528 c 128,-1,21
 390 504 390 504 398 474 c 1,22,-1
 409 536 l 1,23,-1
 519 536 l 1,24,-1
 442 74 l 2,25,26
 417 -77 417 -77 349 -150 c 128,-1,27
 281 -223 281 -223 165 -223 c 0,28,29
 105 -223 105 -223 57.5 -196 c 128,-1,30
 10 -169 10 -169 -15 -119 c 1,31,-1
 67 -65 l 1,32,33
 107 -128 107 -128 184 -128 c 0,34,35
 234 -128 234 -128 270.5 -89.5 c 128,-1,36
 307 -51 307 -51 320 12 c 0,37,38
 332 68 332 68 333 74 c 1,39,40
 312 44 312 44 275 24.5 c 128,-1,41
 238 5 238 5 201 5 c 0,42,43
 106 5 106 5 58.5 79.5 c 128,-1,44
 11 154 11 154 32 278 c 0,16,17
EndSplineSet
EndChar

StartChar: Hbar
Encoding: 294 294 232
Width: 689
GlyphClass: 2
Flags: W
LayerCount: 2
Fore
SplineSet
52 545 m 1,0,-1
 68 642 l 1,1,-1
 140 642 l 1,2,-1
 155 735 l 1,3,-1
 274 735 l 1,4,-1
 259 642 l 1,5,-1
 551 642 l 1,6,-1
 566 735 l 1,7,-1
 685 735 l 1,8,-1
 669 642 l 1,9,-1
 742 642 l 1,10,-1
 726 545 l 1,11,-1
 653 545 l 1,12,-1
 563 0 l 1,13,-1
 444 0 l 1,14,-1
 498 326 l 1,15,-1
 206 326 l 1,16,-1
 152 0 l 1,17,-1
 34 0 l 1,18,-1
 124 545 l 1,19,-1
 52 545 l 1,0,-1
534 545 m 1,20,-1
 242 545 l 1,21,-1
 223 429 l 1,22,-1
 515 429 l 1,23,-1
 534 545 l 1,20,-1
EndSplineSet
EndChar

StartChar: hbar
Encoding: 295 295 233
Width: 530
GlyphClass: 2
Flags: W
LayerCount: 2
Fore
SplineSet
55 594 m 1,0,-1
 70 683 l 1,1,-1
 132 683 l 1,2,-1
 145 759 l 1,3,-1
 254 759 l 1,4,-1
 241 683 l 1,5,-1
 427 683 l 1,6,-1
 412 594 l 1,7,-1
 227 594 l 1,8,-1
 204 457 l 1,9,-1
 205 457 l 1,10,11
 229 486 229 486 268 507.5 c 128,-1,12
 307 529 307 529 348 529 c 0,13,14
 378 529 378 529 404 519.5 c 128,-1,15
 430 510 430 510 453 488.5 c 128,-1,16
 476 467 476 467 485 424 c 128,-1,17
 494 381 494 381 484 321 c 2,18,-1
 431 0 l 1,19,-1
 320 0 l 1,20,-1
 371 307 l 2,21,22
 391 427 391 427 311 427 c 0,23,24
 263 427 263 427 224 383.5 c 128,-1,25
 185 340 185 340 175 282 c 2,26,-1
 128 0 l 1,27,-1
 19 0 l 1,28,-1
 118 594 l 1,29,-1
 55 594 l 1,0,-1
EndSplineSet
EndChar

StartChar: dotlessi
Encoding: 305 305 243
Width: 238
GlyphClass: 2
Flags: W
LayerCount: 2
Fore
SplineSet
18 0 m 1,0,-1
 106 536 l 1,1,-1
 216 536 l 1,2,-1
 128 0 l 1,3,-1
 18 0 l 1,0,-1
EndSplineSet
EndChar

StartChar: kgreenlandic
Encoding: 312 312 250
Width: 505
GlyphClass: 2
Flags: W
LayerCount: 2
Fore
SplineSet
17 0 m 1,0,-1
 105 536 l 1,1,-1
 214 536 l 1,2,-1
 182 338 l 1,3,-1
 185 338 l 1,4,-1
 412 536 l 1,5,-1
 554 536 l 1,6,-1
 275 294 l 1,7,-1
 468 0 l 1,8,-1
 335 0 l 1,9,-1
 190 209 l 1,10,-1
 155 177 l 1,11,-1
 126 0 l 1,12,-1
 17 0 l 1,0,-1
EndSplineSet
EndChar

StartChar: Lslash
Encoding: 321 321 259
Width: 539
GlyphClass: 2
Flags: W
LayerCount: 2
Fore
SplineSet
214 336 m 1,0,-1
 175 104 l 1,1,-1
 502 104 l 1,2,-1
 484 0 l 1,3,-1
 38 0 l 1,4,-1
 82 261 l 1,5,-1
 -11 207 l 1,6,-1
 -51 296 l 1,7,-1
 102 385 l 1,8,-1
 160 735 l 1,9,-1
 280 735 l 1,10,-1
 234 460 l 1,11,-1
 346 526 l 1,12,-1
 386 437 l 1,13,-1
 214 336 l 1,0,-1
EndSplineSet
EndChar

StartChar: lslash
Encoding: 322 322 260
Width: 255
GlyphClass: 2
Flags: W
LayerCount: 2
Fore
SplineSet
195 352 m 1,0,-1
 137 0 l 1,1,-1
 26 0 l 1,2,-1
 73 282 l 1,3,-1
 -15 231 l 1,4,-1
 -53 322 l 1,5,-1
 93 406 l 1,6,-1
 152 759 l 1,7,-1
 262 759 l 1,8,-1
 216 477 l 1,9,-1
 304 527 l 1,10,-1
 340 437 l 1,11,-1
 195 352 l 1,0,-1
EndSplineSet
EndChar

StartChar: Eng
Encoding: 330 330 268
Width: 684
GlyphClass: 2
Flags: W
LayerCount: 2
Fore
SplineSet
29 0 m 1,0,-1
 150 735 l 1,1,-1
 276 735 l 1,2,-1
 438 306 l 1,3,-1
 482 182 l 1,4,-1
 486 182 l 1,5,6
 488 270 488 270 508 390 c 2,7,-1
 565 735 l 1,8,-1
 684 735 l 1,9,-1
 565 15 l 2,10,11
 546 -99 546 -99 486.5 -157.5 c 128,-1,12
 427 -216 427 -216 342 -216 c 0,13,14
 314 -216 314 -216 242 -205 c 1,15,-1
 258 -103 l 1,16,17
 306 -112 306 -112 333 -112 c 0,18,19
 379 -112 379 -112 402 -86.5 c 128,-1,20
 425 -61 425 -61 438 -2 c 1,21,-1
 272 432 l 1,22,-1
 230 551 l 1,23,-1
 226 551 l 1,24,25
 221 435 221 435 206 351 c 2,26,-1
 148 0 l 1,27,-1
 29 0 l 1,0,-1
EndSplineSet
EndChar

StartChar: eng
Encoding: 331 331 269
Width: 523
GlyphClass: 2
Flags: W
LayerCount: 2
Fore
SplineSet
11 0 m 1,0,-1
 100 536 l 1,1,-1
 206 536 l 1,2,-1
 195 469 l 1,3,-1
 196 469 l 1,4,5
 220 503 220 503 260.5 527.5 c 128,-1,6
 301 552 301 552 351 552 c 0,7,8
 517 552 517 552 482 345 c 2,9,-1
 426 8 l 2,10,11
 416 -55 416 -55 392 -102.5 c 128,-1,12
 368 -150 368 -150 338 -175 c 128,-1,13
 308 -200 308 -200 276.5 -211.5 c 128,-1,14
 245 -223 245 -223 213 -223 c 0,15,16
 196 -223 196 -223 180 -221 c 128,-1,17
 164 -219 164 -219 147 -216 c 128,-1,18
 130 -213 130 -213 126 -212 c 1,19,-1
 143 -111 l 1,20,21
 189 -119 189 -119 212 -119 c 0,22,23
 256 -119 256 -119 280 -91.5 c 128,-1,24
 304 -64 304 -64 314 -7 c 2,25,-1
 369 329 l 2,26,27
 390 453 390 453 310 453 c 0,28,29
 262 453 262 453 222.5 411.5 c 128,-1,30
 183 370 183 370 173 310 c 2,31,-1
 122 0 l 1,32,-1
 11 0 l 1,0,-1
EndSplineSet
EndChar

StartChar: OE
Encoding: 338 338 276
Width: 949
GlyphClass: 2
Flags: W
LayerCount: 2
Fore
SplineSet
49 367 m 256,0,1
 78 541 78 541 182.5 646.5 c 128,-1,2
 287 752 287 752 428 752 c 0,3,4
 490 752 490 752 526 735 c 1,5,-1
 987 735 l 1,6,-1
 970 630 l 1,7,-1
 623 630 l 1,8,-1
 590 431 l 1,9,-1
 903 431 l 1,10,-1
 886 328 l 1,11,-1
 573 328 l 1,12,-1
 536 104 l 1,13,-1
 893 104 l 1,14,-1
 875 0 l 1,15,-1
 406 0 l 1,16,17
 355 -17 355 -17 300 -17 c 0,18,19
 158 -17 158 -17 89 88 c 128,-1,20
 20 193 20 193 49 367 c 256,0,1
173 367 m 0,21,22
 152 239 152 239 191 163 c 128,-1,23
 230 87 230 87 317 87 c 0,24,25
 371 87 371 87 418 121 c 1,26,-1
 499 612 l 1,27,28
 466 647 466 647 410 647 c 0,29,30
 321 647 321 647 257.5 570.5 c 128,-1,31
 194 494 194 494 173 367 c 0,21,22
EndSplineSet
EndChar

StartChar: uni0163
Encoding: 355 355 293
Width: 346
GlyphClass: 2
Flags: W
LayerCount: 2
Fore
SplineSet
41 436 m 1,0,-1
 57 536 l 1,1,-1
 135 536 l 1,2,-1
 161 695 l 1,3,-1
 272 695 l 1,4,-1
 246 536 l 1,5,-1
 361 536 l 1,6,-1
 345 436 l 1,7,-1
 229 436 l 1,8,-1
 186 172 l 2,9,10
 180 134 180 134 191 117 c 128,-1,11
 202 100 202 100 232 100 c 2,12,-1
 290 100 l 1,13,-1
 273 0 l 1,14,-1
 218 0 l 1,15,-1
 205 -31 l 1,16,17
 241 -38 241 -38 257.5 -60.5 c 128,-1,18
 274 -83 274 -83 268 -116 c 0,19,20
 261 -157 261 -157 223 -187 c 128,-1,21
 185 -217 185 -217 111 -217 c 0,22,23
 68 -217 68 -217 31 -207 c 1,24,-1
 43 -135 l 1,25,26
 84 -144 84 -144 121 -144 c 0,27,28
 178 -144 178 -144 183 -109 c 0,29,30
 189 -75 189 -75 91 -71 c 1,31,-1
 125 15 l 1,32,33
 54 49 54 49 74 164 c 2,34,-1
 119 436 l 1,35,-1
 41 436 l 1,0,-1
EndSplineSet
Substitution2: "'locl' Localized Forms in Latin lookup 3 subtable" uni021B
Substitution2: "'locl' Localized Forms in Latin lookup 2 subtable" uni021B
Substitution2: "'aalt' Access All Alternates lookup 0 subtable" uni021B
EndChar

StartChar: tbar
Encoding: 359 359 297
Width: 347
GlyphClass: 2
Flags: W
LayerCount: 2
Fore
SplineSet
41 436 m 1,0,-1
 58 536 l 1,1,-1
 136 536 l 1,2,-1
 162 695 l 1,3,-1
 273 695 l 1,4,-1
 247 536 l 1,5,-1
 362 536 l 1,6,-1
 346 436 l 1,7,-1
 230 436 l 1,8,-1
 218 361 l 1,9,-1
 333 361 l 1,10,-1
 317 264 l 1,11,-1
 201 264 l 1,12,-1
 186 172 l 2,13,14
 180 134 180 134 191.5 117 c 128,-1,15
 203 100 203 100 233 100 c 2,16,-1
 291 100 l 1,17,-1
 275 0 l 1,18,-1
 203 0 l 2,19,20
 47 0 47 0 74 164 c 2,21,-1
 91 264 l 1,22,-1
 1 264 l 1,23,-1
 17 361 l 1,24,-1
 107 361 l 1,25,-1
 119 436 l 1,26,-1
 41 436 l 1,0,-1
EndSplineSet
EndChar

StartChar: longs
Encoding: 383 383 321
Width: 292
GlyphClass: 2
Flags: W
LayerCount: 2
Fore
SplineSet
20 0 m 1,0,-1
 119 594 l 2,1,2
 133 676 133 676 178 717.5 c 128,-1,3
 223 759 223 759 294 759 c 2,4,-1
 372 759 l 1,5,-1
 355 659 l 1,6,-1
 300 659 l 2,7,8
 270 659 270 659 251.5 641 c 128,-1,9
 233 623 233 623 227 582 c 2,10,-1
 130 0 l 1,11,-1
 20 0 l 1,0,-1
EndSplineSet
EndChar

StartChar: uni0180
Encoding: 384 384 322
Width: 550
GlyphClass: 2
Flags: W
LayerCount: 2
Fore
SplineSet
171 265 m 0,0,1
 157 182 157 182 182 133 c 128,-1,2
 207 84 207 84 258 84 c 256,3,4
 309 84 309 84 349.5 131 c 128,-1,5
 390 178 390 178 404 265 c 0,6,7
 418 347 418 347 394 396 c 128,-1,8
 370 445 370 445 318 445 c 0,9,10
 267 445 267 445 225.5 395.5 c 128,-1,11
 184 346 184 346 171 265 c 0,0,1
56 593 m 1,12,-1
 71 684 l 1,13,-1
 133 684 l 1,14,-1
 145 759 l 1,15,-1
 255 759 l 1,16,-1
 243 684 l 1,17,-1
 424 684 l 1,18,-1
 409 593 l 1,19,-1
 227 593 l 1,20,-1
 207 467 l 1,21,22
 231 498 231 498 269 521.5 c 128,-1,23
 307 545 307 545 350 545 c 0,24,25
 445 545 445 545 492 470 c 128,-1,26
 539 395 539 395 518 265 c 0,27,28
 506 191 506 191 476.5 135 c 128,-1,29
 447 79 447 79 409.5 47 c 128,-1,30
 372 15 372 15 333.5 -1 c 128,-1,31
 295 -17 295 -17 258 -17 c 0,32,33
 212 -17 212 -17 180 8.5 c 128,-1,34
 148 34 148 34 138 69 c 1,35,-1
 126 0 l 1,36,-1
 19 0 l 1,37,-1
 117 593 l 1,38,-1
 56 593 l 1,12,-1
EndSplineSet
EndChar

StartChar: uni0182
Encoding: 386 386 324
Width: 635
GlyphClass: 2
Flags: W
LayerCount: 2
Fore
SplineSet
165 104 m 1,0,-1
 331 104 l 2,1,2
 381 104 381 104 419 131.5 c 128,-1,3
 457 159 457 159 466 214 c 0,4,5
 474 261 474 261 448 294.5 c 128,-1,6
 422 328 422 328 366 328 c 2,7,-1
 202 328 l 1,8,-1
 165 104 l 1,0,-1
29 0 m 1,9,-1
 150 735 l 1,10,-1
 593 735 l 1,11,-1
 576 630 l 1,12,-1
 252 630 l 1,13,-1
 219 431 l 1,14,-1
 392 431 l 2,15,16
 504 431 504 431 555.5 369.5 c 128,-1,17
 607 308 607 308 591 214 c 0,18,19
 576 123 576 123 505 61.5 c 128,-1,20
 434 0 434 0 330 0 c 2,21,-1
 29 0 l 1,9,-1
EndSplineSet
EndChar

StartChar: uni0183
Encoding: 387 387 325
Width: 548
GlyphClass: 2
Flags: W
LayerCount: 2
Fore
SplineSet
169 269 m 0,0,1
 155 182 155 182 179 133 c 128,-1,2
 203 84 203 84 256 84 c 0,3,4
 307 84 307 84 347 132 c 128,-1,5
 387 180 387 180 402 269 c 0,6,7
 416 354 416 354 393 403.5 c 128,-1,8
 370 453 370 453 317 453 c 0,9,10
 265 453 265 453 224 402 c 128,-1,11
 183 351 183 351 169 269 c 0,0,1
17 0 m 1,12,-1
 141 752 l 1,13,-1
 506 752 l 1,14,-1
 490 652 l 1,15,-1
 235 652 l 1,16,-1
 205 476 l 1,17,18
 221 501 221 501 260 526.5 c 128,-1,19
 299 552 299 552 349 552 c 0,20,21
 444 552 444 552 490.5 476 c 128,-1,22
 537 400 537 400 516 269 c 0,23,24
 504 195 504 195 475 137.5 c 128,-1,25
 446 80 446 80 409 48 c 128,-1,26
 372 16 372 16 332.5 -0.5 c 128,-1,27
 293 -17 293 -17 255 -17 c 0,28,29
 209 -17 209 -17 177 9 c 128,-1,30
 145 35 145 35 135 69 c 1,31,-1
 124 0 l 1,32,-1
 17 0 l 1,12,-1
EndSplineSet
EndChar

StartChar: uni0184
Encoding: 388 388 326
Width: 645
GlyphClass: 2
Flags: W
LayerCount: 2
Fore
SplineSet
58 663 m 1,0,-1
 209 735 l 1,1,-1
 276 735 l 1,2,-1
 225 429 l 1,3,-1
 401 429 l 2,4,5
 513 429 513 429 564 368 c 128,-1,6
 615 307 615 307 599 214 c 0,7,8
 584 125 584 125 514.5 62.5 c 128,-1,9
 445 0 445 0 342 0 c 2,10,-1
 35 0 l 1,11,-1
 133 594 l 1,12,-1
 58 663 l 1,0,-1
171 104 m 1,13,-1
 339 104 l 2,14,15
 389 104 389 104 428 132 c 128,-1,16
 467 160 467 160 476 214 c 0,17,18
 484 260 484 260 458.5 293 c 128,-1,19
 433 326 433 326 375 326 c 2,20,-1
 208 326 l 1,21,-1
 171 104 l 1,13,-1
EndSplineSet
EndChar

StartChar: uni0185
Encoding: 389 389 327
Width: 551
GlyphClass: 2
Flags: W
LayerCount: 2
Fore
SplineSet
56 685 m 1,0,-1
 195 759 l 1,1,-1
 256 759 l 1,2,-1
 209 477 l 1,3,4
 228 508 228 508 269 530 c 128,-1,5
 310 552 310 552 352 552 c 0,6,7
 448 552 448 552 494.5 476 c 128,-1,8
 541 400 541 400 519 269 c 0,9,10
 496 128 496 128 419.5 55.5 c 128,-1,11
 343 -17 343 -17 259 -17 c 0,12,13
 214 -17 214 -17 182.5 8 c 128,-1,14
 151 33 151 33 139 69 c 1,15,-1
 127 0 l 1,16,-1
 20 0 l 1,17,-1
 122 617 l 1,18,-1
 56 685 l 1,0,-1
173 269 m 0,19,20
 159 182 159 182 183 133 c 128,-1,21
 207 84 207 84 259 84 c 0,22,23
 312 84 312 84 351.5 132.5 c 128,-1,24
 391 181 391 181 405 269 c 0,25,26
 419 352 419 352 397 402.5 c 128,-1,27
 375 453 375 453 320 453 c 0,28,29
 268 453 268 453 227.5 403 c 128,-1,30
 187 353 187 353 173 269 c 0,19,20
EndSplineSet
EndChar

StartChar: uni0186
Encoding: 390 390 328
Width: 645
GlyphClass: 2
Flags: W
LayerCount: 2
Fore
SplineSet
0 176 m 1,0,-1
 114 210 l 1,1,2
 126 160 126 160 164 124 c 128,-1,3
 202 88 202 88 259 88 c 0,4,5
 347 88 347 88 413 164 c 128,-1,6
 479 240 479 240 501 368 c 0,7,8
 522 495 522 495 481.5 571 c 128,-1,9
 441 647 441 647 352 647 c 0,10,11
 258 647 258 647 182 540 c 1,12,-1
 85 574 l 1,13,14
 130 650 130 650 203 701 c 128,-1,15
 276 752 276 752 368 752 c 0,16,17
 509 752 509 752 581 648.5 c 128,-1,18
 653 545 653 545 624 368 c 0,19,20
 594 189 594 189 487 86 c 128,-1,21
 380 -17 380 -17 241 -17 c 0,22,23
 186 -17 186 -17 141 1.5 c 128,-1,24
 96 20 96 20 68.5 50 c 128,-1,25
 41 80 41 80 24.5 111 c 128,-1,26
 8 142 8 142 0 176 c 1,0,-1
EndSplineSet
EndChar

StartChar: uni018B
Encoding: 395 395 333
Width: 635
GlyphClass: 2
Flags: W
LayerCount: 2
Fore
SplineSet
147 214 m 0,0,1
 138 160 138 160 167 132 c 128,-1,2
 196 104 196 104 245 104 c 2,3,-1
 412 104 l 1,4,-1
 449 328 l 1,5,-1
 286 328 l 2,6,7
 230 328 230 328 192.5 294.5 c 128,-1,8
 155 261 155 261 147 214 c 0,0,1
22 214 m 0,9,10
 38 308 38 308 110 369.5 c 128,-1,11
 182 431 182 431 293 431 c 2,12,-1
 466 431 l 1,13,-1
 499 630 l 1,14,-1
 175 630 l 1,15,-1
 193 735 l 1,16,-1
 636 735 l 1,17,-1
 514 0 l 1,18,-1
 211 0 l 2,19,20
 108 0 108 0 57.5 61.5 c 128,-1,21
 7 123 7 123 22 214 c 0,9,10
EndSplineSet
EndChar

StartChar: uni018C
Encoding: 396 396 334
Width: 548
GlyphClass: 2
Flags: W
LayerCount: 2
Fore
SplineSet
141 269 m 0,0,1
 126 179 126 179 151 131.5 c 128,-1,2
 176 84 176 84 228 84 c 256,3,4
 280 84 280 84 320 134 c 128,-1,5
 360 184 360 184 374 269 c 0,6,7
 388 351 388 351 365 402 c 128,-1,8
 342 453 342 453 289 453 c 0,9,10
 235 453 235 453 195 404 c 128,-1,11
 155 355 155 355 141 269 c 0,0,1
28 269 m 0,12,13
 50 400 50 400 123.5 476 c 128,-1,14
 197 552 197 552 290 552 c 0,15,16
 340 552 340 552 370 527 c 128,-1,17
 400 502 400 502 408 477 c 1,18,-1
 438 660 l 1,19,-1
 179 660 l 1,20,-1
 195 759 l 1,21,-1
 564 759 l 1,22,-1
 439 0 l 1,23,-1
 330 0 l 1,24,-1
 342 69 l 1,25,26
 320 35 320 35 280.5 9 c 128,-1,27
 241 -17 241 -17 194 -17 c 0,28,29
 154 -17 154 -17 121 -0.5 c 128,-1,30
 88 16 88 16 61 48.5 c 128,-1,31
 34 81 34 81 25 137.5 c 128,-1,32
 16 194 16 194 28 269 c 0,12,13
EndSplineSet
EndChar

StartChar: uni018D
Encoding: 397 397 335
Width: 572
GlyphClass: 2
Flags: W
LayerCount: 2
Fore
SplineSet
150 321 m 0,0,1
 141 265 141 265 176 219 c 128,-1,2
 211 173 211 173 271 144 c 1,3,4
 336 174 336 174 381 220 c 128,-1,5
 426 266 426 266 435 319 c 0,6,7
 444 376 444 376 414.5 414.5 c 128,-1,8
 385 453 385 453 319 453 c 0,9,10
 252 453 252 453 205.5 415.5 c 128,-1,11
 159 378 159 378 150 321 c 0,0,1
36 317 m 0,12,13
 55 429 55 429 135 490.5 c 128,-1,14
 215 552 215 552 336 552 c 0,15,16
 455 552 455 552 510.5 488.5 c 128,-1,17
 566 425 566 425 549 323 c 0,18,19
 538 258 538 258 488 195.5 c 128,-1,20
 438 133 438 133 357 93 c 1,21,22
 435 36 435 36 421 -47 c 0,23,24
 408 -128 408 -128 342 -172.5 c 128,-1,25
 276 -217 276 -217 182 -217 c 0,26,27
 103 -217 103 -217 52.5 -182 c 128,-1,28
 2 -147 2 -147 -19 -90 c 1,29,-1
 70 -43 l 1,30,31
 85 -73 85 -73 118.5 -95 c 128,-1,32
 152 -117 152 -117 198 -117 c 0,33,34
 243 -117 243 -117 273.5 -98.5 c 128,-1,35
 304 -80 304 -80 309 -50 c 0,36,37
 311 -36 311 -36 303.5 -22 c 128,-1,38
 296 -8 296 -8 274 8 c 128,-1,39
 252 24 252 24 237.5 33.5 c 128,-1,40
 223 43 223 43 188 63 c 0,41,42
 11 165 11 165 36 317 c 0,12,13
EndSplineSet
EndChar

StartChar: uni018E
Encoding: 398 398 336
Width: 582
GlyphClass: 2
Flags: W
LayerCount: 2
Fore
SplineSet
-15 0 m 1,0,-1
 2 104 l 1,1,-1
 360 104 l 1,2,-1
 397 328 l 1,3,-1
 78 328 l 1,4,-1
 95 431 l 1,5,-1
 414 431 l 1,6,-1
 447 630 l 1,7,-1
 88 630 l 1,8,-1
 106 735 l 1,9,-1
 584 735 l 1,10,-1
 462 0 l 1,11,-1
 -15 0 l 1,0,-1
EndSplineSet
EndChar

StartChar: uni018F
Encoding: 399 399 337
Width: 686
GlyphClass: 2
Flags: W
LayerCount: 2
Fore
SplineSet
46 359 m 0,0,1
 52 394 52 394 59 422 c 1,2,-1
 548 422 l 1,3,4
 557 530 557 530 516 588.5 c 128,-1,5
 475 647 475 647 396 647 c 0,6,7
 285 647 285 647 199 543 c 1,8,-1
 104 584 l 1,9,10
 158 666 158 666 238.5 709 c 128,-1,11
 319 752 319 752 415 752 c 0,12,13
 564 752 564 752 629.5 644 c 128,-1,14
 695 536 695 536 667 366 c 0,15,16
 639 195 639 195 533 89 c 128,-1,17
 427 -17 427 -17 289 -17 c 0,18,19
 149 -17 149 -17 83.5 86.5 c 128,-1,20
 18 190 18 190 46 359 c 0,0,1
166 317 m 1,21,22
 164 305 164 305 164 299 c 0,23,24
 157 211 157 211 191 149 c 128,-1,25
 225 87 225 87 307 87 c 0,26,27
 382 87 382 87 445.5 148.5 c 128,-1,28
 509 210 509 210 531 317 c 1,29,-1
 166 317 l 1,21,22
EndSplineSet
EndChar

StartChar: uni0190
Encoding: 400 400 338
Width: 592
GlyphClass: 2
Flags: W
LayerCount: 2
Fore
SplineSet
25 208 m 0,0,1
 37 279 37 279 84.5 324.5 c 128,-1,2
 132 370 132 370 187 387 c 1,3,4
 148 410 148 410 124.5 455.5 c 128,-1,5
 101 501 101 501 110 557 c 0,6,7
 124 644 124 644 198.5 698 c 128,-1,8
 273 752 273 752 376 752 c 0,9,10
 433 752 433 752 476.5 734 c 128,-1,11
 520 716 520 716 544 687.5 c 128,-1,12
 568 659 568 659 580.5 631.5 c 128,-1,13
 593 604 593 604 597 577 c 1,14,-1
 491 545 l 1,15,16
 459 651 459 651 367 651 c 0,17,18
 315 651 315 651 276.5 621 c 128,-1,19
 238 591 238 591 230 545 c 0,20,21
 221 492 221 492 259 460 c 128,-1,22
 297 428 297 428 349 428 c 256,23,24
 401 428 401 428 426 430 c 1,25,-1
 410 330 l 1,26,27
 360 334 360 334 333 334 c 0,28,29
 265 334 265 334 211.5 300 c 128,-1,30
 158 266 158 266 148 209 c 0,31,32
 138 148 138 148 176.5 116 c 128,-1,33
 215 84 215 84 277 84 c 0,34,35
 324 84 324 84 375 113.5 c 128,-1,36
 426 143 426 143 453 184 c 1,37,-1
 544 148 l 1,38,39
 501 71 501 71 424.5 27 c 128,-1,40
 348 -17 348 -17 254 -17 c 0,41,42
 133 -17 133 -17 70.5 44 c 128,-1,43
 8 105 8 105 25 208 c 0,0,1
EndSplineSet
EndChar

StartChar: uni0191
Encoding: 401 401 339
Width: 559
GlyphClass: 2
Flags: W
LayerCount: 2
Fore
SplineSet
-105 -113 m 1,0,1
 -75 -119 -75 -119 -56 -119 c 0,2,3
 -19 -119 -19 -119 4 -92 c 128,-1,4
 27 -65 27 -65 36 -7 c 2,5,-1
 159 735 l 1,6,-1
 618 735 l 1,7,-1
 600 630 l 1,8,-1
 260 630 l 1,9,-1
 225 420 l 1,10,-1
 530 420 l 1,11,-1
 513 317 l 1,12,-1
 208 317 l 1,13,-1
 155 -7 l 2,14,15
 145 -69 145 -69 123 -113 c 128,-1,16
 101 -157 101 -157 71 -180 c 128,-1,17
 41 -203 41 -203 11.5 -213 c 128,-1,18
 -18 -223 -18 -223 -49 -223 c 0,19,20
 -74 -223 -74 -223 -122 -216 c 1,21,-1
 -105 -113 l 1,0,1
EndSplineSet
EndChar

StartChar: florin
Encoding: 402 402 340
Width: 329
GlyphClass: 2
Flags: W
LayerCount: 2
Fore
SplineSet
-87 -113 m 1,0,1
 -59 -119 -59 -119 -38 -119 c 0,2,3
 33 -119 33 -119 52 -6 c 2,4,-1
 125 436 l 1,5,-1
 47 436 l 1,6,-1
 64 536 l 1,7,-1
 141 536 l 1,8,-1
 151 594 l 2,9,10
 165 676 165 676 210.5 717.5 c 128,-1,11
 256 759 256 759 327 759 c 2,12,-1
 408 759 l 1,13,-1
 392 660 l 1,14,-1
 327 660 l 2,15,16
 273 660 273 660 260 585 c 2,17,-1
 252 536 l 1,18,-1
 360 536 l 1,19,-1
 343 436 l 1,20,-1
 236 436 l 1,21,-1
 163 -6 l 2,22,23
 144 -123 144 -123 89 -173 c 128,-1,24
 34 -223 34 -223 -33 -223 c 0,25,26
 -59 -223 -59 -223 -104 -216 c 1,27,-1
 -87 -113 l 1,0,1
EndSplineSet
EndChar

StartChar: uni0194
Encoding: 404 404 342
Width: 623
GlyphClass: 2
Flags: W
LayerCount: 2
Fore
SplineSet
76 735 m 1,0,-1
 204 735 l 1,1,-1
 296 187 l 1,2,-1
 297 187 l 1,3,-1
 569 735 l 1,4,-1
 698 735 l 1,5,-1
 377 129 l 1,6,7
 445 22 445 22 431 -59 c 0,8,9
 419 -130 419 -130 361.5 -176.5 c 128,-1,10
 304 -223 304 -223 228 -223 c 0,11,12
 150 -223 150 -223 106.5 -178.5 c 128,-1,13
 63 -134 63 -134 75 -59 c 0,14,15
 79 -33 79 -33 91.5 -6.5 c 128,-1,16
 104 20 104 20 127.5 50 c 128,-1,17
 151 80 151 80 160.5 90.5 c 128,-1,18
 170 101 170 101 196 129 c 1,19,-1
 76 735 l 1,0,-1
196 -54 m 0,20,21
 191 -85 191 -85 204 -105 c 128,-1,22
 217 -125 217 -125 244 -125 c 256,23,24
 270 -125 270 -125 289 -105 c 128,-1,25
 308 -85 308 -85 314 -53 c 0,26,27
 323 1 323 1 275 68 c 1,28,29
 206 7 206 7 196 -54 c 0,20,21
EndSplineSet
EndChar

StartChar: uni0195
Encoding: 405 405 343
Width: 829
GlyphClass: 2
Flags: W
LayerCount: 2
Fore
SplineSet
17 0 m 1,0,-1
 142 759 l 1,1,-1
 252 759 l 1,2,-1
 206 481 l 1,3,-1
 207 481 l 1,4,5
 233 513 233 513 271 532.5 c 128,-1,6
 309 552 309 552 351 552 c 0,7,8
 383 552 383 552 408.5 542.5 c 128,-1,9
 434 533 434 533 457.5 512 c 128,-1,10
 481 491 481 491 488.5 448 c 128,-1,11
 496 405 496 405 486 345 c 2,12,-1
 461 195 l 2,13,14
 443 84 443 84 540 84 c 0,15,16
 631 84 631 84 650 196 c 2,17,-1
 706 536 l 1,18,-1
 818 536 l 1,19,-1
 759 177 l 2,20,21
 743 79 743 79 677 31 c 128,-1,22
 611 -17 611 -17 524 -17 c 0,23,24
 482 -17 482 -17 449 -8 c 128,-1,25
 416 1 416 1 388.5 21.5 c 128,-1,26
 361 42 361 42 349.5 81 c 128,-1,27
 338 120 338 120 347 174 c 2,28,-1
 373 330 l 2,29,30
 393 453 393 453 315 453 c 0,31,32
 267 453 267 453 227 409 c 128,-1,33
 187 365 187 365 178 307 c 2,34,-1
 127 0 l 1,35,-1
 17 0 l 1,0,-1
EndSplineSet
EndChar

StartChar: uni0196
Encoding: 406 406 344
Width: 344
GlyphClass: 2
Flags: W
LayerCount: 2
Fore
SplineSet
57 164 m 2,0,-1
 151 735 l 1,1,-1
 270 735 l 1,2,-1
 176 169 l 2,3,4
 169 126 169 126 180.5 106.5 c 128,-1,5
 192 87 192 87 225 87 c 0,6,7
 265 87 265 87 301 94 c 1,8,-1
 284 -8 l 1,9,10
 225 -17 225 -17 184 -17 c 0,11,12
 115 -17 115 -17 78 26 c 128,-1,13
 41 69 41 69 57 164 c 2,0,-1
EndSplineSet
EndChar

StartChar: uni0197
Encoding: 407 407 345
Width: 279
GlyphClass: 2
Flags: W
LayerCount: 2
Fore
SplineSet
19 322 m 1,0,-1
 35 417 l 1,1,-1
 102 417 l 1,2,-1
 155 735 l 1,3,-1
 275 735 l 1,4,-1
 222 417 l 1,5,-1
 291 417 l 1,6,-1
 275 322 l 1,7,-1
 206 322 l 1,8,-1
 153 0 l 1,9,-1
 33 0 l 1,10,-1
 87 322 l 1,11,-1
 19 322 l 1,0,-1
EndSplineSet
EndChar

StartChar: uni0198
Encoding: 408 408 346
Width: 634
GlyphClass: 2
Flags: W
LayerCount: 2
Fore
SplineSet
29 0 m 1,0,-1
 150 735 l 1,1,-1
 270 735 l 1,2,-1
 215 402 l 1,3,-1
 217 402 l 1,4,-1
 499 681 l 2,5,6
 571 752 571 752 666 752 c 0,7,8
 719 752 719 752 753 741 c 1,9,-1
 736 636 l 1,10,11
 703 647 703 647 652 647 c 0,12,13
 613 647 613 647 588 623 c 2,14,-1
 371 414 l 1,15,-1
 589 0 l 1,16,-1
 444 0 l 1,17,-1
 282 327 l 1,18,-1
 187 235 l 1,19,-1
 148 0 l 1,20,-1
 29 0 l 1,0,-1
EndSplineSet
EndChar

StartChar: uni0199
Encoding: 409 409 347
Width: 497
GlyphClass: 2
Flags: W
LayerCount: 2
Fore
SplineSet
18 0 m 1,0,-1
 120 617 l 2,1,2
 134 700 134 700 188 743 c 128,-1,3
 242 786 242 786 318 786 c 0,4,5
 337 786 337 786 404 781 c 1,6,-1
 387 678 l 1,7,8
 341 683 341 683 321 683 c 0,9,10
 287 683 287 683 260 659.5 c 128,-1,11
 233 636 233 636 226 595 c 2,12,-1
 181 322 l 1,13,-1
 397 536 l 1,14,-1
 537 536 l 1,15,-1
 312 318 l 1,16,-1
 460 0 l 1,17,-1
 329 0 l 1,18,-1
 227 235 l 1,19,-1
 155 164 l 1,20,-1
 128 0 l 1,21,-1
 18 0 l 1,0,-1
EndSplineSet
EndChar

StartChar: uni019A
Encoding: 410 410 348
Width: 251
GlyphClass: 2
Flags: W
LayerCount: 2
Fore
SplineSet
10 372 m 1,0,-1
 26 468 l 1,1,-1
 101 468 l 1,2,-1
 149 759 l 1,3,-1
 260 759 l 1,4,-1
 212 468 l 1,5,-1
 287 468 l 1,6,-1
 271 372 l 1,7,-1
 196 372 l 1,8,-1
 134 0 l 1,9,-1
 23 0 l 1,10,-1
 85 372 l 1,11,-1
 10 372 l 1,0,-1
EndSplineSet
EndChar

StartChar: uni019B
Encoding: 411 411 349
Width: 491
GlyphClass: 2
Flags: W
LayerCount: 2
Fore
SplineSet
-42 0 m 1,0,-1
 235 523 l 1,1,-1
 231 547 l 1,2,-1
 114 465 l 1,3,-1
 73 538 l 1,4,-1
 201 625 l 1,5,6
 185 656 185 656 136 656 c 2,7,-1
 117 656 l 1,8,-1
 134 755 l 1,9,-1
 171 755 l 2,10,11
 259 755 259 755 298 690 c 1,12,-1
 403 761 l 1,13,-1
 444 689 l 1,14,-1
 329 612 l 1,15,-1
 332 601 l 1,16,-1
 441 0 l 1,17,-1
 319 0 l 1,18,-1
 284 274 l 2,19,20
 273 368 273 368 272 399 c 1,21,-1
 269 399 l 1,22,23
 252 356 252 356 215 274 c 2,24,-1
 82 0 l 1,25,-1
 -42 0 l 1,0,-1
EndSplineSet
EndChar

StartChar: uni019C
Encoding: 412 412 350
Width: 929
GlyphClass: 2
Flags: W
LayerCount: 2
Fore
SplineSet
69 249 m 2,0,-1
 149 735 l 1,1,-1
 268 735 l 1,2,-1
 185 235 l 2,3,4
 160 87 160 87 248 87 c 0,5,6
 302 87 302 87 346 140.5 c 128,-1,7
 390 194 390 194 402 268 c 2,8,-1
 480 735 l 1,9,-1
 600 735 l 1,10,-1
 517 231 l 2,11,12
 504 154 504 154 523.5 120.5 c 128,-1,13
 543 87 543 87 580 87 c 0,14,15
 637 87 637 87 678 137 c 128,-1,16
 719 187 719 187 732 266 c 2,17,-1
 810 735 l 1,18,-1
 929 735 l 1,19,-1
 808 0 l 1,20,-1
 694 0 l 1,21,-1
 706 71 l 1,22,-1
 704 71 l 1,23,24
 676 31 676 31 629 6.5 c 128,-1,25
 582 -18 582 -18 536 -18 c 0,26,27
 420 -18 420 -18 402 87 c 1,28,29
 373 43 373 43 322.5 13 c 128,-1,30
 272 -17 272 -17 204 -17 c 0,31,32
 152 -17 152 -17 119 3 c 128,-1,33
 86 23 86 23 73 61 c 128,-1,34
 60 99 60 99 59.5 144.5 c 128,-1,35
 59 190 59 190 69 249 c 2,0,-1
EndSplineSet
EndChar

StartChar: uni019D
Encoding: 413 413 351
Width: 692
GlyphClass: 2
Flags: W
LayerCount: 2
Fore
SplineSet
159 735 m 1,0,-1
 284 735 l 1,1,-1
 447 306 l 1,2,-1
 490 182 l 1,3,-1
 494 182 l 1,4,5
 505 325 505 325 516 394 c 2,6,-1
 572 735 l 1,7,-1
 693 735 l 1,8,-1
 571 0 l 1,9,-1
 446 0 l 1,10,-1
 283 424 l 1,11,-1
 239 551 l 1,12,-1
 234 551 l 1,13,14
 228 431 228 431 213 339 c 2,15,-1
 157 -1 l 2,16,17
 137 -119 137 -119 78.5 -171 c 128,-1,18
 20 -223 20 -223 -51 -223 c 0,19,20
 -87 -223 -87 -223 -120 -216 c 1,21,-1
 -103 -113 l 1,22,23
 -86 -118 -86 -118 -57 -118 c 0,24,25
 -18 -118 -18 -118 4.5 -89.5 c 128,-1,26
 27 -61 27 -61 37 0 c 2,27,-1
 159 735 l 1,0,-1
EndSplineSet
EndChar

StartChar: uni019E
Encoding: 414 414 352
Width: 534
GlyphClass: 2
Flags: W
LayerCount: 2
Fore
SplineSet
11 0 m 1,0,-1
 100 536 l 1,1,-1
 206 536 l 1,2,-1
 195 470 l 1,3,-1
 197 470 l 1,4,5
 253 552 253 552 351 552 c 0,6,7
 517 552 517 552 482 345 c 2,8,-1
 389 -219 l 1,9,-1
 279 -219 l 1,10,-1
 370 330 l 2,11,12
 390 453 390 453 310 453 c 0,13,14
 262 453 262 453 222.5 411.5 c 128,-1,15
 183 370 183 370 173 310 c 2,16,-1
 122 0 l 1,17,-1
 11 0 l 1,0,-1
EndSplineSet
EndChar

StartChar: uni019F
Encoding: 415 415 353
Width: 689
GlyphClass: 2
Flags: W
LayerCount: 2
Fore
SplineSet
49 367 m 0,0,1
 78 540 78 540 180.5 646 c 128,-1,2
 283 752 283 752 423 752 c 256,3,4
 563 752 563 752 630 646.5 c 128,-1,5
 697 541 697 541 669 367 c 256,6,7
 640 193 640 193 537.5 88 c 128,-1,8
 435 -17 435 -17 295 -17 c 0,9,10
 155 -17 155 -17 87.5 87.5 c 128,-1,11
 20 192 20 192 49 367 c 0,0,1
533 315 m 1,12,-1
 167 315 l 1,13,14
 159 208 159 208 197 148 c 128,-1,15
 235 88 235 88 313 88 c 0,16,17
 389 88 389 88 448 148.5 c 128,-1,18
 507 209 507 209 533 315 c 1,12,-1
182 411 m 1,19,-1
 549 411 l 1,20,21
 557 520 557 520 521 583.5 c 128,-1,22
 485 647 485 647 405 647 c 256,23,24
 326 647 326 647 267.5 584 c 128,-1,25
 209 521 209 521 182 411 c 1,19,-1
EndSplineSet
EndChar

StartChar: uni01A2
Encoding: 418 418 356
Width: 936
GlyphClass: 2
Flags: W
LayerCount: 2
Fore
SplineSet
49 365 m 0,0,1
 78 541 78 541 181 646.5 c 128,-1,2
 284 752 284 752 420 752 c 0,3,4
 457 752 457 752 553 732 c 128,-1,5
 649 712 649 712 706 712 c 0,6,7
 805 712 805 712 936 735 c 1,8,-1
 815 0 l 1,9,-1
 696 0 l 1,10,-1
 798 616 l 1,11,12
 749 607 749 607 688 607 c 0,13,14
 649 607 649 607 597 615 c 1,15,-1
 505 61 l 1,16,17
 411 -17 411 -17 292 -17 c 0,18,19
 156 -17 156 -17 88.5 88 c 128,-1,20
 21 193 21 193 49 365 c 0,0,1
172 365 m 0,21,22
 151 237 151 237 188.5 162 c 128,-1,23
 226 87 226 87 310 87 c 0,24,25
 349 87 349 87 393 110 c 1,26,-1
 479 633 l 1,27,28
 432 648 432 648 403 648 c 0,29,30
 321 648 321 648 257.5 572 c 128,-1,31
 194 496 194 496 172 365 c 0,21,22
EndSplineSet
EndChar

StartChar: uni01A3
Encoding: 419 419 357
Width: 718
GlyphClass: 2
Flags: W
LayerCount: 2
Fore
SplineSet
27 268 m 256,0,1
 49 401 49 401 124.5 476.5 c 128,-1,2
 200 552 200 552 309 552 c 0,3,4
 348 552 348 552 419 537.5 c 128,-1,5
 490 523 490 523 528 523 c 0,6,7
 612 523 612 523 704 542 c 1,8,-1
 614 0 l 1,9,-1
 504 0 l 1,10,-1
 575 427 l 1,11,12
 550 423 550 423 510 423 c 0,13,14
 477 423 477 423 450 427 c 1,15,-1
 389 54 l 1,16,17
 317 -17 317 -17 214 -17 c 0,18,19
 106 -17 106 -17 55.5 59 c 128,-1,20
 5 135 5 135 27 268 c 256,0,1
141 268 m 0,21,22
 126 180 126 180 151.5 132 c 128,-1,23
 177 84 177 84 231 84 c 0,24,25
 254 84 254 84 287 111 c 1,26,-1
 342 445 l 1,27,28
 311 453 311 453 292 453 c 0,29,30
 235 453 235 453 195 403.5 c 128,-1,31
 155 354 155 354 141 268 c 0,21,22
EndSplineSet
EndChar

StartChar: uni01A5
Encoding: 421 421 359
Width: 548
GlyphClass: 2
Flags: W
LayerCount: 2
Fore
SplineSet
170 269 m 0,0,1
 156 183 156 183 179 133.5 c 128,-1,2
 202 84 202 84 256 84 c 0,3,4
 308 84 308 84 348.5 133 c 128,-1,5
 389 182 389 182 403 269 c 0,6,7
 417 352 417 352 394.5 402.5 c 128,-1,8
 372 453 372 453 317 453 c 0,9,10
 264 453 264 453 224 402 c 128,-1,11
 184 351 184 351 170 269 c 0,0,1
-20 -219 m 1,12,-1
 115 596 l 2,13,14
 129 680 129 680 184.5 723.5 c 128,-1,15
 240 767 240 767 313 767 c 0,16,17
 327 767 327 767 396 762 c 1,18,-1
 379 659 l 1,19,20
 341 663 341 663 315 663 c 0,21,22
 279 663 279 663 253 638.5 c 128,-1,23
 227 614 227 614 221 575 c 2,24,-1
 204 471 l 1,25,26
 225 503 225 503 263.5 527.5 c 128,-1,27
 302 552 302 552 349 552 c 0,28,29
 442 552 442 552 490 476 c 128,-1,30
 538 400 538 400 516 269 c 0,31,32
 504 194 504 194 474.5 136.5 c 128,-1,33
 445 79 445 79 407.5 47 c 128,-1,34
 370 15 370 15 330.5 -1 c 128,-1,35
 291 -17 291 -17 254 -17 c 0,36,37
 203 -17 203 -17 174.5 7.5 c 128,-1,38
 146 32 146 32 137 61 c 1,39,-1
 90 -219 l 1,40,-1
 -20 -219 l 1,12,-1
EndSplineSet
EndChar

StartChar: uni01A6
Encoding: 422 422 360
Width: 632
GlyphClass: 2
Flags: W
LayerCount: 2
Fore
SplineSet
195 320 m 1,0,-1
 341 320 l 2,1,2
 462 320 462 320 480 434 c 0,3,4
 497 537 497 537 378 537 c 2,5,-1
 231 537 l 1,6,-1
 195 320 l 1,0,-1
22 0 m 1,7,-1
 144 735 l 1,8,-1
 263 735 l 1,9,-1
 248 641 l 1,10,-1
 416 641 l 2,11,12
 525 641 525 641 572 585 c 128,-1,13
 619 529 619 529 605 444 c 0,14,15
 585 321 585 321 460 262 c 1,16,17
 476 249 476 249 487 236 c 128,-1,18
 498 223 498 223 503 204 c 128,-1,19
 508 185 508 185 509 172.5 c 128,-1,20
 510 160 510 160 512 132 c 0,21,22
 521 8 521 8 559 -85 c 1,23,-1
 426 -85 l 1,24,25
 419 -72 419 -72 414.5 -57 c 128,-1,26
 410 -42 410 -42 406.5 -30.5 c 128,-1,27
 403 -19 403 -19 400 -1.5 c 128,-1,28
 397 16 397 16 395.5 24.5 c 128,-1,29
 394 33 394 33 392 52.5 c 128,-1,30
 390 72 390 72 389 76.5 c 128,-1,31
 388 81 388 81 386.5 102 c 128,-1,32
 385 123 385 123 385 125 c 0,33,34
 380 174 380 174 367 195.5 c 128,-1,35
 354 217 354 217 315 217 c 2,36,-1
 178 217 l 1,37,-1
 142 0 l 1,38,-1
 22 0 l 1,7,-1
EndSplineSet
EndChar

StartChar: uni01A7
Encoding: 423 423 361
Width: 589
GlyphClass: 2
Flags: W
LayerCount: 2
Fore
SplineSet
13 200 m 0,0,1
 20 245 20 245 42.5 281.5 c 128,-1,2
 65 318 65 318 100 342 c 128,-1,3
 135 366 135 366 169 381.5 c 128,-1,4
 203 397 203 397 248 412 c 0,5,6
 357 446 357 446 387 461 c 0,7,8
 455 495 455 495 464 550 c 0,9,10
 471 594 471 594 441.5 620.5 c 128,-1,11
 412 647 412 647 353 647 c 0,12,13
 259 647 259 647 182 561 c 1,14,-1
 87 596 l 1,15,16
 130 663 130 663 203 707.5 c 128,-1,17
 276 752 276 752 369 752 c 0,18,19
 482 752 482 752 543 696 c 128,-1,20
 604 640 604 640 589 549 c 0,21,22
 584 519 584 519 572.5 493.5 c 128,-1,23
 561 468 561 468 548 450.5 c 128,-1,24
 535 433 535 433 510.5 415.5 c 128,-1,25
 486 398 486 398 471.5 388.5 c 128,-1,26
 457 379 457 379 424.5 366 c 128,-1,27
 392 353 392 353 378 348.5 c 128,-1,28
 364 344 364 344 328 333 c 0,29,30
 317 329 317 329 311 327 c 0,31,32
 273 314 273 314 249 304.5 c 128,-1,33
 225 295 225 295 198 279.5 c 128,-1,34
 171 264 171 264 156.5 243 c 128,-1,35
 142 222 142 222 137 195 c 0,36,37
 129 148 129 148 161.5 117.5 c 128,-1,38
 194 87 194 87 253 87 c 0,39,40
 306 87 306 87 361 117.5 c 128,-1,41
 416 148 416 148 449 192 c 1,42,-1
 547 155 l 1,43,44
 499 77 499 77 416.5 30 c 128,-1,45
 334 -17 334 -17 238 -17 c 0,46,47
 123 -17 123 -17 59.5 40.5 c 128,-1,48
 -4 98 -4 98 13 200 c 0,0,1
EndSplineSet
EndChar

StartChar: uni01A8
Encoding: 424 424 362
Width: 460
GlyphClass: 2
Flags: W
LayerCount: 2
Fore
SplineSet
3 145 m 0,0,1
 8 178 8 178 26.5 204.5 c 128,-1,2
 45 231 45 231 73 250 c 128,-1,3
 101 269 101 269 126.5 280.5 c 128,-1,4
 152 292 152 292 186 303 c 0,5,6
 269 329 269 329 292 346 c 0,7,8
 320 365 320 365 324 392 c 0,9,10
 329 421 329 421 310 437 c 128,-1,11
 291 453 291 453 254 453 c 0,12,13
 183 453 183 453 120 381 c 1,14,-1
 53 429 l 1,15,16
 88 482 88 482 147 517 c 128,-1,17
 206 552 206 552 273 552 c 0,18,19
 354 552 354 552 401.5 509 c 128,-1,20
 449 466 449 466 437 391 c 0,21,22
 432 358 432 358 415 332 c 128,-1,23
 398 306 398 306 371.5 287.5 c 128,-1,24
 345 269 345 269 321 258.5 c 128,-1,25
 297 248 297 248 264 237 c 0,26,27
 257 235 257 235 241.5 230 c 128,-1,28
 226 225 226 225 218.5 222.5 c 128,-1,29
 211 220 211 220 198 215 c 128,-1,30
 185 210 185 210 177.5 206.5 c 128,-1,31
 170 203 170 203 160 197.5 c 128,-1,32
 150 192 150 192 143.5 187 c 128,-1,33
 137 182 137 182 131 175.5 c 128,-1,34
 125 169 125 169 121.5 161 c 128,-1,35
 118 153 118 153 117 145 c 0,36,37
 112 116 112 116 131.5 99.5 c 128,-1,38
 151 83 151 83 190 83 c 0,39,40
 271 83 271 83 339 161 c 1,41,-1
 411 112 l 1,42,43
 372 56 372 56 309 19.5 c 128,-1,44
 246 -17 246 -17 174 -17 c 0,45,46
 78 -17 78 -17 35 30 c 128,-1,47
 -8 77 -8 77 3 145 c 0,0,1
EndSplineSet
EndChar

StartChar: uni01A9
Encoding: 425 425 363
Width: 598
GlyphClass: 2
Flags: W
LayerCount: 2
Fore
SplineSet
20 0 m 1,0,-1
 34 80 l 1,1,-1
 336 369 l 1,2,-1
 129 655 l 1,3,-1
 142 735 l 1,4,-1
 624 735 l 1,5,-1
 607 629 l 1,6,-1
 293 629 l 1,7,-1
 472 369 l 1,8,-1
 206 104 l 1,9,-1
 526 104 l 1,10,-1
 508 0 l 1,11,-1
 20 0 l 1,0,-1
EndSplineSet
EndChar

StartChar: uni01AA
Encoding: 426 426 364
Width: 422
GlyphClass: 2
Flags: W
LayerCount: 2
Fore
SplineSet
102 597 m 0,0,1
 97 569 97 569 112 553 c 128,-1,2
 127 537 127 537 150 537 c 0,3,4
 190 537 190 537 218 561 c 1,5,6
 225 604 225 604 214.5 631 c 128,-1,7
 204 658 204 658 171 658 c 0,8,9
 146 658 146 658 126 640.5 c 128,-1,10
 106 623 106 623 102 597 c 0,0,1
-3 593 m 0,11,12
 9 664 9 664 62 708 c 128,-1,13
 115 752 115 752 189 752 c 0,14,15
 271 752 271 752 305.5 699.5 c 128,-1,16
 340 647 340 647 325 553 c 2,17,-1
 227 -40 l 2,18,19
 214 -119 214 -119 278 -119 c 0,20,21
 304 -119 304 -119 347 -112 c 1,22,-1
 330 -214 l 1,23,24
 249 -223 249 -223 239 -223 c 0,25,26
 172 -223 172 -223 135.5 -181 c 128,-1,27
 99 -139 99 -139 115 -47 c 2,28,-1
 199 464 l 1,29,30
 171 441 171 441 118 441 c 0,31,32
 56 441 56 441 21 484 c 128,-1,33
 -14 527 -14 527 -3 593 c 0,11,12
EndSplineSet
EndChar

StartChar: uni01AB
Encoding: 427 427 365
Width: 345
GlyphClass: 2
Flags: W
LayerCount: 2
Fore
SplineSet
41 436 m 1,0,-1
 57 536 l 1,1,-1
 135 536 l 1,2,-1
 161 695 l 1,3,-1
 272 695 l 1,4,-1
 246 536 l 1,5,-1
 361 536 l 1,6,-1
 344 436 l 1,7,-1
 229 436 l 1,8,-1
 186 172 l 2,9,10
 180 134 180 134 191 117 c 128,-1,11
 202 100 202 100 232 100 c 0,12,13
 264 100 264 100 300 106 c 1,14,-1
 284 6 l 2,15,16
 265 -107 265 -107 212 -165 c 128,-1,17
 159 -223 159 -223 80 -223 c 0,18,19
 41 -223 41 -223 10 -216 c 1,20,-1
 27 -112 l 1,21,22
 62 -119 62 -119 84 -119 c 0,23,24
 116 -119 116 -119 140.5 -94 c 128,-1,25
 165 -69 165 -69 174 -14 c 2,26,-1
 177 4 l 1,27,28
 146 8 146 8 132 14 c 0,29,30
 54 45 54 45 74 164 c 2,31,-1
 119 436 l 1,32,-1
 41 436 l 1,0,-1
EndSplineSet
EndChar

StartChar: uni01AC
Encoding: 428 428 366
Width: 608
GlyphClass: 2
Flags: W
LayerCount: 2
Fore
SplineSet
16 570 m 0,0,1
 30 655 30 655 92 695 c 128,-1,2
 154 735 154 735 241 735 c 2,3,-1
 675 735 l 1,4,-1
 657 630 l 1,5,-1
 451 630 l 1,6,-1
 346 0 l 1,7,-1
 226 0 l 1,8,-1
 330 630 l 1,9,-1
 224 630 l 2,10,11
 179 630 179 630 152.5 611.5 c 128,-1,12
 126 593 126 593 121 561 c 0,13,14
 117 534 117 534 118 513 c 1,15,-1
 13 513 l 1,16,17
 11 537 11 537 16 570 c 0,0,1
EndSplineSet
EndChar

StartChar: uni01AD
Encoding: 429 429 367
Width: 347
GlyphClass: 2
Flags: W
LayerCount: 2
Fore
SplineSet
41 436 m 1,0,-1
 57 536 l 1,1,-1
 135 536 l 1,2,-1
 144 592 l 2,3,4
 158 675 158 675 213.5 718.5 c 128,-1,5
 269 762 269 762 345 762 c 0,6,7
 362 762 362 762 429 757 c 1,8,-1
 412 654 l 1,9,10
 376 658 376 658 347 658 c 0,11,12
 310 658 310 658 284.5 635.5 c 128,-1,13
 259 613 259 613 253 576 c 2,14,-1
 246 536 l 1,15,-1
 362 536 l 1,16,-1
 345 436 l 1,17,-1
 229 436 l 1,18,-1
 186 172 l 2,19,20
 180 134 180 134 191 117 c 128,-1,21
 202 100 202 100 233 100 c 2,22,-1
 291 100 l 1,23,-1
 274 0 l 1,24,-1
 202 0 l 2,25,26
 46 0 46 0 74 164 c 2,27,-1
 119 436 l 1,28,-1
 41 436 l 1,0,-1
EndSplineSet
EndChar

StartChar: uni01AE
Encoding: 430 430 368
Width: 552
GlyphClass: 2
Flags: W
LayerCount: 2
Fore
SplineSet
66 630 m 1,0,-1
 84 735 l 1,1,-1
 620 735 l 1,2,-1
 602 630 l 1,3,-1
 395 630 l 1,4,-1
 288 -14 l 2,5,6
 279 -69 279 -69 292 -94 c 128,-1,7
 305 -119 305 -119 342 -119 c 0,8,9
 362 -119 362 -119 393 -113 c 1,10,-1
 376 -216 l 1,11,12
 327 -223 327 -223 302 -223 c 0,13,14
 271 -223 271 -223 245 -213.5 c 128,-1,15
 219 -204 219 -204 197 -182.5 c 128,-1,16
 175 -161 175 -161 166.5 -117.5 c 128,-1,17
 158 -74 158 -74 168 -14 c 2,18,-1
 274 630 l 1,19,-1
 66 630 l 1,0,-1
EndSplineSet
EndChar

StartChar: uni01B1
Encoding: 433 433 371
Width: 713
GlyphClass: 2
Flags: W
LayerCount: 2
Fore
SplineSet
39 307 m 0,0,1
 56 411 56 411 120 485 c 128,-1,2
 184 559 184 559 282 595 c 1,3,-1
 288 630 l 1,4,-1
 105 630 l 1,5,-1
 122 735 l 1,6,-1
 394 735 l 1,7,-1
 360 527 l 1,8,9
 277 505 277 505 228 445 c 128,-1,10
 179 385 179 385 166 307 c 0,11,12
 151 216 151 216 193.5 153 c 128,-1,13
 236 90 236 90 325 90 c 0,14,15
 413 90 413 90 478 153 c 128,-1,16
 543 216 543 216 558 307 c 0,17,18
 570 382 570 382 541.5 443 c 128,-1,19
 513 504 513 504 435 527 c 1,20,-1
 470 735 l 1,21,-1
 742 735 l 1,22,-1
 725 630 l 1,23,-1
 542 630 l 1,24,-1
 536 595 l 1,25,26
 622 560 622 560 661 485.5 c 128,-1,27
 700 411 700 411 683 307 c 0,28,29
 660 166 660 166 558 74.5 c 128,-1,30
 456 -17 456 -17 307 -17 c 0,31,32
 159 -17 159 -17 87.5 74.5 c 128,-1,33
 16 166 16 166 39 307 c 0,0,1
EndSplineSet
EndChar

StartChar: uni01B2
Encoding: 434 434 372
Width: 692
GlyphClass: 2
Flags: W
LayerCount: 2
Fore
SplineSet
69 259 m 2,0,-1
 147 735 l 1,1,-1
 268 735 l 1,2,-1
 191 270 l 2,3,4
 174 167 174 167 199.5 127 c 128,-1,5
 225 87 225 87 290 87 c 0,6,7
 373 87 373 87 452 180.5 c 128,-1,8
 531 274 531 274 554 417 c 0,9,10
 573 532 573 532 554 589.5 c 128,-1,11
 535 647 535 647 486 647 c 0,12,13
 450 647 450 647 406 634 c 1,14,-1
 424 742 l 1,15,16
 476 752 476 752 520 752 c 0,17,18
 624 752 624 752 665 666.5 c 128,-1,19
 706 581 706 581 679 419 c 0,20,21
 660 304 660 304 605 206 c 128,-1,22
 550 108 550 108 462 45.5 c 128,-1,23
 374 -17 374 -17 273 -17 c 0,24,25
 144 -17 144 -17 95 50.5 c 128,-1,26
 46 118 46 118 69 259 c 2,0,-1
EndSplineSet
EndChar

StartChar: uni01B3
Encoding: 435 435 373
Width: 616
GlyphClass: 2
Flags: W
LayerCount: 2
Fore
SplineSet
73 735 m 1,0,-1
 210 735 l 1,1,-1
 288 508 l 2,2,3
 305 461 305 461 324 394 c 1,4,-1
 328 394 l 1,5,6
 360 446 360 446 404 509 c 2,7,-1
 496 646 l 2,8,9
 565 752 565 752 656 752 c 0,10,11
 684 752 684 752 720 747 c 1,12,-1
 703 644 l 1,13,14
 689 648 689 648 653 648 c 0,15,16
 629 648 629 648 580 581 c 2,17,-1
 370 298 l 1,18,-1
 321 0 l 1,19,-1
 201 0 l 1,20,-1
 250 298 l 1,21,-1
 73 735 l 1,0,-1
EndSplineSet
EndChar

StartChar: uni01B4
Encoding: 436 436 374
Width: 493
GlyphClass: 2
Flags: W
LayerCount: 2
Fore
SplineSet
48 536 m 1,0,-1
 171 536 l 1,1,-1
 212 261 l 2,2,3
 221 180 221 180 225 136 c 1,4,-1
 228 136 l 1,5,6
 237 159 237 159 283 260 c 2,7,-1
 374 460 l 2,8,9
 412 548 412 548 516 548 c 0,10,11
 532 548 532 548 583 541 c 1,12,-1
 565 436 l 1,13,14
 538 444 538 444 521 444 c 0,15,16
 481 444 481 444 463 408 c 2,17,-1
 223 -62 l 2,18,19
 181 -146 181 -146 129.5 -182.5 c 128,-1,20
 78 -219 78 -219 12 -219 c 2,21,-1
 -25 -219 l 1,22,-1
 -8 -121 l 1,23,-1
 11 -121 l 2,24,25
 50 -121 50 -121 79 -100.5 c 128,-1,26
 108 -80 108 -80 130 -31 c 2,27,-1
 152 13 l 1,28,-1
 48 536 l 1,0,-1
EndSplineSet
EndChar

StartChar: uni01B5
Encoding: 437 437 375
Width: 586
GlyphClass: 2
Flags: W
LayerCount: 2
Fore
SplineSet
89 314 m 1,0,-1
 105 411 l 1,1,-1
 273 411 l 1,2,-1
 460 630 l 1,3,-1
 116 630 l 1,4,-1
 133 735 l 1,5,-1
 625 735 l 1,6,-1
 610 644 l 1,7,-1
 411 411 l 1,8,-1
 510 411 l 1,9,-1
 494 314 l 1,10,-1
 326 314 l 1,11,-1
 147 104 l 1,12,-1
 530 104 l 1,13,-1
 513 0 l 1,14,-1
 -18 0 l 1,15,-1
 -3 88 l 1,16,-1
 189 314 l 1,17,-1
 89 314 l 1,0,-1
EndSplineSet
EndChar

StartChar: uni01B6
Encoding: 438 438 376
Width: 462
GlyphClass: 2
Flags: W
LayerCount: 2
Fore
SplineSet
-25 0 m 1,0,-1
 -12 78 l 1,1,-1
 120 225 l 1,2,-1
 47 225 l 1,3,-1
 63 321 l 1,4,-1
 208 321 l 1,5,-1
 310 436 l 1,6,-1
 68 436 l 1,7,-1
 84 536 l 1,8,-1
 472 536 l 1,9,-1
 460 463 l 1,10,-1
 334 321 l 1,11,-1
 407 321 l 1,12,-1
 391 225 l 1,13,-1
 246 225 l 1,14,-1
 136 100 l 1,15,-1
 411 100 l 1,16,-1
 395 0 l 1,17,-1
 -25 0 l 1,0,-1
EndSplineSet
EndChar

StartChar: uni01B7
Encoding: 439 439 377
Width: 676
GlyphClass: 2
Flags: W
LayerCount: 2
Fore
SplineSet
-6 -8 m 1,0,-1
 103 33 l 1,1,2
 112 -27 112 -27 152 -70.5 c 128,-1,3
 192 -114 192 -114 263 -114 c 0,4,5
 347 -114 347 -114 406.5 -58.5 c 128,-1,6
 466 -3 466 -3 481 88 c 0,7,8
 496 180 496 180 448 236 c 128,-1,9
 400 292 400 292 300 292 c 2,10,-1
 201 292 l 1,11,-1
 217 387 l 1,12,-1
 469 630 l 1,13,-1
 131 630 l 1,14,-1
 148 735 l 1,15,-1
 667 735 l 1,16,-1
 656 664 l 1,17,-1
 370 393 l 1,18,-1
 383 392 l 1,19,20
 503 375 503 375 564 295 c 128,-1,21
 625 215 625 215 604 88 c 0,22,23
 582 -47 582 -47 482.5 -132.5 c 128,-1,24
 383 -218 383 -218 250 -218 c 0,25,26
 188 -218 188 -218 139.5 -200 c 128,-1,27
 91 -182 91 -182 62 -151 c 128,-1,28
 33 -120 33 -120 16.5 -84.5 c 128,-1,29
 0 -49 0 -49 -6 -8 c 1,0,-1
EndSplineSet
EndChar

StartChar: uni01B8
Encoding: 440 440 378
Width: 676
GlyphClass: 2
Flags: W
LayerCount: 2
Fore
SplineSet
8 88 m 0,0,1
 29 215 29 215 119 297 c 128,-1,2
 209 379 209 379 329 392 c 1,3,-1
 343 393 l 1,4,-1
 148 664 l 1,5,-1
 160 735 l 1,6,-1
 678 735 l 1,7,-1
 661 630 l 1,8,-1
 323 630 l 1,9,-1
 494 387 l 1,10,-1
 478 292 l 1,11,-1
 380 292 l 2,12,13
 280 292 280 292 213 236 c 128,-1,14
 146 180 146 180 131 88 c 0,15,16
 116 -3 116 -3 157 -58.5 c 128,-1,17
 198 -114 198 -114 282 -114 c 0,18,19
 354 -114 354 -114 408 -70.5 c 128,-1,20
 462 -27 462 -27 489 33 c 1,21,-1
 587 -8 l 1,22,23
 567 -49 567 -49 538.5 -84.5 c 128,-1,24
 510 -120 510 -120 470.5 -151 c 128,-1,25
 431 -182 431 -182 376.5 -200 c 128,-1,26
 322 -218 322 -218 261 -218 c 0,27,28
 127 -218 127 -218 56.5 -132.5 c 128,-1,29
 -14 -47 -14 -47 8 88 c 0,0,1
EndSplineSet
EndChar

StartChar: uni01B9
Encoding: 441 441 379
Width: 545
GlyphClass: 2
Flags: W
LayerCount: 2
Fore
SplineSet
-6 27 m 0,0,1
 9 119 9 119 78 187.5 c 128,-1,2
 147 256 147 256 236 264 c 1,3,-1
 248 264 l 1,4,-1
 97 464 l 1,5,-1
 109 536 l 1,6,-1
 523 536 l 1,7,-1
 507 436 l 1,8,-1
 257 436 l 1,9,-1
 386 257 l 1,10,-1
 373 177 l 1,11,-1
 285 177 l 2,12,13
 211 177 211 177 164.5 134.5 c 128,-1,14
 118 92 118 92 108 27 c 0,15,16
 97 -37 97 -37 125 -80 c 128,-1,17
 153 -123 153 -123 213 -123 c 0,18,19
 264 -123 264 -123 303.5 -88.5 c 128,-1,20
 343 -54 343 -54 365 -5 c 1,21,-1
 459 -33 l 1,22,23
 424 -114 424 -114 355 -168.5 c 128,-1,24
 286 -223 286 -223 193 -223 c 0,25,26
 84 -223 84 -223 30 -151.5 c 128,-1,27
 -24 -80 -24 -80 -6 27 c 0,0,1
EndSplineSet
EndChar

StartChar: uni01BA
Encoding: 442 442 380
Width: 420
GlyphClass: 2
Flags: W
LayerCount: 2
Fore
SplineSet
-24 -61 m 0,0,1
 -18 -23 -18 -23 11 9.5 c 128,-1,2
 40 42 40 42 77.5 63.5 c 128,-1,3
 115 85 115 85 152.5 105 c 128,-1,4
 190 125 190 125 217 144.5 c 128,-1,5
 244 164 244 164 248 184 c 0,6,7
 252 209 252 209 222 225 c 128,-1,8
 192 241 192 241 136 241 c 2,9,-1
 103 241 l 1,10,-1
 113 302 l 1,11,-1
 270 436 l 1,12,-1
 62 436 l 1,13,-1
 78 536 l 1,14,-1
 430 536 l 1,15,-1
 417 458 l 1,16,-1
 239 308 l 1,17,-1
 257 306 l 2,18,19
 309 302 309 302 339.5 273.5 c 128,-1,20
 370 245 370 245 361 190 c 0,21,22
 355 152 355 152 326 120.5 c 128,-1,23
 297 89 297 89 259.5 67 c 128,-1,24
 222 45 222 45 185 26 c 128,-1,25
 148 7 148 7 121 -13 c 128,-1,26
 94 -33 94 -33 91 -53 c 0,27,28
 83 -102 83 -102 149 -102 c 0,29,30
 187 -102 187 -102 254 -88 c 1,31,-1
 238 -190 l 1,32,33
 164 -203 164 -203 115 -203 c 0,34,35
 43 -203 43 -203 4 -165.5 c 128,-1,36
 -35 -128 -35 -128 -24 -61 c 0,0,1
EndSplineSet
EndChar

StartChar: uni01BB
Encoding: 443 443 381
Width: 537
GlyphClass: 2
Flags: W
LayerCount: 2
Fore
SplineSet
97 306 m 1,0,-1
 113 402 l 1,1,-1
 320 402 l 1,2,3
 392 468 392 468 405 543 c 0,4,5
 414 596 414 596 389.5 623.5 c 128,-1,6
 365 651 365 651 326 651 c 0,7,8
 324 651 324 651 323 651 c 0,9,10
 233 650 233 650 178 523 c 1,11,-1
 82 554 l 1,12,13
 115 642 115 642 181.5 697 c 128,-1,14
 248 752 248 752 344 752 c 0,15,16
 441 752 441 752 492.5 694.5 c 128,-1,17
 544 637 544 637 527 538 c 0,18,19
 515 468 515 468 461 402 c 1,20,-1
 535 402 l 1,21,-1
 519 306 l 1,22,-1
 363 306 l 1,23,24
 354 298 354 298 330.5 278 c 128,-1,25
 307 258 307 258 297.5 250 c 128,-1,26
 288 242 288 242 268 224 c 128,-1,27
 248 206 248 206 237.5 195 c 128,-1,28
 227 184 227 184 211.5 167.5 c 128,-1,29
 196 151 196 151 183.5 134.5 c 128,-1,30
 171 118 171 118 160 100 c 1,31,-1
 452 100 l 1,32,-1
 435 0 l 1,33,-1
 -3 0 l 1,34,35
 10 80 10 80 65.5 152.5 c 128,-1,36
 121 225 121 225 211 306 c 1,37,-1
 97 306 l 1,0,-1
EndSplineSet
EndChar

StartChar: uni01BC
Encoding: 444 444 382
Width: 571
GlyphClass: 2
Flags: W
LayerCount: 2
Fore
SplineSet
16 136 m 1,0,-1
 119 172 l 1,1,2
 130 131 130 131 160.5 107.5 c 128,-1,3
 191 84 191 84 239 84 c 0,4,5
 298 84 298 84 339.5 122.5 c 128,-1,6
 381 161 381 161 392 225 c 0,7,8
 401 282 401 282 367 324 c 128,-1,9
 333 366 333 366 253 366 c 0,10,11
 190 366 190 366 121 350 c 1,12,-1
 203 631 l 1,13,-1
 158 631 l 1,14,-1
 175 735 l 1,15,-1
 566 735 l 1,16,-1
 548 630 l 1,17,-1
 315 630 l 1,18,-1
 266 465 l 1,19,20
 283 467 283 467 315 467 c 0,21,22
 423 467 423 467 479 400 c 128,-1,23
 535 333 535 333 518 228 c 0,24,25
 510 180 510 180 487.5 137.5 c 128,-1,26
 465 95 465 95 430 60 c 128,-1,27
 395 25 395 25 342.5 4 c 128,-1,28
 290 -17 290 -17 227 -17 c 0,29,30
 139 -17 139 -17 84.5 26.5 c 128,-1,31
 30 70 30 70 16 136 c 1,0,-1
EndSplineSet
EndChar

StartChar: uni01BD
Encoding: 445 445 383
Width: 452
GlyphClass: 2
Flags: W
LayerCount: 2
Fore
SplineSet
9 108 m 1,0,-1
 105 149 l 1,1,2
 112 119 112 119 133 101 c 128,-1,3
 154 83 154 83 183 83 c 0,4,5
 221 83 221 83 248 106 c 128,-1,6
 275 129 275 129 281 166 c 0,7,8
 287 202 287 202 263.5 229 c 128,-1,9
 240 256 240 256 191 256 c 0,10,11
 147 256 147 256 84 245 c 1,12,-1
 142 437 l 1,13,-1
 110 437 l 1,14,-1
 127 536 l 1,15,-1
 420 536 l 1,16,-1
 404 436 l 1,17,-1
 240 436 l 1,18,-1
 214 356 l 1,19,-1
 236 357 l 2,20,21
 320 357 320 357 364 304 c 128,-1,22
 408 251 408 251 395 172 c 0,23,24
 382 95 382 95 323 39 c 128,-1,25
 264 -17 264 -17 165 -17 c 0,26,27
 45 -17 45 -17 9 108 c 1,0,-1
EndSplineSet
EndChar

StartChar: uni01BE
Encoding: 446 446 384
Width: 417
GlyphClass: 2
Flags: W
LayerCount: 2
Fore
SplineSet
46 436 m 1,0,-1
 63 536 l 1,1,-1
 135 536 l 1,2,-1
 161 692 l 1,3,-1
 271 692 l 1,4,-1
 245 536 l 1,5,-1
 357 536 l 1,6,-1
 341 436 l 1,7,-1
 228 436 l 1,8,-1
 223 402 l 2,9,10
 218 370 218 370 232 346 c 128,-1,11
 246 322 246 322 269.5 306 c 128,-1,12
 293 290 293 290 317 271.5 c 128,-1,13
 341 253 341 253 354 221.5 c 128,-1,14
 367 190 367 190 360 147 c 0,15,16
 349 80 349 80 299 31.5 c 128,-1,17
 249 -17 249 -17 158 -17 c 0,18,19
 41 -17 41 -17 -1 100 c 1,20,-1
 85 146 l 1,21,22
 114 84 114 84 171 84 c 0,23,24
 203 84 203 84 224 100.5 c 128,-1,25
 245 117 245 117 249 143 c 0,26,27
 253 167 253 167 237.5 185 c 128,-1,28
 222 203 222 203 198.5 218.5 c 128,-1,29
 175 234 175 234 151.5 253 c 128,-1,30
 128 272 128 272 115.5 307.5 c 128,-1,31
 103 343 103 343 111 391 c 2,32,-1
 118 436 l 1,33,-1
 46 436 l 1,0,-1
EndSplineSet
EndChar

StartChar: uni01BF
Encoding: 447 447 385
Width: 540
GlyphClass: 2
Flags: W
LayerCount: 2
Fore
SplineSet
-20 -219 m 1,0,-1
 105 536 l 1,1,-1
 213 536 l 1,2,-1
 205 493 l 1,3,4
 268 552 268 552 354 552 c 0,5,6
 452 552 452 552 494 493 c 128,-1,7
 536 434 536 434 520 338 c 0,8,9
 473 57 473 57 127 2 c 1,10,-1
 90 -219 l 1,11,-1
 -20 -219 l 1,0,-1
143 98 m 1,12,13
 240 113 240 113 315 171 c 128,-1,14
 390 229 390 229 405 324 c 0,15,16
 416 389 416 389 392.5 421 c 128,-1,17
 369 453 369 453 324 453 c 0,18,19
 286 453 286 453 248.5 431.5 c 128,-1,20
 211 410 211 410 189 379 c 1,21,-1
 143 98 l 1,12,13
EndSplineSet
EndChar

StartChar: uni01C0
Encoding: 448 448 386
Width: 242
GlyphClass: 2
Flags: W
LayerCount: 2
Fore
SplineSet
-11 -202 m 1,0,-1
 157 814 l 1,1,-1
 262 814 l 1,2,-1
 94 -202 l 1,3,-1
 -11 -202 l 1,0,-1
EndSplineSet
EndChar

StartChar: uni01C1
Encoding: 449 449 387
Width: 432
GlyphClass: 2
Flags: W
LayerCount: 2
Fore
SplineSet
-11 -202 m 1,0,-1
 157 814 l 1,1,-1
 262 814 l 1,2,-1
 94 -202 l 1,3,-1
 -11 -202 l 1,0,-1
178 -202 m 1,4,-1
 346 814 l 1,5,-1
 451 814 l 1,6,-1
 283 -202 l 1,7,-1
 178 -202 l 1,4,-1
EndSplineSet
EndChar

StartChar: uni01C2
Encoding: 450 450 388
Width: 345
GlyphClass: 2
Flags: W
LayerCount: 2
Fore
SplineSet
35 412 m 1,0,-1
 48 493 l 1,1,-1
 156 493 l 1,2,-1
 209 814 l 1,3,-1
 315 814 l 1,4,-1
 262 493 l 1,5,-1
 368 493 l 1,6,-1
 354 412 l 1,7,-1
 248 412 l 1,8,-1
 227 281 l 1,9,-1
 333 281 l 1,10,-1
 319 198 l 1,11,-1
 213 198 l 1,12,-1
 147 -202 l 1,13,-1
 41 -202 l 1,14,-1
 107 198 l 1,15,-1
 -1 198 l 1,16,-1
 13 281 l 1,17,-1
 121 281 l 1,18,-1
 143 412 l 1,19,-1
 35 412 l 1,0,-1
EndSplineSet
EndChar

StartChar: uni01DD
Encoding: 477 477 415
Width: 525
GlyphClass: 2
Flags: W
LayerCount: 2
Fore
SplineSet
26 261 m 0,0,1
 31 294 31 294 35 308 c 1,2,-1
 387 308 l 1,3,4
 397 370 397 370 370 413.5 c 128,-1,5
 343 457 343 457 282 457 c 0,6,7
 238 457 238 457 202.5 435 c 128,-1,8
 167 413 167 413 145 379 c 1,9,-1
 60 413 l 1,10,11
 95 473 95 473 155.5 512.5 c 128,-1,12
 216 552 216 552 299 552 c 0,13,14
 407 552 407 552 460 473.5 c 128,-1,15
 513 395 513 395 492 265 c 0,16,17
 471 136 471 136 391.5 59.5 c 128,-1,18
 312 -17 312 -17 210 -17 c 0,19,20
 110 -17 110 -17 58 60.5 c 128,-1,21
 6 138 6 138 26 261 c 0,0,1
131 226 m 1,22,23
 121 164 121 164 145 120.5 c 128,-1,24
 169 77 169 77 225 77 c 0,25,26
 281 77 281 77 321 120.5 c 128,-1,27
 361 164 361 164 374 226 c 1,28,-1
 131 226 l 1,22,23
EndSplineSet
EndChar

StartChar: uni01E4
Encoding: 484 484 422
Width: 707
GlyphClass: 2
Flags: W
LayerCount: 2
Fore
SplineSet
49 368 m 0,0,1
 67 474 67 474 117 560 c 128,-1,2
 167 646 167 646 251.5 699 c 128,-1,3
 336 752 336 752 440 752 c 0,4,5
 493 752 493 752 535.5 733.5 c 128,-1,6
 578 715 578 715 605 686.5 c 128,-1,7
 632 658 632 658 646.5 631 c 128,-1,8
 661 604 661 604 670 576 c 1,9,-1
 561 542 l 1,10,11
 550 564 550 564 543.5 574.5 c 128,-1,12
 537 585 537 585 520 606 c 128,-1,13
 503 627 503 627 478.5 637 c 128,-1,14
 454 647 454 647 423 647 c 0,15,16
 328 647 328 647 261 571.5 c 128,-1,17
 194 496 194 496 173 368 c 0,18,19
 152 241 152 241 193.5 164.5 c 128,-1,20
 235 88 235 88 322 88 c 0,21,22
 367 88 367 88 409 108.5 c 128,-1,23
 451 129 451 129 479 170 c 1,24,-1
 308 170 l 1,25,-1
 320 246 l 1,26,-1
 517 246 l 1,27,-1
 525 277 l 1,28,-1
 531 309 l 1,29,-1
 353 309 l 1,30,-1
 370 411 l 1,31,-1
 663 411 l 1,32,-1
 636 246 l 1,33,-1
 695 246 l 1,34,-1
 682 170 l 1,35,-1
 623 170 l 1,36,-1
 595 0 l 1,37,-1
 512 0 l 1,38,-1
 513 75 l 1,39,40
 439 -17 439 -17 303 -17 c 256,41,42
 167 -17 167 -17 93.5 86.5 c 128,-1,43
 20 190 20 190 49 368 c 0,0,1
EndSplineSet
EndChar

StartChar: uni01E5
Encoding: 485 485 423
Width: 539
GlyphClass: 2
Flags: W
LayerCount: 2
Fore
SplineSet
35 295 m 0,0,1
 54 409 54 409 125 480.5 c 128,-1,2
 196 552 196 552 288 552 c 0,3,4
 334 552 334 552 363 528 c 128,-1,5
 392 504 392 504 399 476 c 1,6,-1
 409 536 l 1,7,-1
 519 536 l 1,8,-1
 446 98 l 2,9,10
 437 42 437 42 428 6 c 1,11,-1
 490 6 l 1,12,-1
 478 -65 l 1,13,-1
 405 -65 l 1,14,15
 370 -142 370 -142 313 -182.5 c 128,-1,16
 256 -223 256 -223 166 -223 c 0,17,18
 39 -223 39 -223 -15 -119 c 1,19,-1
 67 -65 l 1,20,21
 104 -128 104 -128 184 -128 c 0,22,23
 248 -128 248 -128 290 -65 c 1,24,-1
 129 -65 l 1,25,-1
 140 6 l 1,26,-1
 318 6 l 1,27,28
 326 33 326 33 332 68 c 2,29,-1
 339 112 l 1,30,31
 318 82 318 82 280 62.5 c 128,-1,32
 242 43 242 43 204 43 c 0,33,34
 113 43 113 43 64.5 110.5 c 128,-1,35
 16 178 16 178 35 295 c 0,0,1
147 295 m 0,36,37
 135 222 135 222 161.5 182.5 c 128,-1,38
 188 143 188 143 231 143 c 0,39,40
 279 143 279 143 317 184.5 c 128,-1,41
 355 226 355 226 367 298 c 0,42,43
 379 369 379 369 355 411 c 128,-1,44
 331 453 331 453 285 453 c 0,45,46
 236 453 236 453 197 408.5 c 128,-1,47
 158 364 158 364 147 295 c 0,36,37
EndSplineSet
EndChar

StartChar: uni01EF
Encoding: 495 495 433
Width: 545
GlyphClass: 2
Flags: W
LayerCount: 2
Fore
SplineSet
162 787 m 1,0,-1
 270 787 l 1,1,-1
 337 686 l 1,2,-1
 437 787 l 1,3,-1
 546 787 l 1,4,-1
 373 624 l 1,5,-1
 277 624 l 1,6,-1
 162 787 l 1,0,-1
-17 -33 m 1,7,-1
 87 -5 l 1,8,9
 92 -54 92 -54 120 -88.5 c 128,-1,10
 148 -123 148 -123 199 -123 c 0,11,12
 259 -123 259 -123 301 -80.5 c 128,-1,13
 343 -38 343 -38 354 28 c 0,14,15
 365 92 365 92 332.5 134.5 c 128,-1,16
 300 177 300 177 227 177 c 2,17,-1
 137 177 l 1,18,-1
 151 257 l 1,19,-1
 341 436 l 1,20,-1
 91 436 l 1,21,-1
 108 536 l 1,22,-1
 521 536 l 1,23,-1
 509 464 l 1,24,-1
 292 264 l 1,25,-1
 331 257 l 1,26,27
 403 240 403 240 442.5 176.5 c 128,-1,28
 482 113 482 113 468 28 c 0,29,30
 450 -81 450 -81 372 -152 c 128,-1,31
 294 -223 294 -223 185 -223 c 0,32,33
 92 -223 92 -223 41 -168.5 c 128,-1,34
 -10 -114 -10 -114 -17 -33 c 1,7,-1
EndSplineSet
EndChar

StartChar: uni01F6
Encoding: 502 502 440
Width: 968
GlyphClass: 2
Flags: W
LayerCount: 2
Fore
SplineSet
29 0 m 1,0,-1
 150 735 l 1,1,-1
 270 735 l 1,2,-1
 219 429 l 1,3,-1
 504 429 l 1,4,-1
 555 735 l 1,5,-1
 676 735 l 1,6,-1
 589 204 l 2,7,8
 579 144 579 144 601 114 c 128,-1,9
 623 84 623 84 669 84 c 0,10,11
 710 84 710 84 742 114.5 c 128,-1,12
 774 145 774 145 782 193 c 2,13,-1
 839 536 l 1,14,-1
 958 536 l 1,15,-1
 899 178 l 2,16,17
 883 82 883 82 812 32.5 c 128,-1,18
 741 -17 741 -17 651 -17 c 0,19,20
 608 -17 608 -17 572.5 -7 c 128,-1,21
 537 3 537 3 507.5 24.5 c 128,-1,22
 478 46 478 46 466 85.5 c 128,-1,23
 454 125 454 125 463 178 c 2,24,-1
 487 326 l 1,25,-1
 202 326 l 1,26,-1
 148 0 l 1,27,-1
 29 0 l 1,0,-1
EndSplineSet
EndChar

StartChar: uni01F7
Encoding: 503 503 441
Width: 623
GlyphClass: 2
Flags: W
LayerCount: 2
Fore
SplineSet
-6 -215 m 1,0,-1
 151 735 l 1,1,-1
 270 735 l 1,2,-1
 259 669 l 1,3,4
 361 752 361 752 454 752 c 0,5,6
 560 752 560 752 602 683.5 c 128,-1,7
 644 615 644 615 623 492 c 0,8,9
 608 404 608 404 557.5 322.5 c 128,-1,10
 507 241 507 241 435.5 180 c 128,-1,11
 364 119 364 119 293 75.5 c 128,-1,12
 222 32 222 32 148 1 c 1,13,-1
 112 -215 l 1,14,-1
 -6 -215 l 1,0,-1
168 119 m 1,15,16
 219 143 219 143 270 178.5 c 128,-1,17
 321 214 321 214 370 261 c 128,-1,18
 419 308 419 308 454 367 c 128,-1,19
 489 426 489 426 499 487 c 0,20,21
 512 565 512 565 490 606.5 c 128,-1,22
 468 648 468 648 412 648 c 0,23,24
 371 648 371 648 323 619 c 128,-1,25
 275 590 275 590 239 549 c 1,26,-1
 168 119 l 1,15,16
EndSplineSet
EndChar

StartChar: Aringacute
Encoding: 506 506 444
Width: 645
GlyphClass: 2
Flags: W
LayerCount: 2
Fore
SplineSet
-51 0 m 1,0,-1
 330 733 l 1,1,2
 314 742 314 742 301 757 c 0,3,4
 266 795 266 795 276 853 c 0,5,6
 285 908 285 908 332 948 c 0,7,8
 361 973 361 973 394 982 c 1,9,-1
 494 1108 l 1,10,-1
 633 1108 l 1,11,-1
 494 978 l 1,12,13
 518 968 518 968 535 948 c 0,14,15
 568 907 568 907 559 853 c 0,16,17
 549 795 549 795 502 757 c 0,18,19
 484 742 484 742 465 733 c 1,20,-1
 602 0 l 1,21,-1
 475 0 l 1,22,-1
 445 182 l 1,23,-1
 167 182 l 1,24,-1
 77 0 l 1,25,-1
 -51 0 l 1,0,-1
214 281 m 1,26,-1
 430 281 l 1,27,-1
 400 471 l 2,28,29
 398 492 398 492 394 517 c 128,-1,30
 390 542 390 542 386 572 c 128,-1,31
 382 602 382 602 381 617 c 1,32,-1
 375 617 l 1,33,34
 371 608 371 608 308 471 c 1,35,-1
 214 281 l 1,26,-1
355 853 m 256,36,37
 351 827 351 827 365 809 c 128,-1,38
 379 791 379 791 407 791 c 0,39,40
 432 791 432 791 452.5 808.5 c 128,-1,41
 473 826 473 826 478 853 c 0,42,43
 482 879 482 879 468 897 c 128,-1,44
 454 915 454 915 427 915 c 256,45,46
 401 915 401 915 380 897 c 128,-1,47
 359 879 359 879 355 853 c 256,36,37
EndSplineSet
EndChar

StartChar: aringacute
Encoding: 507 507 445
Width: 512
GlyphClass: 2
Flags: W
LayerCount: 2
Fore
SplineSet
6 140 m 0,0,1
 31 292 31 292 248 325 c 0,2,3
 327 337 327 337 361 348 c 1,4,-1
 366 376 l 2,5,6
 372 415 372 415 349.5 437.5 c 128,-1,7
 327 460 327 460 283 460 c 0,8,9
 200 460 200 460 127 387 c 1,10,-1
 70 449 l 1,11,12
 118 498 118 498 177 525.5 c 128,-1,13
 236 553 236 553 297 553 c 0,14,15
 409 553 409 553 448 495 c 128,-1,16
 487 437 487 437 470 333 c 2,17,-1
 415 0 l 1,18,-1
 307 0 l 1,19,-1
 318 67 l 1,20,21
 297 33 297 33 253.5 8 c 128,-1,22
 210 -17 210 -17 158 -17 c 0,23,24
 75 -17 75 -17 35 27 c 128,-1,25
 -5 71 -5 71 6 140 c 0,0,1
195 728 m 0,26,27
 204 783 204 783 249 823 c 0,28,29
 278 848 278 848 310 857 c 1,30,-1
 407 983 l 1,31,-1
 541 983 l 1,32,-1
 407 853 l 1,33,34
 430 843 430 843 445 823 c 0,35,36
 477 782 477 782 468 728 c 0,37,38
 459 671 459 671 412.5 632.5 c 128,-1,39
 366 594 366 594 309 594 c 0,40,41
 253 594 253 594 219.5 632.5 c 128,-1,42
 186 671 186 671 195 728 c 0,26,27
119 151 m 0,43,44
 114 121 114 121 133.5 101 c 128,-1,45
 153 81 153 81 190 81 c 0,46,47
 243 81 243 81 286.5 118 c 128,-1,48
 330 155 330 155 340 216 c 2,49,-1
 348 265 l 1,50,51
 306 255 306 255 246 245 c 0,52,53
 132 227 132 227 119 151 c 0,43,44
271 728 m 0,54,55
 267 702 267 702 280.5 684 c 128,-1,56
 294 666 294 666 320 666 c 0,57,58
 345 666 345 666 365 684 c 128,-1,59
 385 702 385 702 390 728 c 0,60,61
 394 755 394 755 380.5 773 c 128,-1,62
 367 791 367 791 341 791 c 256,63,64
 315 791 315 791 295 773 c 128,-1,65
 275 755 275 755 271 728 c 0,54,55
EndSplineSet
EndChar

StartChar: uni021C
Encoding: 540 540 478
Width: 558
GlyphClass: 2
Flags: W
LayerCount: 2
Fore
SplineSet
-29 -94 m 1,0,1
 41 -111 41 -111 120 -111 c 0,2,3
 215 -111 215 -111 281.5 -58.5 c 128,-1,4
 348 -6 348 -6 363 84 c 0,5,6
 379 180 379 180 340.5 223.5 c 128,-1,7
 302 267 302 267 241 267 c 0,8,9
 189 267 189 267 124 243 c 1,10,-1
 141 349 l 1,11,-1
 250 373 l 2,12,13
 318 387 318 387 366 426.5 c 128,-1,14
 414 466 414 466 424 526 c 0,15,16
 433 579 433 579 404 612 c 128,-1,17
 375 645 375 645 315 645 c 0,18,19
 270 645 270 645 237.5 623.5 c 128,-1,20
 205 602 205 602 176 558 c 1,21,-1
 89 605 l 1,22,23
 128 674 128 674 193 713 c 128,-1,24
 258 752 258 752 335 752 c 0,25,26
 457 752 457 752 512 693.5 c 128,-1,27
 567 635 567 635 551 540 c 0,28,29
 537 458 537 458 488 403.5 c 128,-1,30
 439 349 439 349 383 326 c 1,31,-1
 382 325 l 1,32,33
 438 305 438 305 471 242.5 c 128,-1,34
 504 180 504 180 487 82 c 0,35,36
 464 -59 464 -59 357.5 -138.5 c 128,-1,37
 251 -218 251 -218 103 -218 c 0,38,39
 34 -218 34 -218 -47 -203 c 1,40,-1
 -29 -94 l 1,0,1
EndSplineSet
EndChar

StartChar: uni021D
Encoding: 541 541 479
Width: 424
GlyphClass: 2
Flags: W
LayerCount: 2
Fore
SplineSet
-36 -110 m 1,0,1
 20 -123 20 -123 75 -123 c 0,2,3
 137 -123 137 -123 180.5 -86.5 c 128,-1,4
 224 -50 224 -50 235 18 c 0,5,6
 245 80 245 80 220 115.5 c 128,-1,7
 195 151 195 151 154 151 c 0,8,9
 123 151 123 151 76 135 c 1,10,-1
 92 233 l 1,11,-1
 171 251 l 2,12,13
 216 261 216 261 247.5 292.5 c 128,-1,14
 279 324 279 324 286 364 c 0,15,16
 292 403 292 403 276.5 428 c 128,-1,17
 261 453 261 453 228 453 c 0,18,19
 170 453 170 453 134 384 c 1,20,-1
 54 419 l 1,21,22
 78 476 78 476 129.5 514 c 128,-1,23
 181 552 181 552 252 552 c 0,24,25
 333 552 333 552 371.5 501.5 c 128,-1,26
 410 451 410 451 398 381 c 0,27,28
 378 260 378 260 275 207 c 1,29,30
 314 191 314 191 336.5 141 c 128,-1,31
 359 91 359 91 347 21 c 0,32,33
 327 -98 327 -98 252.5 -160.5 c 128,-1,34
 178 -223 178 -223 60 -223 c 0,35,36
 13 -223 13 -223 -53 -213 c 1,37,-1
 -36 -110 l 1,0,1
EndSplineSet
EndChar

StartChar: uni0220
Encoding: 544 544 482
Width: 675
GlyphClass: 2
Flags: W
LayerCount: 2
Fore
SplineSet
29 0 m 1,0,-1
 150 735 l 1,1,-1
 265 735 l 1,2,-1
 251 652 l 1,3,-1
 252 652 l 1,4,5
 349 752 349 752 469 752 c 0,6,7
 681 752 681 752 637 489 c 2,8,-1
 520 -219 l 1,9,-1
 399 -219 l 1,10,-1
 515 480 l 2,11,12
 528 560 528 560 507 603.5 c 128,-1,13
 486 647 486 647 421 647 c 256,14,15
 356 647 356 647 296 589.5 c 128,-1,16
 236 532 236 532 224 457 c 2,17,-1
 148 0 l 1,18,-1
 29 0 l 1,0,-1
EndSplineSet
EndChar

StartChar: uni0221
Encoding: 545 545 483
Width: 699
GlyphClass: 2
Flags: W
LayerCount: 2
Fore
SplineSet
437 -83 m 1,0,1
 439 -107 439 -107 455 -122.5 c 128,-1,2
 471 -138 471 -138 497 -138 c 0,3,4
 519 -138 519 -138 534 -125.5 c 128,-1,5
 549 -113 549 -113 552 -96 c 0,6,7
 555 -77 555 -77 543.5 -63.5 c 128,-1,8
 532 -50 532 -50 508 -50 c 0,9,10
 471 -50 471 -50 437 -83 c 1,0,1
28 269 m 0,11,12
 50 400 50 400 123.5 476 c 128,-1,13
 197 552 197 552 291 552 c 0,14,15
 335 552 335 552 365 529.5 c 128,-1,16
 395 507 395 507 407 476 c 1,17,-1
 454 759 l 1,18,-1
 564 759 l 1,19,-1
 449 62 l 2,20,21
 442 19 442 19 442 11 c 1,22,23
 480 37 480 37 526 37 c 0,24,25
 589 37 589 37 621 -0.5 c 128,-1,26
 653 -38 653 -38 644 -93 c 0,27,28
 634 -152 634 -152 590.5 -187.5 c 128,-1,29
 547 -223 547 -223 484 -223 c 0,30,31
 416 -223 416 -223 378 -170 c 1,32,33
 361 -194 361 -194 347 -224 c 1,34,-1
 262 -188 l 1,35,36
 298 -121 298 -121 330 -82 c 1,37,38
 324 -49 324 -49 334 25 c 2,39,-1
 341 69 l 1,40,41
 321 36 321 36 281.5 9.5 c 128,-1,42
 242 -17 242 -17 196 -17 c 0,43,44
 156 -17 156 -17 122 -1 c 128,-1,45
 88 15 88 15 61 47.5 c 128,-1,46
 34 80 34 80 25 137 c 128,-1,47
 16 194 16 194 28 269 c 0,11,12
141 269 m 0,48,49
 126 181 126 181 150.5 132.5 c 128,-1,50
 175 84 175 84 228 84 c 0,51,52
 279 84 279 84 319.5 133 c 128,-1,53
 360 182 360 182 374 269 c 0,54,55
 388 351 388 351 365 402 c 128,-1,56
 342 453 342 453 290 453 c 0,57,58
 234 453 234 453 194.5 403.5 c 128,-1,59
 155 354 155 354 141 269 c 0,48,49
EndSplineSet
EndChar

StartChar: uni0222
Encoding: 546 546 484
Width: 690
GlyphClass: 2
Flags: W
LayerCount: 2
Fore
SplineSet
27 243 m 0,0,1
 38 310 38 310 84 368.5 c 128,-1,2
 130 427 130 427 202 465 c 1,3,4
 100 520 100 520 121 644 c 0,5,6
 130 700 130 700 150 735 c 1,7,-1
 268 735 l 1,8,9
 255 702 255 702 246 651 c 0,10,11
 237 595 237 595 273.5 552 c 128,-1,12
 310 509 310 509 384 509 c 0,13,14
 456 509 456 509 506 551.5 c 128,-1,15
 556 594 556 594 566 651 c 0,16,17
 572 690 572 690 572 735 c 1,18,-1
 690 735 l 1,19,20
 699 700 699 700 690 644 c 0,21,22
 669 519 669 519 549 465 c 1,23,24
 610 429 610 429 636 369.5 c 128,-1,25
 662 310 662 310 651 243 c 0,26,27
 643 196 643 196 618 152 c 128,-1,28
 593 108 593 108 550.5 69 c 128,-1,29
 508 30 508 30 442 6.5 c 128,-1,30
 376 -17 376 -17 296 -17 c 256,31,32
 217 -17 217 -17 158.5 6.5 c 128,-1,33
 100 30 100 30 70.5 69 c 128,-1,34
 41 108 41 108 30 152 c 128,-1,35
 19 196 19 196 27 243 c 0,0,1
151 243 m 0,36,37
 139 172 139 172 184.5 129.5 c 128,-1,38
 230 87 230 87 314 87 c 0,39,40
 395 87 395 87 454.5 130 c 128,-1,41
 514 173 514 173 526 243 c 256,42,43
 538 313 538 313 491.5 357.5 c 128,-1,44
 445 402 445 402 366 402 c 256,45,46
 287 402 287 402 225 358.5 c 128,-1,47
 163 315 163 315 151 243 c 0,36,37
EndSplineSet
EndChar

StartChar: uni0223
Encoding: 547 547 485
Width: 524
GlyphClass: 2
Flags: W
LayerCount: 2
Fore
SplineSet
24 246 m 0,0,1
 37 325 37 325 77.5 384 c 128,-1,2
 118 443 118 443 174 469 c 1,3,4
 90 521 90 521 112 650 c 0,5,6
 121 702 121 702 141 743 c 1,7,-1
 250 743 l 1,8,9
 231 684 231 684 226 658 c 0,10,11
 216 597 216 597 231.5 555.5 c 128,-1,12
 247 514 247 514 300 514 c 0,13,14
 351 514 351 514 381.5 555.5 c 128,-1,15
 412 597 412 597 422 658 c 0,16,17
 426 684 426 684 427 743 c 1,18,-1
 535 743 l 1,19,20
 542 703 542 703 533 650 c 0,21,22
 511 518 511 518 411 469 c 1,23,24
 459 444 459 444 479.5 384.5 c 128,-1,25
 500 325 500 325 487 246 c 0,26,27
 481 208 481 208 467.5 172 c 128,-1,28
 454 136 454 136 431 101 c 128,-1,29
 408 66 408 66 377.5 40.5 c 128,-1,30
 347 15 347 15 305 -1 c 128,-1,31
 263 -17 263 -17 212 -17 c 0,32,33
 163 -17 163 -17 125.5 -1 c 128,-1,34
 88 15 88 15 66 40.5 c 128,-1,35
 44 66 44 66 32 100.5 c 128,-1,36
 20 135 20 135 19 171 c 128,-1,37
 18 207 18 207 24 246 c 0,0,1
137 246 m 0,38,39
 125 174 125 174 150.5 129 c 128,-1,40
 176 84 176 84 229 84 c 256,41,42
 282 84 282 84 322 128.5 c 128,-1,43
 362 173 362 173 375 246 c 0,44,45
 387 318 387 318 362 365.5 c 128,-1,46
 337 413 337 413 284 413 c 0,47,48
 232 413 232 413 190.5 366.5 c 128,-1,49
 149 320 149 320 137 246 c 0,38,39
EndSplineSet
EndChar

StartChar: uni0224
Encoding: 548 548 486
Width: 590
GlyphClass: 2
Flags: W
LayerCount: 2
Fore
SplineSet
-18 0 m 1,0,-1
 -3 88 l 1,1,-1
 460 630 l 1,2,-1
 116 630 l 1,3,-1
 133 735 l 1,4,-1
 625 735 l 1,5,-1
 610 644 l 1,6,-1
 147 104 l 1,7,-1
 412 104 l 2,8,9
 582 104 582 104 550 -85 c 0,10,11
 539 -152 539 -152 500 -219 c 1,12,-1
 391 -219 l 1,13,14
 432 -156 432 -156 441 -101 c 0,15,16
 448 -59 448 -59 430.5 -29.5 c 128,-1,17
 413 0 413 0 364 0 c 2,18,-1
 -18 0 l 1,0,-1
EndSplineSet
EndChar

StartChar: uni0225
Encoding: 549 549 487
Width: 457
GlyphClass: 2
Flags: W
LayerCount: 2
Fore
SplineSet
-25 0 m 1,0,-1
 -12 78 l 1,1,-1
 311 438 l 1,2,-1
 68 438 l 1,3,-1
 85 537 l 1,4,-1
 472 537 l 1,5,-1
 460 464 l 1,6,-1
 136 100 l 1,7,-1
 323 100 l 2,8,9
 479 100 479 100 449 -83 c 0,10,11
 435 -170 435 -170 407 -219 c 1,12,-1
 309 -219 l 1,13,14
 337 -176 337 -176 349 -103 c 0,15,16
 357 -52 357 -52 342 -26 c 128,-1,17
 327 0 327 0 281 0 c 2,18,-1
 -25 0 l 1,0,-1
EndSplineSet
EndChar

StartChar: uni0234
Encoding: 564 564 502
Width: 388
GlyphClass: 2
Flags: W
LayerCount: 2
Fore
SplineSet
130 -82 m 1,0,1
 131 -105 131 -105 147 -121.5 c 128,-1,2
 163 -138 163 -138 189 -138 c 0,3,4
 212 -138 212 -138 226.5 -126 c 128,-1,5
 241 -114 241 -114 244 -97 c 0,6,7
 247 -77 247 -77 234.5 -63.5 c 128,-1,8
 222 -50 222 -50 201 -50 c 0,9,10
 163 -50 163 -50 130 -82 c 1,0,1
-46 -188 m 1,11,12
 -1 -111 -1 -111 22 -82 c 1,13,14
 13 -41 13 -41 26 35 c 2,15,-1
 146 759 l 1,16,-1
 257 759 l 1,17,-1
 141 62 l 2,18,19
 135 27 135 27 134 10 c 1,20,21
 173 37 173 37 218 37 c 0,22,23
 280 37 280 37 312.5 -0.5 c 128,-1,24
 345 -38 345 -38 336 -93 c 0,25,26
 326 -152 326 -152 283 -187.5 c 128,-1,27
 240 -223 240 -223 176 -223 c 0,28,29
 106 -223 106 -223 70 -170 c 1,30,31
 50 -197 50 -197 38 -224 c 1,32,-1
 -46 -188 l 1,11,12
EndSplineSet
EndChar

StartChar: uni0235
Encoding: 565 565 503
Width: 684
GlyphClass: 2
Flags: W
LayerCount: 2
Fore
SplineSet
425 -82 m 1,0,1
 427 -106 427 -106 443.5 -122 c 128,-1,2
 460 -138 460 -138 485 -138 c 0,3,4
 507 -138 507 -138 521.5 -126 c 128,-1,5
 536 -114 536 -114 539 -96 c 256,6,7
 542 -78 542 -78 530.5 -64 c 128,-1,8
 519 -50 519 -50 496 -50 c 0,9,10
 458 -50 458 -50 425 -82 c 1,0,1
11 0 m 1,11,-1
 100 536 l 1,12,-1
 206 536 l 1,13,-1
 195 468 l 1,14,-1
 196 468 l 1,15,16
 215 499 215 499 255.5 525.5 c 128,-1,17
 296 552 296 552 351 552 c 0,18,19
 517 552 517 552 482 345 c 2,20,-1
 435 59 l 2,21,22
 433 49 433 49 432 40 c 0,23,24
 429 23 429 23 428 11 c 1,25,26
 465 37 465 37 512 37 c 0,27,28
 574 37 574 37 607 0 c 128,-1,29
 640 -37 640 -37 631 -93 c 0,30,31
 621 -152 621 -152 577.5 -187.5 c 128,-1,32
 534 -223 534 -223 469 -223 c 0,33,34
 404 -223 404 -223 366 -169 c 1,35,36
 342 -207 342 -207 333 -224 c 1,37,-1
 249 -188 l 1,38,39
 277 -133 277 -133 317 -82 c 1,40,41
 308 -39 308 -39 321 37 c 2,42,-1
 370 330 l 2,43,44
 390 453 390 453 310 453 c 0,45,46
 262 453 262 453 222.5 411.5 c 128,-1,47
 183 370 183 370 173 310 c 2,48,-1
 122 0 l 1,49,-1
 11 0 l 1,11,-1
EndSplineSet
EndChar

StartChar: uni0236
Encoding: 566 566 504
Width: 419
GlyphClass: 2
Flags: W
LayerCount: 2
Fore
SplineSet
156 -82 m 1,0,1
 157 -103 157 -103 173.5 -120.5 c 128,-1,2
 190 -138 190 -138 216 -138 c 0,3,4
 240 -138 240 -138 254.5 -125.5 c 128,-1,5
 269 -113 269 -113 271 -97 c 0,6,7
 274 -80 274 -80 263 -65 c 128,-1,8
 252 -50 252 -50 228 -50 c 0,9,10
 189 -50 189 -50 156 -82 c 1,0,1
41 436 m 1,11,-1
 57 536 l 1,12,-1
 135 536 l 1,13,-1
 161 695 l 1,14,-1
 272 695 l 1,15,-1
 246 536 l 1,16,-1
 362 536 l 1,17,-1
 345 436 l 1,18,-1
 229 436 l 1,19,-1
 159 11 l 1,20,21
 197 37 197 37 245 37 c 0,22,23
 308 37 308 37 339.5 -0.5 c 128,-1,24
 371 -38 371 -38 362 -93 c 0,25,26
 352 -152 352 -152 309 -187.5 c 128,-1,27
 266 -223 266 -223 203 -223 c 0,28,29
 134 -223 134 -223 97 -170 c 1,30,31
 73 -207 73 -207 65 -224 c 1,32,-1
 -19 -188 l 1,33,34
 26 -108 26 -108 49 -82 c 1,35,36
 40 -40 40 -40 53 38 c 2,37,-1
 119 436 l 1,38,-1
 41 436 l 1,11,-1
EndSplineSet
EndChar

StartChar: uni0237
Encoding: 567 567 505
Width: 253
GlyphClass: 2
Flags: W
LayerCount: 2
Fore
SplineSet
-77 -113 m 1,0,-1
 -59 -113 l 2,1,2
 -25 -113 -25 -113 -3.5 -88.5 c 128,-1,3
 18 -64 18 -64 27 -9 c 2,4,-1
 117 536 l 1,5,-1
 229 536 l 1,6,-1
 138 -14 l 2,7,8
 122 -112 122 -112 71.5 -163 c 128,-1,9
 21 -214 21 -214 -57 -214 c 2,10,-1
 -93 -214 l 1,11,-1
 -77 -113 l 1,0,-1
EndSplineSet
EndChar

StartChar: uni0238
Encoding: 568 568 506
Width: 859
GlyphClass: 2
Flags: W
LayerCount: 2
Fore
SplineSet
28 269 m 0,0,1
 50 402 50 402 124 477 c 128,-1,2
 198 552 198 552 290 552 c 0,3,4
 334 552 334 552 364 529 c 128,-1,5
 394 506 394 506 406 476 c 1,6,-1
 453 759 l 1,7,-1
 564 759 l 1,8,-1
 518 477 l 1,9,10
 578 552 578 552 659 552 c 0,11,12
 754 552 754 552 801.5 477 c 128,-1,13
 849 402 849 402 827 269 c 0,14,15
 814 193 814 193 785 135.5 c 128,-1,16
 756 78 756 78 718 46 c 128,-1,17
 680 14 680 14 641.5 -1.5 c 128,-1,18
 603 -17 603 -17 565 -17 c 0,19,20
 518 -17 518 -17 488 8.5 c 128,-1,21
 458 34 458 34 449 68 c 1,22,-1
 438 0 l 1,23,-1
 329 0 l 1,24,-1
 340 69 l 1,25,26
 317 33 317 33 278.5 8 c 128,-1,27
 240 -17 240 -17 195 -17 c 0,28,29
 157 -17 157 -17 123.5 -1.5 c 128,-1,30
 90 14 90 14 63 45.5 c 128,-1,31
 36 77 36 77 25.5 134.5 c 128,-1,32
 15 192 15 192 28 269 c 0,0,1
141 269 m 0,33,34
 126 179 126 179 151 131.5 c 128,-1,35
 176 84 176 84 228 84 c 256,36,37
 280 84 280 84 320 133 c 128,-1,38
 360 182 360 182 373 262 c 2,39,-1
 374 268 l 2,40,41
 387 348 387 348 364.5 400.5 c 128,-1,42
 342 453 342 453 289 453 c 256,43,44
 236 453 236 453 195.5 404.5 c 128,-1,45
 155 356 155 356 141 269 c 0,33,34
480 261 m 2,46,47
 467 183 467 183 491 133.5 c 128,-1,48
 515 84 515 84 566 84 c 256,49,50
 617 84 617 84 657.5 131.5 c 128,-1,51
 698 179 698 179 713 269 c 0,52,53
 727 354 727 354 703.5 403.5 c 128,-1,54
 680 453 680 453 628 453 c 0,55,56
 575 453 575 453 534.5 400.5 c 128,-1,57
 494 348 494 348 481 267 c 2,58,-1
 480 261 l 2,46,47
EndSplineSet
EndChar

StartChar: uni0239
Encoding: 569 569 507
Width: 860
GlyphClass: 2
Flags: W
LayerCount: 2
Fore
SplineSet
28 269 m 0,0,1
 50 400 50 400 123 476 c 128,-1,2
 196 552 196 552 290 552 c 0,3,4
 374 552 374 552 407 472 c 1,5,-1
 417 536 l 1,6,-1
 527 536 l 1,7,-1
 517 473 l 1,8,9
 573 552 573 552 661 552 c 0,10,11
 756 552 756 552 802.5 476 c 128,-1,12
 849 400 849 400 828 269 c 0,13,14
 816 195 816 195 787.5 138 c 128,-1,15
 759 81 759 81 722 48.5 c 128,-1,16
 685 16 685 16 646 -0.5 c 128,-1,17
 607 -17 607 -17 566 -17 c 0,18,19
 517 -17 517 -17 488 8 c 128,-1,20
 459 33 459 33 450 67 c 1,21,-1
 402 -219 l 1,22,-1
 291 -219 l 1,23,-1
 339 66 l 1,24,25
 316 33 316 33 278 8 c 128,-1,26
 240 -17 240 -17 195 -17 c 0,27,28
 154 -17 154 -17 120.5 -0.5 c 128,-1,29
 87 16 87 16 60.5 48.5 c 128,-1,30
 34 81 34 81 25 138 c 128,-1,31
 16 195 16 195 28 269 c 0,0,1
140 269 m 0,32,33
 125 181 125 181 149.5 132.5 c 128,-1,34
 174 84 174 84 227 84 c 0,35,36
 282 84 282 84 321 133 c 128,-1,37
 360 182 360 182 374 269 c 2,38,-1
 375 274 l 2,39,40
 388 353 388 353 364.5 403 c 128,-1,41
 341 453 341 453 288 453 c 0,42,43
 233 453 233 453 193 401.5 c 128,-1,44
 153 350 153 350 140 269 c 0,32,33
481 269 m 2,45,46
 467 184 467 184 491.5 134 c 128,-1,47
 516 84 516 84 568 84 c 256,48,49
 620 84 620 84 659.5 132 c 128,-1,50
 699 180 699 180 714 269 c 0,51,52
 728 352 728 352 706.5 402.5 c 128,-1,53
 685 453 685 453 629 453 c 0,54,55
 579 453 579 453 537 402.5 c 128,-1,56
 495 352 495 352 482 275 c 2,57,-1
 481 269 l 2,45,46
EndSplineSet
EndChar

StartChar: uni023A
Encoding: 570 570 508
Width: 645
GlyphClass: 2
Flags: W
LayerCount: 2
Fore
SplineSet
214 281 m 1,0,-1
 242 281 l 1,1,-1
 399 480 l 1,2,3
 387 565 387 565 381 617 c 1,4,-1
 375 617 l 1,5,6
 338 534 338 534 308 471 c 2,7,-1
 214 281 l 1,0,-1
327 281 m 1,8,-1
 431 281 l 1,9,-1
 414 390 l 1,10,-1
 327 281 l 1,8,-1
-51 0 m 1,11,-1
 332 735 l 1,12,-1
 464 735 l 1,13,-1
 491 594 l 1,14,-1
 638 781 l 1,15,-1
 723 781 l 1,16,-1
 507 508 l 1,17,-1
 602 0 l 1,18,-1
 475 0 l 1,19,-1
 445 182 l 1,20,-1
 249 182 l 1,21,-1
 30 -95 l 1,22,-1
 -56 -95 l 1,23,-1
 20 0 l 1,24,-1
 -51 0 l 1,11,-1
EndSplineSet
EndChar

StartChar: uni023B
Encoding: 571 571 509
Width: 645
GlyphClass: 2
Flags: W
LayerCount: 2
Fore
SplineSet
49 368 m 0,0,1
 78 541 78 541 182.5 646.5 c 128,-1,2
 287 752 287 752 432 752 c 0,3,4
 482 752 482 752 527 734 c 1,5,-1
 554 789 l 1,6,-1
 642 789 l 1,7,-1
 591 691 l 1,8,9
 641 647 641 647 657 574 c 1,10,-1
 548 540 l 1,11,12
 541 560 541 560 529 577 c 1,13,-1
 274 97 l 1,14,15
 294 88 294 88 322 88 c 0,16,17
 381 88 381 88 430 124.5 c 128,-1,18
 479 161 479 161 506 210 c 1,19,-1
 610 176 l 1,20,21
 591 143 591 143 566 114 c 128,-1,22
 541 85 541 85 503 53 c 128,-1,23
 465 21 465 21 414 2 c 128,-1,24
 363 -17 363 -17 305 -17 c 0,25,26
 256 -17 256 -17 220 -5 c 1,27,-1
 192 -58 l 1,28,-1
 104 -58 l 1,29,-1
 150 28 l 1,30,31
 83 76 83 76 56 163 c 128,-1,32
 29 250 29 250 49 368 c 0,0,1
210 140 m 1,33,-1
 474 634 l 1,34,35
 446 647 446 647 414 647 c 0,36,37
 322 647 322 647 257.5 569 c 128,-1,38
 193 491 193 491 173 368 c 0,39,40
 148 217 148 217 210 140 c 1,33,-1
EndSplineSet
EndChar

StartChar: uni023C
Encoding: 572 572 510
Width: 486
GlyphClass: 2
Flags: W
LayerCount: 2
Fore
SplineSet
28 269 m 0,0,1
 48 392 48 392 124 472 c 128,-1,2
 200 552 200 552 312 552 c 0,3,4
 343 552 343 552 371 542 c 1,5,-1
 402 603 l 1,6,-1
 480 603 l 1,7,-1
 428 504 l 1,8,9
 447 488 447 488 461 457 c 128,-1,10
 475 426 475 426 476 394 c 1,11,-1
 383 367 l 1,12,13
 380 383 380 383 372 397 c 1,14,-1
 213 85 l 1,15,16
 219 84 219 84 232 84 c 0,17,18
 305 84 305 84 358 177 c 1,19,-1
 447 149 l 1,20,21
 422 89 422 89 359 36 c 128,-1,22
 296 -17 296 -17 215 -17 c 0,23,24
 186 -17 186 -17 162 -11 c 1,25,-1
 139 -58 l 1,26,-1
 61 -58 l 1,27,-1
 100 17 l 1,28,29
 50 53 50 53 32.5 121.5 c 128,-1,30
 15 190 15 190 28 269 c 0,0,1
159 131 m 1,31,-1
 320 446 l 1,32,33
 311 452 311 452 293 452 c 0,34,35
 235 452 235 452 194.5 400 c 128,-1,36
 154 348 154 348 141 269 c 0,37,38
 126 181 126 181 159 131 c 1,31,-1
EndSplineSet
EndChar

StartChar: uni023D
Encoding: 573 573 511
Width: 535
GlyphClass: 2
Flags: W
LayerCount: 2
Fore
SplineSet
19 365 m 1,0,-1
 35 462 l 1,1,-1
 110 462 l 1,2,-1
 156 735 l 1,3,-1
 275 735 l 1,4,-1
 230 462 l 1,5,-1
 409 462 l 1,6,-1
 393 365 l 1,7,-1
 214 365 l 1,8,-1
 171 104 l 1,9,-1
 497 104 l 1,10,-1
 480 0 l 1,11,-1
 34 0 l 1,12,-1
 94 365 l 1,13,-1
 19 365 l 1,0,-1
EndSplineSet
EndChar

StartChar: uni023E
Encoding: 574 574 512
Width: 554
GlyphClass: 2
Flags: W
LayerCount: 2
Fore
SplineSet
394 630 m 1,0,-1
 374 508 l 1,1,-1
 459 630 l 1,2,-1
 394 630 l 1,0,-1
66 630 m 1,3,-1
 84 735 l 1,4,-1
 534 735 l 1,5,-1
 572 789 l 1,6,-1
 653 789 l 1,7,-1
 615 735 l 1,8,-1
 619 735 l 1,9,-1
 601 630 l 1,10,-1
 541 630 l 1,11,-1
 349 357 l 1,12,-1
 289 0 l 1,13,-1
 170 0 l 1,14,-1
 192 135 l 1,15,-1
 63 -48 l 1,16,-1
 -18 -48 l 1,17,-1
 217 286 l 1,18,-1
 274 630 l 1,19,-1
 66 630 l 1,3,-1
EndSplineSet
EndChar

StartChar: uni023F
Encoding: 575 575 513
Width: 461
GlyphClass: 2
Flags: W
LayerCount: 2
Fore
SplineSet
-7 112 m 1,0,-1
 81 161 l 1,1,2
 119 79 119 79 205 79 c 0,3,4
 244 79 244 79 272 96 c 128,-1,5
 300 113 300 113 305 142 c 0,6,7
 307 156 307 156 302.5 167.5 c 128,-1,8
 298 179 298 179 290 187 c 128,-1,9
 282 195 282 195 265.5 203.5 c 128,-1,10
 249 212 249 212 237 216.5 c 128,-1,11
 225 221 225 221 204 228.5 c 128,-1,12
 183 236 183 236 172 241 c 0,13,14
 112 265 112 265 81.5 299 c 128,-1,15
 51 333 51 333 61 395 c 0,16,17
 73 468 73 468 136.5 510 c 128,-1,18
 200 552 200 552 281 552 c 0,19,20
 348 552 348 552 395.5 517.5 c 128,-1,21
 443 483 443 483 462 429 c 1,22,-1
 381 382 l 1,23,24
 339 457 339 457 264 457 c 0,25,26
 226 457 226 457 201.5 439.5 c 128,-1,27
 177 422 177 422 173 393 c 0,28,29
 164 339 164 339 257 311 c 0,30,31
 292 300 292 300 318 288 c 128,-1,32
 344 276 344 276 371.5 256.5 c 128,-1,33
 399 237 399 237 411 207.5 c 128,-1,34
 423 178 423 178 417 142 c 0,35,36
 406 73 406 73 345 28 c 128,-1,37
 284 -17 284 -17 188 -17 c 0,38,39
 141 -17 141 -17 106 -1 c 1,40,41
 115 -73 115 -73 125 -93 c 0,42,43
 145 -139 145 -139 202 -139 c 0,44,45
 238 -139 238 -139 260 -134 c 1,46,-1
 246 -217 l 1,47,48
 206 -223 206 -223 183 -223 c 0,49,50
 143 -223 143 -223 114 -209 c 128,-1,51
 85 -195 85 -195 68.5 -175.5 c 128,-1,52
 52 -156 52 -156 41 -124.5 c 128,-1,53
 30 -93 30 -93 27.5 -68.5 c 128,-1,54
 25 -44 25 -44 23 -9 c 0,55,56
 19 72 19 72 -7 112 c 1,0,-1
EndSplineSet
EndChar

StartChar: uni0240
Encoding: 576 576 514
Width: 462
GlyphClass: 2
Flags: W
LayerCount: 2
Fore
SplineSet
-25 0 m 1,0,-1
 -12 78 l 1,1,-1
 310 436 l 1,2,-1
 68 436 l 1,3,-1
 84 536 l 1,4,-1
 472 536 l 1,5,-1
 460 463 l 1,6,-1
 115 77 l 1,7,8
 144 70 144 70 167 46 c 128,-1,9
 190 22 190 22 205 -5.5 c 128,-1,10
 220 -33 220 -33 234.5 -60 c 128,-1,11
 249 -87 249 -87 270 -105 c 128,-1,12
 291 -123 291 -123 317 -123 c 0,13,14
 349 -123 349 -123 376 -118 c 1,15,-1
 360 -216 l 1,16,17
 333 -223 333 -223 294 -223 c 0,18,19
 251 -223 251 -223 220.5 -201 c 128,-1,20
 190 -179 190 -179 170.5 -148 c 128,-1,21
 151 -117 151 -117 134.5 -85 c 128,-1,22
 118 -53 118 -53 93.5 -28.5 c 128,-1,23
 69 -4 69 -4 37 0 c 1,24,-1
 -25 0 l 1,0,-1
EndSplineSet
EndChar

StartChar: uni0241
Encoding: 577 577 515
Width: 564
GlyphClass: 2
Flags: W
LayerCount: 2
Fore
SplineSet
99 571 m 1,0,1
 133 650 133 650 205 701 c 128,-1,2
 277 752 277 752 366 752 c 0,3,4
 462 752 462 752 514 694.5 c 128,-1,5
 566 637 566 637 551 544 c 0,6,7
 544 499 544 499 520.5 463 c 128,-1,8
 497 427 497 427 468.5 401.5 c 128,-1,9
 440 376 440 376 411.5 352 c 128,-1,10
 383 328 383 328 360.5 297 c 128,-1,11
 338 266 338 266 332 229 c 2,12,-1
 294 0 l 1,13,-1
 174 0 l 1,14,-1
 214 239 l 2,15,16
 221 282 221 282 244.5 319 c 128,-1,17
 268 356 268 356 295.5 381 c 128,-1,18
 323 406 323 406 350.5 429.5 c 128,-1,19
 378 453 378 453 400 483.5 c 128,-1,20
 422 514 422 514 428 548 c 0,21,22
 435 593 435 593 412.5 620.5 c 128,-1,23
 390 648 390 648 349 648 c 0,24,25
 305 648 305 648 266.5 619 c 128,-1,26
 228 590 228 590 202 538 c 1,27,-1
 99 571 l 1,0,1
EndSplineSet
EndChar

StartChar: uni0250
Encoding: 592 592 516
Width: 513
GlyphClass: 2
Flags: W
LayerCount: 2
Fore
SplineSet
162 270 m 1,0,1
 215 283 215 283 263 291 c 0,2,3
 321 301 321 301 352.5 323.5 c 128,-1,4
 384 346 384 346 390 385 c 0,5,6
 395 414 395 414 375.5 434 c 128,-1,7
 356 454 356 454 319 454 c 0,8,9
 268 454 268 454 224.5 417 c 128,-1,10
 181 380 181 380 171 325 c 2,11,-1
 162 270 l 1,0,1
40 203 m 2,12,-1
 95 536 l 1,13,-1
 203 536 l 1,14,-1
 191 469 l 1,15,16
 210 501 210 501 254 526.5 c 128,-1,17
 298 552 298 552 352 552 c 0,18,19
 433 552 433 552 475 509 c 128,-1,20
 517 466 517 466 505 395 c 0,21,22
 480 243 480 243 252 209 c 0,23,24
 191 200 191 200 148 188 c 0,25,26
 147 184 147 184 145.5 172 c 128,-1,27
 144 160 144 160 143 156 c 0,28,29
 137 120 137 120 160.5 98 c 128,-1,30
 184 76 184 76 227 76 c 0,31,32
 310 76 310 76 383 149 c 1,33,-1
 441 87 l 1,34,35
 393 37 393 37 333 10 c 128,-1,36
 273 -17 273 -17 213 -17 c 0,37,38
 102 -17 102 -17 62.5 40.5 c 128,-1,39
 23 98 23 98 40 203 c 2,12,-1
EndSplineSet
EndChar

StartChar: uni0251
Encoding: 593 593 517
Width: 541
GlyphClass: 2
Flags: W
LayerCount: 2
Fore
SplineSet
141 269 m 0,0,1
 126 179 126 179 151 131.5 c 128,-1,2
 176 84 176 84 228 84 c 0,3,4
 272 84 272 84 314 129.5 c 128,-1,5
 356 175 356 175 371 269 c 0,6,7
 385 351 385 351 362.5 402 c 128,-1,8
 340 453 340 453 288 453 c 0,9,10
 235 453 235 453 195 403.5 c 128,-1,11
 155 354 155 354 141 269 c 0,0,1
28 269 m 0,12,13
 50 400 50 400 122.5 476 c 128,-1,14
 195 552 195 552 289 552 c 0,15,16
 333 552 333 552 362.5 528.5 c 128,-1,17
 392 505 392 505 404 477 c 1,18,-1
 414 536 l 1,19,-1
 524 536 l 1,20,-1
 435 0 l 1,21,-1
 328 0 l 1,22,-1
 339 70 l 1,23,24
 317 34 317 34 277.5 8.5 c 128,-1,25
 238 -17 238 -17 193 -17 c 0,26,27
 154 -17 154 -17 120 -0.5 c 128,-1,28
 86 16 86 16 60 48.5 c 128,-1,29
 34 81 34 81 25 137.5 c 128,-1,30
 16 194 16 194 28 269 c 0,12,13
EndSplineSet
EndChar

StartChar: uni0252
Encoding: 594 594 518
Width: 541
GlyphClass: 2
Flags: W
LayerCount: 2
Fore
SplineSet
14 0 m 1,0,-1
 103 536 l 1,1,-1
 212 536 l 1,2,-1
 202 476 l 1,3,4
 263 552 263 552 344 552 c 0,5,6
 438 552 438 552 485 476 c 128,-1,7
 532 400 532 400 510 269 c 0,8,9
 497 193 497 193 468.5 136 c 128,-1,10
 440 79 440 79 403 47 c 128,-1,11
 366 15 366 15 327.5 -1 c 128,-1,12
 289 -17 289 -17 251 -17 c 0,13,14
 204 -17 204 -17 173.5 9 c 128,-1,15
 143 35 143 35 133 69 c 1,16,-1
 122 0 l 1,17,-1
 14 0 l 1,0,-1
167 269 m 0,18,19
 153 183 153 183 176.5 133.5 c 128,-1,20
 200 84 200 84 250 84 c 0,21,22
 302 84 302 84 342 132 c 128,-1,23
 382 180 382 180 397 269 c 0,24,25
 411 354 411 354 387.5 403.5 c 128,-1,26
 364 453 364 453 311 453 c 0,27,28
 259 453 259 453 220 402 c 128,-1,29
 181 351 181 351 167 269 c 0,18,19
EndSplineSet
EndChar

StartChar: uni0253
Encoding: 595 595 519
Width: 547
GlyphClass: 2
Flags: W
LayerCount: 2
Fore
SplineSet
168 269 m 0,0,1
 154 183 154 183 177.5 133.5 c 128,-1,2
 201 84 201 84 255 84 c 0,3,4
 307 84 307 84 346.5 132 c 128,-1,5
 386 180 386 180 401 269 c 0,6,7
 415 352 415 352 392.5 402.5 c 128,-1,8
 370 453 370 453 316 453 c 0,9,10
 263 453 263 453 222.5 402.5 c 128,-1,11
 182 352 182 352 168 269 c 0,0,1
16 0 m 1,12,-1
 113 589 l 2,13,14
 128 681 128 681 184.5 730.5 c 128,-1,15
 241 780 241 780 322 780 c 0,16,17
 349 780 349 780 418 771 c 1,18,-1
 399 667 l 1,19,20
 341 675 341 675 323 675 c 0,21,22
 283 675 283 675 255 646.5 c 128,-1,23
 227 618 227 618 219 568 c 2,24,-1
 204 476 l 1,25,26
 229 509 229 509 266.5 530.5 c 128,-1,27
 304 552 304 552 347 552 c 0,28,29
 443 552 443 552 489.5 475.5 c 128,-1,30
 536 399 536 399 515 269 c 0,31,32
 492 129 492 129 416.5 56 c 128,-1,33
 341 -17 341 -17 254 -17 c 0,34,35
 206 -17 206 -17 176.5 9 c 128,-1,36
 147 35 147 35 134 69 c 1,37,-1
 123 0 l 1,38,-1
 16 0 l 1,12,-1
EndSplineSet
EndChar

StartChar: uni0254
Encoding: 596 596 520
Width: 485
GlyphClass: 2
Flags: W
LayerCount: 2
Fore
SplineSet
-5 149 m 1,0,-1
 94 177 l 1,1,2
 99 140 99 140 124 112 c 128,-1,3
 149 84 149 84 187 84 c 0,4,5
 240 84 240 84 282.5 132 c 128,-1,6
 325 180 325 180 340 268 c 0,7,8
 353 348 353 348 330 400.5 c 128,-1,9
 307 453 307 453 249 453 c 0,10,11
 214 453 214 453 184 427 c 128,-1,12
 154 401 154 401 137 366 c 1,13,-1
 48 394 l 1,14,15
 71 455 71 455 131 503.5 c 128,-1,16
 191 552 191 552 266 552 c 0,17,18
 371 552 371 552 423 475 c 128,-1,19
 475 398 475 398 453 268 c 256,20,21
 431 138 431 138 354 60.5 c 128,-1,22
 277 -17 277 -17 172 -17 c 0,23,24
 96 -17 96 -17 48 33 c 128,-1,25
 0 83 0 83 -5 149 c 1,0,-1
EndSplineSet
EndChar

StartChar: uni0255
Encoding: 597 597 521
Width: 486
GlyphClass: 2
Flags: W
LayerCount: 2
Fore
SplineSet
212 82 m 1,0,1
 236 67 236 67 267 67 c 0,2,3
 298 67 298 67 318 79 c 128,-1,4
 338 91 338 91 341 109 c 0,5,6
 344 125 344 125 333 134 c 128,-1,7
 322 143 322 143 303 143 c 0,8,9
 250 143 250 143 212 82 c 1,0,1
29 275 m 0,10,11
 48 392 48 392 123.5 472 c 128,-1,12
 199 552 199 552 309 552 c 0,13,14
 386 552 386 552 428 502.5 c 128,-1,15
 470 453 470 453 474 394 c 1,16,-1
 376 366 l 1,17,18
 371 401 371 401 351 427 c 128,-1,19
 331 453 331 453 293 453 c 0,20,21
 236 453 236 453 195 400.5 c 128,-1,22
 154 348 154 348 141 269 c 0,23,24
 128 188 128 188 154 137 c 1,25,26
 184 174 184 174 227 200.5 c 128,-1,27
 270 227 270 227 321 227 c 0,28,29
 380 227 380 227 411 194.5 c 128,-1,30
 442 162 442 162 434 110 c 0,31,32
 424 51 424 51 375 17 c 128,-1,33
 326 -17 326 -17 250 -17 c 0,34,35
 199 -17 199 -17 164 -7 c 1,36,37
 146 -44 146 -44 140 -64 c 1,38,-1
 48 -42 l 1,39,40
 59 -7 59 -7 83 33 c 1,41,42
 2 113 2 113 29 275 c 0,10,11
EndSplineSet
EndChar

StartChar: uni0256
Encoding: 598 598 522
Width: 549
GlyphClass: 2
Flags: W
LayerCount: 2
Fore
SplineSet
28 269 m 0,0,1
 50 402 50 402 124 477 c 128,-1,2
 198 552 198 552 291 552 c 0,3,4
 335 552 335 552 365 529.5 c 128,-1,5
 395 507 395 507 408 477 c 1,6,-1
 454 759 l 1,7,-1
 564 759 l 1,8,-1
 434 -30 l 2,9,10
 419 -119 419 -119 484 -119 c 0,11,12
 508 -119 508 -119 556 -112 c 1,13,-1
 539 -214 l 1,14,15
 455 -223 455 -223 447 -223 c 0,16,17
 380 -223 380 -223 344 -180.5 c 128,-1,18
 308 -138 308 -138 324 -37 c 2,19,-1
 342 69 l 1,20,21
 319 33 319 33 280 8 c 128,-1,22
 241 -17 241 -17 196 -17 c 0,23,24
 156 -17 156 -17 122 -1 c 128,-1,25
 88 15 88 15 61 47.5 c 128,-1,26
 34 80 34 80 25 137 c 128,-1,27
 16 194 16 194 28 269 c 0,0,1
141 269 m 0,28,29
 127 182 127 182 150 133 c 128,-1,30
 173 84 173 84 228 84 c 0,31,32
 279 84 279 84 319.5 134 c 128,-1,33
 360 184 360 184 374 269 c 0,34,35
 388 351 388 351 365.5 402 c 128,-1,36
 343 453 343 453 290 453 c 256,37,38
 237 453 237 453 196 404 c 128,-1,39
 155 355 155 355 141 269 c 0,28,29
EndSplineSet
EndChar

StartChar: uni0257
Encoding: 599 599 523
Width: 549
GlyphClass: 2
Flags: W
LayerCount: 2
Fore
SplineSet
28 269 m 0,0,1
 50 401 50 401 124 477 c 128,-1,2
 198 553 198 553 291 553 c 0,3,4
 335 553 335 553 365.5 529.5 c 128,-1,5
 396 506 396 506 407 476 c 1,6,-1
 430 611 l 2,7,8
 444 693 444 693 498 736.5 c 128,-1,9
 552 780 552 780 627 780 c 0,10,11
 665 780 665 780 710 775 c 1,12,-1
 693 671 l 1,13,14
 670 675 670 675 629 675 c 0,15,16
 595 675 595 675 569 651.5 c 128,-1,17
 543 628 543 628 536 587 c 2,18,-1
 439 0 l 1,19,-1
 330 0 l 1,20,-1
 342 71 l 1,21,22
 321 35 321 35 281 9 c 128,-1,23
 241 -17 241 -17 196 -17 c 0,24,25
 155 -17 155 -17 121 -0.5 c 128,-1,26
 87 16 87 16 60.5 48.5 c 128,-1,27
 34 81 34 81 25 137.5 c 128,-1,28
 16 194 16 194 28 269 c 0,0,1
141 269 m 0,29,30
 126 179 126 179 150 131.5 c 128,-1,31
 174 84 174 84 228 84 c 0,32,33
 278 84 278 84 318.5 132.5 c 128,-1,34
 359 181 359 181 374 269 c 0,35,36
 388 351 388 351 365 402 c 128,-1,37
 342 453 342 453 290 453 c 0,38,39
 235 453 235 453 195 403 c 128,-1,40
 155 353 155 353 141 269 c 0,29,30
EndSplineSet
EndChar

StartChar: uni0258
Encoding: 600 600 524
Width: 525
GlyphClass: 2
Flags: W
LayerCount: 2
Fore
SplineSet
22 228 m 1,0,1
 24 243 24 243 29 275 c 0,2,3
 50 400 50 400 128 476.5 c 128,-1,4
 206 553 206 553 304 553 c 0,5,6
 406 553 406 553 460 476.5 c 128,-1,7
 514 400 514 400 493 270 c 0,8,9
 471 138 471 138 390.5 60.5 c 128,-1,10
 310 -17 310 -17 204 -17 c 0,11,12
 122 -17 122 -17 73.5 22.5 c 128,-1,13
 25 62 25 62 11 122 c 1,14,-1
 108 156 l 1,15,16
 119 122 119 122 147.5 100 c 128,-1,17
 176 78 176 78 219 78 c 0,18,19
 279 78 279 78 320.5 121 c 128,-1,20
 362 164 362 164 373 228 c 1,21,-1
 22 228 l 1,0,1
146 310 m 1,22,-1
 386 310 l 1,23,24
 394 372 394 372 369.5 415 c 128,-1,25
 345 458 345 458 289 458 c 256,26,27
 233 458 233 458 194.5 415 c 128,-1,28
 156 372 156 372 146 310 c 1,22,-1
EndSplineSet
EndChar

StartChar: uni025A
Encoding: 602 602 526
Width: 623
GlyphClass: 2
Flags: W
LayerCount: 2
Fore
SplineSet
21 229 m 1,0,-1
 383 384 l 1,1,2
 358 457 358 457 284 457 c 0,3,4
 201 457 201 457 146 379 c 1,5,-1
 58 413 l 1,6,7
 94 474 94 474 156 513 c 128,-1,8
 218 552 218 552 301 552 c 0,9,10
 370 552 370 552 416.5 518.5 c 128,-1,11
 463 485 463 485 482 430 c 1,12,-1
 564 468 l 1,13,14
 569 433 569 433 586.5 411 c 128,-1,15
 604 389 604 389 630 389 c 0,16,17
 659 389 659 389 672 395 c 1,18,-1
 657 302 l 1,19,20
 630 294 630 294 601 294 c 0,21,22
 573 294 573 294 550.5 308.5 c 128,-1,23
 528 323 528 323 521 346 c 1,24,-1
 498 335 l 1,25,26
 498 300 498 300 492 267 c 0,27,28
 471 142 471 142 393.5 62.5 c 128,-1,29
 316 -17 316 -17 210 -17 c 0,30,31
 155 -17 155 -17 115 6 c 128,-1,32
 75 29 75 29 53.5 65.5 c 128,-1,33
 32 102 32 102 24 144 c 128,-1,34
 16 186 16 186 21 229 c 1,0,-1
132 180 m 1,35,36
 133 132 133 132 159 104.5 c 128,-1,37
 185 77 185 77 226 77 c 0,38,39
 274 77 274 77 310.5 112 c 128,-1,40
 347 147 347 147 363 204 c 1,41,42
 375 232 375 232 380 263 c 0,43,44
 382 274 382 274 383 286 c 1,45,-1
 132 180 l 1,35,36
EndSplineSet
EndChar

StartChar: uni025B
Encoding: 603 603 527
Width: 466
GlyphClass: 2
Flags: W
LayerCount: 2
Fore
SplineSet
9 154 m 0,0,1
 17 202 17 202 46.5 235 c 128,-1,2
 76 268 76 268 114 283 c 1,3,4
 55 323 55 323 68 398 c 0,5,6
 79 466 79 466 139 509 c 128,-1,7
 199 552 199 552 286 552 c 0,8,9
 419 552 419 552 463 424 c 1,10,-1
 366 385 l 1,11,12
 354 414 354 414 329 433.5 c 128,-1,13
 304 453 304 453 271 453 c 0,14,15
 231 453 231 453 207.5 436 c 128,-1,16
 184 419 184 419 179 389 c 0,17,18
 174 360 174 360 195 340.5 c 128,-1,19
 216 321 216 321 261 321 c 2,20,-1
 319 321 l 1,21,-1
 304 232 l 1,22,-1
 246 232 l 2,23,24
 189 232 189 232 158.5 210 c 128,-1,25
 128 188 128 188 122 155 c 0,26,27
 116 120 116 120 144 102 c 128,-1,28
 172 84 172 84 212 84 c 0,29,30
 249 84 249 84 285 103 c 128,-1,31
 321 122 321 122 343 149 c 1,32,-1
 422 108 l 1,33,34
 386 52 386 52 326 17.5 c 128,-1,35
 266 -17 266 -17 194 -17 c 0,36,37
 102 -17 102 -17 49 28.5 c 128,-1,38
 -4 74 -4 74 9 154 c 0,0,1
EndSplineSet
EndChar

StartChar: uni025C
Encoding: 604 604 528
Width: 466
GlyphClass: 2
Flags: W
LayerCount: 2
Fore
SplineSet
-13 108 m 1,0,-1
 81 149 l 1,1,2
 93 122 93 122 122.5 103 c 128,-1,3
 152 84 152 84 189 84 c 0,4,5
 229 84 229 84 263 102 c 128,-1,6
 297 120 297 120 303 155 c 0,7,8
 308 188 308 188 284.5 210 c 128,-1,9
 261 232 261 232 204 232 c 2,10,-1
 146 232 l 1,11,-1
 161 321 l 1,12,-1
 219 321 l 2,13,14
 264 321 264 321 291 340.5 c 128,-1,15
 318 360 318 360 323 389 c 0,16,17
 328 419 328 419 310 436 c 128,-1,18
 292 453 292 453 252 453 c 0,19,20
 220 453 220 453 188.5 433.5 c 128,-1,21
 157 414 157 414 135 385 c 1,22,-1
 50 424 l 1,23,24
 137 552 137 552 270 552 c 0,25,26
 357 552 357 552 403 509 c 128,-1,27
 449 466 449 466 438 398 c 0,28,29
 426 324 426 324 353 283 c 1,30,-1
 354 283 l 1,31,32
 387 268 387 268 405.5 235 c 128,-1,33
 424 202 424 202 416 154 c 0,34,35
 403 74 403 74 335 28.5 c 128,-1,36
 267 -17 267 -17 174 -17 c 0,37,38
 103 -17 103 -17 53.5 18 c 128,-1,39
 4 53 4 53 -13 108 c 1,0,-1
EndSplineSet
EndChar

StartChar: uni025D
Encoding: 605 605 529
Width: 555
GlyphClass: 2
Flags: W
LayerCount: 2
Fore
SplineSet
-13 108 m 1,0,-1
 81 149 l 1,1,2
 91 124 91 124 120.5 104 c 128,-1,3
 150 84 150 84 189 84 c 0,4,5
 235 84 235 84 266.5 104.5 c 128,-1,6
 298 125 298 125 303 157 c 0,7,8
 308 190 308 190 284 211 c 128,-1,9
 260 232 260 232 203 232 c 2,10,-1
 146 232 l 1,11,-1
 161 321 l 1,12,-1
 218 321 l 2,13,14
 264 321 264 321 291 340.5 c 128,-1,15
 318 360 318 360 323 389 c 0,16,17
 334 453 334 453 253 453 c 0,18,19
 187 453 187 453 135 385 c 1,20,-1
 50 424 l 1,21,22
 140 552 140 552 270 552 c 0,23,24
 384 552 384 552 424 481 c 1,25,-1
 505 526 l 1,26,27
 510 491 510 491 529 466.5 c 128,-1,28
 548 442 548 442 573 442 c 0,29,30
 601 442 601 442 617 449 c 1,31,-1
 602 355 l 1,32,33
 575 347 575 347 549 347 c 0,34,35
 518 347 518 347 493.5 362.5 c 128,-1,36
 469 378 469 378 461 400 c 1,37,-1
 434 387 l 1,38,39
 428 364 428 364 427 362 c 0,40,41
 407 311 407 311 354 284 c 1,42,-1
 354 283 l 1,43,44
 385 268 385 268 405 235.5 c 128,-1,45
 425 203 425 203 417 156 c 0,46,47
 404 75 404 75 336 29 c 128,-1,48
 268 -17 268 -17 172 -17 c 0,49,50
 101 -17 101 -17 52 18.5 c 128,-1,51
 3 54 3 54 -13 108 c 1,0,-1
EndSplineSet
EndChar

StartChar: uni025E
Encoding: 606 606 530
Width: 522
GlyphClass: 2
Flags: W
LayerCount: 2
Fore
SplineSet
141 269 m 0,0,1
 124 168 124 168 157.5 126 c 128,-1,2
 191 84 191 84 245 84 c 0,3,4
 345 84 345 84 357 155 c 0,5,6
 362 185 362 185 340.5 207 c 128,-1,7
 319 229 319 229 269 229 c 2,8,-1
 232 229 l 1,9,-1
 247 322 l 1,10,-1
 284 322 l 2,11,12
 324 322 324 322 348.5 341.5 c 128,-1,13
 373 361 373 361 378 388 c 0,14,15
 383 420 383 420 363 436.5 c 128,-1,16
 343 453 343 453 306 453 c 0,17,18
 253 453 253 453 205 408.5 c 128,-1,19
 157 364 157 364 141 269 c 0,0,1
28 269 m 0,20,21
 41 348 41 348 75 409.5 c 128,-1,22
 109 471 109 471 172.5 511.5 c 128,-1,23
 236 552 236 552 322 552 c 0,24,25
 402 552 402 552 453.5 512.5 c 128,-1,26
 505 473 505 473 493 398 c 0,27,28
 486 358 486 358 464.5 328 c 128,-1,29
 443 298 443 298 415 282 c 1,30,31
 487 244 487 244 472 156 c 0,32,33
 458 69 458 69 388.5 26 c 128,-1,34
 319 -17 319 -17 228 -17 c 0,35,36
 104 -17 104 -17 55.5 61.5 c 128,-1,37
 7 140 7 140 28 269 c 0,20,21
EndSplineSet
EndChar

StartChar: uni025F
Encoding: 607 607 531
Width: 259
GlyphClass: 2
Flags: W
LayerCount: 2
Fore
SplineSet
-22 250 m 1,0,-1
 -6 347 l 1,1,-1
 88 347 l 1,2,-1
 119 536 l 1,3,-1
 230 536 l 1,4,-1
 199 347 l 1,5,-1
 286 347 l 1,6,-1
 270 250 l 1,7,-1
 183 250 l 1,8,-1
 139 -14 l 2,9,10
 123 -112 123 -112 72.5 -163 c 128,-1,11
 22 -214 22 -214 -56 -214 c 2,12,-1
 -92 -214 l 1,13,-1
 -75 -113 l 1,14,-1
 -58 -113 l 2,15,16
 12 -113 12 -113 29 -9 c 2,17,-1
 72 250 l 1,18,-1
 -22 250 l 1,0,-1
EndSplineSet
EndChar

StartChar: uni0260
Encoding: 608 608 532
Width: 549
GlyphClass: 2
Flags: W
LayerCount: 2
Fore
SplineSet
32 279 m 0,0,1
 53 403 53 403 124 477.5 c 128,-1,2
 195 552 195 552 287 552 c 0,3,4
 332 552 332 552 360 528.5 c 128,-1,5
 388 505 388 505 398 474 c 1,6,-1
 421 611 l 2,7,8
 434 692 434 692 490 736 c 128,-1,9
 546 780 546 780 621 780 c 0,10,11
 638 780 638 780 706 775 c 1,12,-1
 689 672 l 1,13,14
 654 676 654 676 624 676 c 0,15,16
 590 676 590 676 562 652 c 128,-1,17
 534 628 534 628 527 588 c 2,18,-1
 442 74 l 2,19,20
 418 -68 418 -68 353.5 -145.5 c 128,-1,21
 289 -223 289 -223 165 -223 c 0,22,23
 40 -223 40 -223 -14 -119 c 1,24,-1
 67 -65 l 1,25,26
 109 -128 109 -128 183 -128 c 0,27,28
 238 -128 238 -128 274.5 -84.5 c 128,-1,29
 311 -41 311 -41 323 26 c 2,30,-1
 333 74 l 1,31,32
 312 44 312 44 275 24.5 c 128,-1,33
 238 5 238 5 201 5 c 0,34,35
 106 5 106 5 58.5 79 c 128,-1,36
 11 153 11 153 32 279 c 0,0,1
145 279 m 0,37,38
 131 193 131 193 155.5 149 c 128,-1,39
 180 105 180 105 227 105 c 0,40,41
 278 105 278 105 314.5 150.5 c 128,-1,42
 351 196 351 196 365 280 c 0,43,44
 378 359 378 359 357 406 c 128,-1,45
 336 453 336 453 286 453 c 0,46,47
 237 453 237 453 198 407 c 128,-1,48
 159 361 159 361 145 279 c 0,37,38
EndSplineSet
EndChar

StartChar: uni0262
Encoding: 610 610 534
Width: 523
GlyphClass: 2
Flags: W
LayerCount: 2
Fore
SplineSet
27 266 m 0,0,1
 49 396 49 396 126.5 474 c 128,-1,2
 204 552 204 552 317 552 c 0,3,4
 453 552 453 552 493 415 c 1,5,-1
 394 374 l 1,6,7
 369 452 369 452 301 452 c 0,8,9
 241 452 241 452 198 402.5 c 128,-1,10
 155 353 155 353 141 266 c 0,11,12
 127 180 127 180 154 132.5 c 128,-1,13
 181 85 181 85 239 85 c 0,14,15
 283 85 283 85 315.5 112 c 128,-1,16
 348 139 348 139 361 186 c 1,17,-1
 366 214 l 1,18,-1
 244 214 l 1,19,-1
 259 304 l 1,20,-1
 484 304 l 1,21,-1
 434 0 l 1,22,-1
 351 0 l 1,23,-1
 355 47 l 1,24,25
 336 21 336 21 297 2 c 128,-1,26
 258 -17 258 -17 216 -17 c 0,27,28
 114 -17 114 -17 59.5 57 c 128,-1,29
 5 131 5 131 27 266 c 0,0,1
EndSplineSet
EndChar

StartChar: uni0263
Encoding: 611 611 535
Width: 491
GlyphClass: 2
Flags: W
LayerCount: 2
Fore
SplineSet
49 536 m 1,0,-1
 170 536 l 1,1,-1
 214 154 l 1,2,-1
 216 117 l 1,3,-1
 218 117 l 1,4,-1
 235 153 l 1,5,-1
 405 536 l 1,6,-1
 527 536 l 1,7,-1
 285 60 l 1,8,9
 340 -5 340 -5 328 -77 c 0,10,11
 318 -140 318 -140 271.5 -181.5 c 128,-1,12
 225 -223 225 -223 162 -223 c 0,13,14
 101 -223 101 -223 67.5 -183 c 128,-1,15
 34 -143 34 -143 44 -77 c 0,16,17
 55 -9 55 -9 132 59 c 1,18,-1
 49 536 l 1,0,-1
137 -77 m 0,19,20
 133 -103 133 -103 143.5 -121.5 c 128,-1,21
 154 -140 154 -140 176 -140 c 0,22,23
 199 -140 199 -140 216 -121 c 128,-1,24
 233 -102 233 -102 237 -77 c 0,25,26
 245 -27 245 -27 202 19 c 1,27,28
 146 -22 146 -22 137 -77 c 0,19,20
EndSplineSet
Substitution2: "'sups' Superscript lookup 5 subtable" uni02E0
Substitution2: "'aalt' Access All Alternates lookup 0 subtable" uni02E0
EndChar

StartChar: uni0264
Encoding: 612 612 536
Width: 458
GlyphClass: 2
Flags: W
LayerCount: 2
Fore
SplineSet
234 314 m 1,0,1
 164 237 164 237 153 168 c 0,2,3
 147 132 147 132 159 108 c 128,-1,4
 171 84 171 84 198 84 c 256,5,6
 225 84 225 84 243.5 108.5 c 128,-1,7
 262 133 262 133 268 168 c 0,8,9
 280 240 280 240 234 314 c 1,0,1
41 444 m 1,10,-1
 57 542 l 1,11,12
 96 552 96 552 124 552 c 0,13,14
 169 552 169 552 200 533.5 c 128,-1,15
 231 515 231 515 261 479 c 1,16,17
 341 552 341 552 425 552 c 0,18,19
 457 552 457 552 488 543 c 1,20,-1
 472 442 l 1,21,22
 444 452 444 452 410 452 c 0,23,24
 370 452 370 452 317 401 c 1,25,26
 357 334 357 334 371.5 283.5 c 128,-1,27
 386 233 386 233 375 166 c 0,28,29
 362 85 362 85 310.5 34 c 128,-1,30
 259 -17 259 -17 181 -17 c 0,31,32
 101 -17 101 -17 67.5 34.5 c 128,-1,33
 34 86 34 86 47 166 c 0,34,35
 58 233 58 233 92.5 286.5 c 128,-1,36
 127 340 127 340 183 401 c 1,37,38
 145 452 145 452 103 452 c 0,39,40
 95 452 95 452 41 444 c 1,10,-1
EndSplineSet
EndChar

StartChar: uni0265
Encoding: 613 613 537
Width: 528
GlyphClass: 2
Flags: W
LayerCount: 2
Fore
SplineSet
38 191 m 2,0,-1
 95 536 l 1,1,-1
 205 536 l 1,2,-1
 150 204 l 2,3,4
 130 84 130 84 212 84 c 0,5,6
 258 84 258 84 297.5 127.5 c 128,-1,7
 337 171 337 171 346 229 c 2,8,-1
 397 536 l 1,9,-1
 507 536 l 1,10,-1
 382 -219 l 1,11,-1
 272 -219 l 1,12,-1
 318 54 l 1,13,-1
 317 54 l 1,14,15
 294 25 294 25 256 4 c 128,-1,16
 218 -17 218 -17 172 -17 c 0,17,18
 147 -17 147 -17 126 -11.5 c 128,-1,19
 105 -6 105 -6 84 8.5 c 128,-1,20
 63 23 63 23 51 46 c 128,-1,21
 39 69 39 69 34.5 106 c 128,-1,22
 30 143 30 143 38 191 c 2,0,-1
EndSplineSet
EndChar

StartChar: uni0266
Encoding: 614 614 538
Width: 528
GlyphClass: 2
Flags: W
LayerCount: 2
Fore
SplineSet
17 0 m 1,0,-1
 117 607 l 2,1,2
 131 690 131 690 187 735 c 128,-1,3
 243 780 243 780 318 780 c 0,4,5
 354 780 354 780 413 774 c 1,6,-1
 395 671 l 1,7,8
 367 675 367 675 320 675 c 0,9,10
 283 675 283 675 256.5 649.5 c 128,-1,11
 230 624 230 624 224 585 c 2,12,-1
 206 481 l 1,13,-1
 207 481 l 1,14,15
 270 552 270 552 351 552 c 0,16,17
 383 552 383 552 409 542.5 c 128,-1,18
 435 533 435 533 457.5 511.5 c 128,-1,19
 480 490 480 490 487.5 447 c 128,-1,20
 495 404 495 404 486 345 c 2,21,-1
 429 0 l 1,22,-1
 319 0 l 1,23,-1
 373 330 l 2,24,25
 393 453 393 453 315 453 c 0,26,27
 267 453 267 453 227 409.5 c 128,-1,28
 187 366 187 366 178 307 c 2,29,-1
 127 0 l 1,30,-1
 17 0 l 1,0,-1
EndSplineSet
Substitution2: "'sups' Superscript lookup 5 subtable" uni02B1
Substitution2: "'aalt' Access All Alternates lookup 0 subtable" uni02B1
EndChar

StartChar: uni0267
Encoding: 615 615 539
Width: 531
GlyphClass: 2
Flags: W
LayerCount: 2
Fore
SplineSet
17 0 m 1,0,-1
 117 607 l 2,1,2
 131 690 131 690 187 735 c 128,-1,3
 243 780 243 780 318 780 c 0,4,5
 354 780 354 780 413 774 c 1,6,-1
 395 671 l 1,7,8
 367 675 367 675 320 675 c 0,9,10
 283 675 283 675 256.5 649 c 128,-1,11
 230 623 230 623 223 584 c 2,12,-1
 206 481 l 1,13,-1
 207 481 l 1,14,15
 270 552 270 552 351 552 c 0,16,17
 382 552 382 552 407.5 543 c 128,-1,18
 433 534 433 534 456 513 c 128,-1,19
 479 492 479 492 487.5 448.5 c 128,-1,20
 496 405 496 405 486 345 c 2,21,-1
 425 -23 l 2,22,23
 408 -125 408 -125 358.5 -173.5 c 128,-1,24
 309 -222 309 -222 221 -222 c 0,25,26
 189 -222 189 -222 138 -217 c 1,27,-1
 155 -117 l 1,28,29
 186 -122 186 -122 216 -122 c 0,30,31
 260 -122 260 -122 283 -99.5 c 128,-1,32
 306 -77 306 -77 316 -17 c 2,33,-1
 373 330 l 2,34,35
 393 453 393 453 315 453 c 0,36,37
 267 453 267 453 227 408.5 c 128,-1,38
 187 364 187 364 178 307 c 2,39,-1
 127 0 l 1,40,-1
 17 0 l 1,0,-1
EndSplineSet
EndChar

StartChar: uni0268
Encoding: 616 616 540
Width: 253
GlyphClass: 2
Flags: W
LayerCount: 2
Fore
SplineSet
124 616 m 1,0,-1
 145 745 l 1,1,-1
 262 745 l 1,2,-1
 241 616 l 1,3,-1
 124 616 l 1,0,-1
-10 247 m 1,4,-1
 6 344 l 1,5,-1
 82 344 l 1,6,-1
 114 536 l 1,7,-1
 224 536 l 1,8,-1
 192 344 l 1,9,-1
 266 344 l 1,10,-1
 250 247 l 1,11,-1
 176 247 l 1,12,-1
 135 0 l 1,13,-1
 25 0 l 1,14,-1
 66 247 l 1,15,-1
 -10 247 l 1,4,-1
EndSplineSet
EndChar

StartChar: uni0269
Encoding: 617 617 541
Width: 314
GlyphClass: 2
Flags: W
LayerCount: 2
Fore
SplineSet
33 160 m 2,0,-1
 95 536 l 1,1,-1
 206 536 l 1,2,-1
 145 166 l 2,3,4
 132 87 132 87 197 87 c 0,5,6
 225 87 225 87 269 94 c 1,7,-1
 252 -8 l 1,8,9
 174 -17 174 -17 156 -17 c 0,10,11
 90 -17 90 -17 54 25.5 c 128,-1,12
 18 68 18 68 33 160 c 2,0,-1
EndSplineSet
EndChar

StartChar: uni026B
Encoding: 619 619 543
Width: 250
GlyphClass: 2
Flags: W
LayerCount: 2
Fore
SplineSet
-10 339 m 1,0,-1
 7 440 l 1,1,2
 55 454 55 454 76 454 c 0,3,4
 79 454 79 454 87.5 453.5 c 128,-1,5
 96 453 96 453 98 453 c 1,6,-1
 149 759 l 1,7,-1
 259 759 l 1,8,-1
 205 431 l 1,9,10
 208 431 208 431 211 431 c 0,11,12
 226 431 226 431 249 434 c 0,13,14
 272 437 272 437 297 444 c 1,15,-1
 280 343 l 1,16,17
 256 336 256 336 234 334 c 0,18,19
 221 332 221 332 208 332 c 0,20,21
 199 332 199 332 188 333 c 1,22,-1
 133 0 l 1,23,-1
 23 0 l 1,24,-1
 81 352 l 1,25,26
 79 352 79 352 70.5 353 c 128,-1,27
 62 354 62 354 59 354 c 0,28,29
 45 354 45 354 34 352 c 128,-1,30
 23 350 23 350 7 344.5 c 128,-1,31
 -9 339 -9 339 -10 339 c 1,0,-1
EndSplineSet
EndChar

StartChar: uni026C
Encoding: 620 620 544
Width: 427
GlyphClass: 2
Flags: W
LayerCount: 2
Fore
SplineSet
52 414 m 0,0,1
 61 466 61 466 98.5 502 c 128,-1,2
 136 538 136 538 193 538 c 0,3,4
 238 538 238 538 268 507 c 1,5,-1
 310 759 l 1,6,-1
 421 759 l 1,7,-1
 356 365 l 1,8,-1
 455 365 l 1,9,-1
 439 271 l 1,10,-1
 340 271 l 1,11,-1
 295 0 l 1,12,-1
 184 0 l 1,13,-1
 229 271 l 1,14,-1
 197 271 l 2,15,16
 124 271 124 271 82.5 310 c 128,-1,17
 41 349 41 349 52 414 c 0,0,1
146 414 m 0,18,19
 143 393 143 393 157.5 379 c 128,-1,20
 172 365 172 365 196 365 c 2,21,-1
 245 365 l 1,22,-1
 247 386 l 2,23,24
 249 411 249 411 232.5 431.5 c 128,-1,25
 216 452 216 452 193 452 c 0,26,27
 176 452 176 452 162.5 442 c 128,-1,28
 149 432 149 432 146 414 c 0,18,19
EndSplineSet
EndChar

StartChar: uni026D
Encoding: 621 621 545
Width: 325
GlyphClass: 2
Flags: W
LayerCount: 2
Fore
SplineSet
11 -46 m 2,0,-1
 144 759 l 1,1,-1
 255 759 l 1,2,-1
 123 -40 l 2,3,4
 110 -119 110 -119 173 -119 c 0,5,6
 196 -119 196 -119 247 -112 c 1,7,-1
 230 -214 l 1,8,9
 143 -223 143 -223 134 -223 c 0,10,11
 68 -223 68 -223 32 -180.5 c 128,-1,12
 -4 -138 -4 -138 11 -46 c 2,0,-1
EndSplineSet
EndChar

StartChar: uni026E
Encoding: 622 622 546
Width: 660
GlyphClass: 2
Flags: W
LayerCount: 2
Fore
SplineSet
99 -83 m 1,0,-1
 203 -50 l 1,1,2
 229 -123 229 -123 306 -123 c 0,3,4
 370 -123 370 -123 413 -82 c 128,-1,5
 456 -41 456 -41 467 23 c 0,6,7
 478 88 478 88 443 132 c 128,-1,8
 408 176 408 176 337 176 c 2,9,-1
 250 176 l 1,10,-1
 263 255 l 1,11,-1
 452 436 l 1,12,-1
 202 436 l 1,13,-1
 129 0 l 1,14,-1
 19 0 l 1,15,-1
 144 759 l 1,16,-1
 255 759 l 1,17,-1
 218 536 l 1,18,-1
 633 536 l 1,19,-1
 621 464 l 1,20,-1
 413 270 l 1,21,-1
 407 260 l 1,22,23
 497 254 497 254 546 186 c 128,-1,24
 595 118 595 118 579 23 c 0,25,26
 561 -85 561 -85 481 -154 c 128,-1,27
 401 -223 401 -223 293 -223 c 0,28,29
 131 -223 131 -223 99 -83 c 1,0,-1
EndSplineSet
EndChar

StartChar: uni026F
Encoding: 623 623 547
Width: 778
GlyphClass: 2
Flags: W
LayerCount: 2
Fore
SplineSet
38 193 m 2,0,-1
 95 536 l 1,1,-1
 205 536 l 1,2,-1
 149 197 l 2,3,4
 139 139 139 139 150 112 c 128,-1,5
 161 85 161 85 199 85 c 0,6,7
 244 85 244 85 278 124.5 c 128,-1,8
 312 164 312 164 321 221 c 2,9,-1
 374 536 l 1,10,-1
 484 536 l 1,11,-1
 427 193 l 2,12,13
 409 85 409 85 478 85 c 0,14,15
 526 85 526 85 558 122 c 128,-1,16
 590 159 590 159 600 219 c 2,17,-1
 653 536 l 1,18,-1
 763 536 l 1,19,-1
 674 0 l 1,20,-1
 567 0 l 1,21,-1
 577 62 l 1,22,-1
 576 62 l 1,23,24
 566 47 566 47 550.5 32.5 c 128,-1,25
 535 18 535 18 503 2 c 128,-1,26
 471 -14 471 -14 436 -14 c 0,27,28
 352 -14 352 -14 327 81 c 1,29,30
 320 70 320 70 309 57 c 128,-1,31
 298 44 298 44 277 26 c 128,-1,32
 256 8 256 8 224.5 -3 c 128,-1,33
 193 -14 193 -14 159 -14 c 0,34,35
 4 -14 4 -14 38 193 c 2,0,-1
EndSplineSet
EndChar

StartChar: uni0270
Encoding: 624 624 548
Width: 790
GlyphClass: 2
Flags: W
LayerCount: 2
Fore
SplineSet
38 193 m 2,0,-1
 95 536 l 1,1,-1
 205 536 l 1,2,-1
 149 197 l 2,3,4
 140 141 140 141 150 113 c 128,-1,5
 160 85 160 85 199 85 c 0,6,7
 244 85 244 85 278 124.5 c 128,-1,8
 312 164 312 164 321 221 c 2,9,-1
 374 536 l 1,10,-1
 484 536 l 1,11,-1
 427 193 l 2,12,13
 409 85 409 85 478 85 c 0,14,15
 526 85 526 85 558 122 c 128,-1,16
 590 159 590 159 600 219 c 2,17,-1
 653 536 l 1,18,-1
 763 536 l 1,19,-1
 638 -219 l 1,20,-1
 530 -219 l 1,21,-1
 577 62 l 1,22,-1
 576 62 l 1,23,24
 557 34 557 34 520.5 10 c 128,-1,25
 484 -14 484 -14 436 -14 c 0,26,27
 351 -14 351 -14 327 81 c 1,28,29
 306 47 306 47 263 16.5 c 128,-1,30
 220 -14 220 -14 159 -14 c 0,31,32
 4 -14 4 -14 38 193 c 2,0,-1
EndSplineSet
EndChar

StartChar: uni0271
Encoding: 625 625 549
Width: 780
GlyphClass: 2
Flags: W
CounterMasks: 1 0e
LayerCount: 2
Fore
SplineSet
11 0 m 1,0,-1
 100 536 l 1,1,-1
 206 536 l 1,2,-1
 196 475 l 1,3,-1
 197 475 l 1,4,5
 208 490 208 490 224 505 c 128,-1,6
 240 520 240 520 272 536 c 128,-1,7
 304 552 304 552 339 552 c 0,8,9
 423 552 423 552 448 457 c 1,10,11
 471 493 471 493 513.5 522.5 c 128,-1,12
 556 552 556 552 616 552 c 0,13,14
 771 552 771 552 736 345 c 2,15,-1
 672 -46 l 2,16,17
 658 -131 658 -131 606.5 -177 c 128,-1,18
 555 -223 555 -223 469 -223 c 0,19,20
 432 -223 432 -223 388 -217 c 1,21,-1
 405 -112 l 1,22,23
 455 -119 455 -119 476 -119 c 0,24,25
 515 -119 515 -119 535 -100.5 c 128,-1,26
 555 -82 555 -82 562 -39 c 2,27,-1
 625 341 l 2,28,29
 634 397 634 397 624 425 c 128,-1,30
 614 453 614 453 576 453 c 0,31,32
 530 453 530 453 496 413.5 c 128,-1,33
 462 374 462 374 453 317 c 2,34,-1
 400 0 l 1,35,-1
 290 0 l 1,36,-1
 347 344 l 2,37,38
 365 453 365 453 297 453 c 0,39,40
 249 453 249 453 217 416 c 128,-1,41
 185 379 185 379 175 319 c 2,42,-1
 122 0 l 1,43,-1
 11 0 l 1,0,-1
EndSplineSet
EndChar

